B612Mono-Bold.ufo
<glyph name="exclam" format="2">
  <advance width="1300"/>
  <unicode hex="0021"/>
  <outline>
    <contour>
      <point x="652" y="1500" type="line" name="mh01"/>
      <point x="652" y="444" type="line" name="mh02"/>
      <point x="352" y="409" type="line" name="av02"/>
      <point x="352" y="1500" type="line" name="mh03"/>
    </contour>
    <contour>
      <point x="338" y="149" type="qcurve" name="ah01"/>
      <point x="338" y="183"/>
      <point x="364" y="242"/>
      <point x="408" y="287"/>
      <point x="467" y="313"/>
      <point x="501" y="313" type="qcurve" name="av01"/>
      <point x="535" y="313"/>
      <point x="594" y="287"/>
      <point x="638" y="242"/>
      <point x="664" y="183"/>
      <point x="664" y="149" type="qcurve" name="ah02"/>
      <point x="664" y="116"/>
      <point x="639" y="55"/>
      <point x="595" y="10"/>
      <point x="536" y="-17"/>
      <point x="502" y="-17" type="qcurve" name="ab01"/>
      <point x="468" y="-17"/>
      <point x="408" y="10"/>
      <point x="364" y="55"/>
      <point x="338" y="116"/>
    </contour>
  </outline>
</glyph>
<glyph name="quotedbl" format="2">
  <advance width="1300"/>
  <unicode hex="0022"/>
  <outline>
    <contour>
      <point x="861" y="1500" type="line" name="sh01"/>
      <point x="861" y="1367" type="line"/>
      <point x="861" y="1349"/>
      <point x="860" y="1300"/>
      <point x="858" y="1246"/>
      <point x="854" y="1191"/>
      <point x="851" y="1168" type="qcurve"/>
      <point x="828" y="1013" type="line"/>
      <point x="648" y="1013" type="line" name="sv01"/>
      <point x="625" y="1168" type="line"/>
      <point x="622" y="1191"/>
      <point x="618" y="1246"/>
      <point x="616" y="1300"/>
      <point x="615" y="1349"/>
      <point x="615" y="1367" type="qcurve"/>
      <point x="615" y="1500" type="line" name="ah02"/>
    </contour>
    <contour>
      <point x="561" y="1500" type="line" name="sh02"/>
      <point x="561" y="1367" type="line"/>
      <point x="561" y="1349"/>
      <point x="560" y="1300"/>
      <point x="558" y="1246"/>
      <point x="554" y="1191"/>
      <point x="551" y="1168" type="qcurve"/>
      <point x="528" y="1013" type="line"/>
      <point x="348" y="1013" type="line" name="sv02"/>
      <point x="325" y="1168" type="line"/>
      <point x="322" y="1191"/>
      <point x="318" y="1246"/>
      <point x="316" y="1300"/>
      <point x="315" y="1349"/>
      <point x="315" y="1367" type="qcurve"/>
      <point x="315" y="1500" type="line" name="ah01"/>
    </contour>
  </outline>
</glyph>
<glyph name="parenleft" format="2">
  <advance width="1300"/>
  <unicode hex="0028"/>
  <outline>
    <contour>
      <point x="379" y="1158" type="line" name="hr00"/>
      <point x="379" y="1251"/>
      <point x="399" y="1412"/>
      <point x="470" y="1532"/>
      <point x="605" y="1600"/>
      <point x="719" y="1600" type="qcurve" name="av01"/>
      <point x="744" y="1600"/>
      <point x="801" y="1593"/>
      <point x="858" y="1579"/>
      <point x="910" y="1558"/>
      <point x="931" y="1545" type="qcurve" name="ah01"/>
      <point x="841" y="1431" type="line"/>
      <point x="823" y="1431"/>
      <point x="774" y="1421"/>
      <point x="730" y="1380"/>
      <point x="700" y="1298"/>
      <point x="700" y="1227" type="qcurve"/>
      <point x="700" y="-46" type="line"/>
      <point x="700" y="-120"/>
      <point x="731" y="-200"/>
      <point x="773" y="-238"/>
      <point x="818" y="-245"/>
      <point x="833" y="-245" type="qcurve"/>
      <point x="931" y="-365" type="line" name="ah02"/>
      <point x="910" y="-378"/>
      <point x="858" y="-399"/>
      <point x="801" y="-413"/>
      <point x="744" y="-420"/>
      <point x="719" y="-420" type="qcurve" name="av02"/>
      <point x="605" y="-420"/>
      <point x="470" y="-347"/>
      <point x="399" y="-221"/>
      <point x="379" y="-55"/>
      <point x="379" y="38" type="qcurve"/>
    </contour>
  </outline>
</glyph>
<glyph name="plus" format="2">
  <advance width="1300"/>
  <unicode hex="002B"/>
  <outline>
    <contour>
      <point x="179" y="700" type="line" name="hr00"/>
      <point x="539" y="700" type="line"/>
      <point x="539" y="1117" type="line"/>
      <point x="759" y="1117" type="line"/>
      <point x="759" y="700" type="line"/>
      <point x="1119" y="700" type="line"/>
      <point x="1119" y="500" type="line"/>
      <point x="759" y="500" type="line"/>
      <point x="759" y="100" type="line"/>
      <point x="539" y="100" type="line"/>
      <point x="539" y="500" type="line"/>
      <point x="179" y="500" type="line"/>
    </contour>
  </outline>
</glyph>
<glyph name="comma" format="2">
  <advance width="1300"/>
  <unicode hex="002C"/>
  <outline>
    <contour>
      <point x="472" y="156" type="qcurve" name="ah01"/>
      <point x="472" y="191"/>
      <point x="500" y="254"/>
      <point x="549" y="301"/>
      <point x="614" y="329"/>
      <point x="650" y="329" type="qcurve" name="av01"/>
      <point x="684" y="329"/>
      <point x="748" y="304"/>
      <point x="798" y="255"/>
      <point x="828" y="183"/>
      <point x="828" y="136" type="qcurve" name="ah02"/>
      <point x="828" y="73"/>
      <point x="812" y="-48"/>
      <point x="763" y="-169"/>
      <point x="672" y="-296"/>
      <point x="597" y="-365" type="qcurve"/>
      <point x="535" y="-337" type="line"/>
      <point x="549" y="-311"/>
      <point x="573" y="-256"/>
      <point x="584" y="-228" type="qcurve"/>
      <point x="602" y="-180"/>
      <point x="632" y="-71"/>
      <point x="632" y="-17" type="qcurve" name="ab01"/>
      <point x="602" y="-16"/>
      <point x="544" y="7"/>
      <point x="499" y="51"/>
      <point x="472" y="114"/>
    </contour>
  </outline>
</glyph>
<glyph name="hyphen" format="2">
  <advance width="1300"/>
  <unicode hex="002D"/>
  <outline>
    <contour>
      <point x="335" y="624" type="line" name="hr00"/>
      <point x="962" y="624" type="line"/>
      <point x="962" y="400" type="line"/>
      <point x="335" y="400" type="line"/>
    </contour>
  </outline>
</glyph>
<glyph name="period" format="2">
  <advance width="1300"/>
  <unicode hex="002E"/>
  <outline>
    <contour>
      <point x="453" y="183" type="curve" smooth="yes"/>
      <point x="453" y="74"/>
      <point x="542" y="-17"/>
      <point x="652" y="-17" type="curve" smooth="yes"/>
      <point x="760" y="-17"/>
      <point x="848" y="74"/>
      <point x="848" y="183" type="curve" smooth="yes"/>
      <point x="848" y="292"/>
      <point x="759" y="381"/>
      <point x="650" y="381" type="curve" smooth="yes"/>
      <point x="542" y="381"/>
      <point x="453" y="292"/>
    </contour>
  </outline>
</glyph>
<glyph name="slash" format="2">
  <advance width="1300"/>
  <unicode hex="002F"/>
  <outline>
    <contour>
      <point x="453" y="-100" type="line" name="hr00"/>
      <point x="101" y="-100" type="line"/>
      <point x="810" y="1600" type="line"/>
      <point x="1153" y="1600" type="line"/>
    </contour>
  </outline>
</glyph>
<glyph name="four" format="2">
  <advance width="1300"/>
  <unicode hex="0034"/>
  <outline>
    <contour>
      <point x="1200" y="500" type="line" name="hr00"/>
      <point x="1001" y="500" type="line"/>
      <point x="1001" y="800" type="line"/>
      <point x="680" y="780" type="line"/>
      <point x="680" y="500" type="line"/>
      <point x="389" y="500" type="line"/>
      <point x="563" y="763" type="line"/>
      <point x="894" y="1500" type="line"/>
      <point x="613" y="1520" type="line"/>
      <point x="120" y="500" type="line"/>
      <point x="120" y="300" type="line"/>
      <point x="680" y="300" type="line"/>
      <point x="680" y="0" type="line"/>
      <point x="1001" y="0" type="line"/>
      <point x="1001" y="300" type="line"/>
      <point x="1179" y="300" type="line"/>
    </contour>
  </outline>
</glyph>
<glyph name="nine" format="2">
  <advance width="1300"/>
  <unicode hex="0039"/>
  <outline>
    <contour>
      <point x="361" y="-17" type="line"/>
      <point x="889" y="26"/>
      <point x="1195" y="400"/>
      <point x="1195" y="873" type="curve" smooth="yes"/>
      <point x="1195" y="1113"/>
      <point x="1082" y="1517"/>
      <point x="641" y="1517" type="curve" smooth="yes"/>
      <point x="310" y="1517"/>
      <point x="100" y="1313"/>
      <point x="100" y="1017" type="curve" smooth="yes"/>
      <point x="100" y="731"/>
      <point x="327" y="544"/>
      <point x="619" y="544" type="curve" smooth="yes"/>
      <point x="642" y="544"/>
      <point x="664" y="545"/>
      <point x="685" y="548" type="curve"/>
      <point x="863" y="700" type="line"/>
      <point x="859" y="456"/>
      <point x="593" y="207"/>
      <point x="318" y="199" type="curve"/>
    </contour>
    <contour>
      <point x="628" y="761" type="curve" smooth="yes" name="hr01"/>
      <point x="504" y="761"/>
      <point x="430" y="891"/>
      <point x="430" y="1034" type="curve" smooth="yes"/>
      <point x="430" y="1178"/>
      <point x="524" y="1300"/>
      <point x="648" y="1300" type="curve" smooth="yes"/>
      <point x="778" y="1300"/>
      <point x="859" y="1114"/>
      <point x="867" y="945" type="curve"/>
      <point x="824" y="854"/>
      <point x="720" y="761"/>
    </contour>
  </outline>
</glyph>
<glyph name="colon" format="2">
  <advance width="1300"/>
  <unicode hex="003A"/>
  <outline>
    <contour>
      <point x="453" y="700" type="curve" smooth="yes"/>
      <point x="453" y="591"/>
      <point x="542" y="500"/>
      <point x="652" y="500" type="curve" smooth="yes"/>
      <point x="760" y="500"/>
      <point x="848" y="591"/>
      <point x="848" y="700" type="curve" smooth="yes"/>
      <point x="848" y="809"/>
      <point x="759" y="898"/>
      <point x="650" y="898" type="curve" smooth="yes"/>
      <point x="542" y="898"/>
      <point x="453" y="809"/>
    </contour>
    <contour>
      <point x="453" y="183" type="curve" smooth="yes"/>
      <point x="453" y="74"/>
      <point x="542" y="-17"/>
      <point x="652" y="-17" type="curve" smooth="yes"/>
      <point x="760" y="-17"/>
      <point x="848" y="74"/>
      <point x="848" y="183" type="curve" smooth="yes"/>
      <point x="848" y="292"/>
      <point x="759" y="381"/>
      <point x="650" y="381" type="curve" smooth="yes"/>
      <point x="542" y="381"/>
      <point x="453" y="292"/>
    </contour>
  </outline>
</glyph>
<glyph name="semicolon" format="2">
  <advance width="1300"/>
  <unicode hex="003B"/>
  <outline>
    <contour>
      <point x="471.5" y="156" type="qcurve" name="ah03"/>
      <point x="471.5" y="191"/>
      <point x="499.5" y="254"/>
      <point x="548.5" y="301"/>
      <point x="613.5" y="329"/>
      <point x="649.5" y="329" type="qcurve" name="av03"/>
      <point x="683.5" y="329"/>
      <point x="747.5" y="304"/>
      <point x="797.5" y="255"/>
      <point x="827.5" y="183"/>
      <point x="827.5" y="136" type="qcurve" name="ah04"/>
      <point x="827.5" y="73"/>
      <point x="811.5" y="-48"/>
      <point x="762.5" y="-169"/>
      <point x="671.5" y="-296"/>
      <point x="596.5" y="-365" type="qcurve" name="av04"/>
      <point x="534.5" y="-337" type="line"/>
      <point x="548.5" y="-311"/>
      <point x="572.5" y="-256"/>
      <point x="583.5" y="-228" type="qcurve"/>
      <point x="601.5" y="-180"/>
      <point x="631.5" y="-71"/>
      <point x="631.5" y="-17" type="qcurve" name="ab01"/>
      <point x="601.5" y="-16"/>
      <point x="543.5" y="7"/>
      <point x="498.5" y="51"/>
      <point x="471.5" y="114"/>
    </contour>
    <contour>
      <point x="452.5" y="700" type="qcurve" name="ah01"/>
      <point x="452.5" y="741"/>
      <point x="483.5" y="813"/>
      <point x="537.5" y="867"/>
      <point x="608.5" y="898"/>
      <point x="649.5" y="898" type="qcurve" name="av01"/>
      <point x="690.5" y="898"/>
      <point x="762.5" y="867"/>
      <point x="816.5" y="813"/>
      <point x="847.5" y="741"/>
      <point x="847.5" y="700" type="qcurve" name="ah02"/>
      <point x="847.5" y="659"/>
      <point x="816.5" y="586"/>
      <point x="763.5" y="532"/>
      <point x="691.5" y="500"/>
      <point x="651.5" y="500" type="qcurve" name="av02"/>
      <point x="610.5" y="500"/>
      <point x="537.5" y="532"/>
      <point x="483.5" y="586"/>
      <point x="452.5" y="659"/>
    </contour>
  </outline>
</glyph>
<glyph name="less" format="2">
  <advance width="1300"/>
  <unicode hex="003C"/>
  <outline>
    <contour>
      <point x="1137" y="1277" type="line" name="hr00"/>
      <point x="1137" y="1009" type="line"/>
      <point x="470" y="654" type="line"/>
      <point x="1137" y="302" type="line"/>
      <point x="1137" y="34" type="line"/>
      <point x="130" y="545" type="line"/>
      <point x="130" y="770" type="line"/>
    </contour>
  </outline>
</glyph>
<glyph name="question" format="2">
  <advance width="1300"/>
  <unicode hex="003F"/>
  <outline>
    <contour>
      <point x="1111" y="1124" type="qcurve" name="hr00"/>
      <point x="1111" y="1064"/>
      <point x="1071" y="965"/>
      <point x="1006" y="880"/>
      <point x="923" y="803"/>
      <point x="880" y="765" type="qcurve"/>
      <point x="851" y="740"/>
      <point x="792" y="677"/>
      <point x="745" y="597"/>
      <point x="716" y="497"/>
      <point x="716" y="434" type="qcurve" name="av03"/>
      <point x="405" y="399" type="line" name="av02"/>
      <point x="406" y="486"/>
      <point x="431" y="638"/>
      <point x="489" y="771"/>
      <point x="583" y="889"/>
      <point x="654" y="942" type="qcurve"/>
      <point x="676" y="961"/>
      <point x="718" y="1001"/>
      <point x="750" y="1046"/>
      <point x="770" y="1099"/>
      <point x="770" y="1132" type="qcurve"/>
      <point x="770" y="1172"/>
      <point x="741" y="1229"/>
      <point x="692" y="1266"/>
      <point x="628" y="1283"/>
      <point x="594" y="1283" type="qcurve"/>
      <point x="568" y="1283"/>
      <point x="492" y="1266"/>
      <point x="408" y="1227"/>
      <point x="323" y="1163"/>
      <point x="289" y="1117" type="qcurve"/>
      <point x="107" y="1268" type="line"/>
      <point x="164" y="1344"/>
      <point x="293" y="1441"/>
      <point x="427" y="1496"/>
      <point x="559" y="1517"/>
      <point x="618" y="1517" type="qcurve"/>
      <point x="713" y="1517"/>
      <point x="891" y="1470"/>
      <point x="1028" y="1373"/>
      <point x="1111" y="1225"/>
    </contour>
    <contour>
      <point x="409" y="149" type="qcurve" name="ah01"/>
      <point x="409" y="183"/>
      <point x="435" y="242"/>
      <point x="479" y="287"/>
      <point x="538" y="313"/>
      <point x="572" y="313" type="qcurve" name="av01"/>
      <point x="606" y="313"/>
      <point x="665" y="287"/>
      <point x="709" y="242"/>
      <point x="735" y="183"/>
      <point x="735" y="149" type="qcurve" name="ah02"/>
      <point x="735" y="116"/>
      <point x="710" y="55"/>
      <point x="666" y="10"/>
      <point x="607" y="-17"/>
      <point x="573" y="-17" type="qcurve" name="ab01"/>
      <point x="539" y="-17"/>
      <point x="479" y="10"/>
      <point x="435" y="55"/>
      <point x="409" y="116"/>
    </contour>
  </outline>
</glyph>
<glyph name="A" format="2">
  <advance width="1300"/>
  <unicode hex="0041"/>
  <outline>
    <contour>
      <point x="50" y="0" type="line" name="sh02"/>
      <point x="405" y="1284" type="line"/>
      <point x="441" y="1500" type="line"/>
      <point x="819" y="1520" type="line" name="at01"/>
      <point x="1250" y="0" type="line" name="sh04"/>
      <point x="916" y="0" type="line" name="sh03"/>
      <point x="812" y="427" type="line" name="dv01"/>
      <point x="470" y="427" type="line"/>
      <point x="369" y="0" type="line" name="sh01"/>
    </contour>
    <contour>
      <point x="643" y="1331" type="line" name="ah01"/>
      <point x="604" y="990" type="line"/>
      <point x="529" y="646" type="line" name="ih01"/>
      <point x="753" y="646" type="line" name="ih02"/>
      <point x="681" y="990" type="line"/>
    </contour>
  </outline>
</glyph>
<glyph name="C" format="2">
  <advance width="1300"/>
  <unicode hex="0043"/>
  <outline>
    <contour>
      <point x="1220" y="133" type="line" name="ah02"/>
      <point x="1118" y="52"/>
      <point x="895" y="-17"/>
      <point x="764" y="-17" type="qcurve" name="ab01"/>
      <point x="609" y="-17"/>
      <point x="363" y="108"/>
      <point x="191" y="322" name="mh01"/>
      <point x="100" y="608"/>
      <point x="100" y="769" type="qcurve" name="dh01"/>
      <point x="100" y="870"/>
      <point x="134" y="1059" name="mh02"/>
      <point x="204" y="1226"/>
      <point x="312" y="1363"/>
      <point x="461" y="1462" name="mv01"/>
      <point x="651" y="1517"/>
      <point x="768" y="1517" type="qcurve" name="at01"/>
      <point x="898" y="1517"/>
      <point x="1132" y="1429"/>
      <point x="1220" y="1344" type="qcurve" name="ah01"/>
      <point x="1072" y="1160" type="line" name="mv02"/>
      <point x="1039" y="1182"/>
      <point x="966" y="1222"/>
      <point x="892" y="1252"/>
      <point x="818" y="1270"/>
      <point x="784" y="1270" type="qcurve" name="sv01"/>
      <point x="689" y="1270"/>
      <point x="561" y="1192" name="mv03"/>
      <point x="483" y="1057"/>
      <point x="450" y="875"/>
      <point x="450" y="772" type="qcurve" name="dh02"/>
      <point x="450" y="711"/>
      <point x="467" y="584"/>
      <point x="502" y="464"/>
      <point x="557" y="358" name="mh03"/>
      <point x="632" y="279"/>
      <point x="728" y="233"/>
      <point x="788" y="233" type="qcurve" name="sv02"/>
      <point x="822" y="233"/>
      <point x="888" y="244"/>
      <point x="961" y="269"/>
      <point x="1047" y="310"/>
      <point x="1101" y="340" type="qcurve"/>
    </contour>
  </outline>
  <guideline angle="0" color="1,0,0,1" x="0" y="233"/>
</glyph>
<glyph name="D" format="2">
  <advance width="1300"/>
  <unicode hex="0044"/>
  <outline>
    <contour>
      <point x="66" y="1500" type="line" name="at02"/>
      <point x="115" y="1505"/>
      <point x="225" y="1511"/>
      <point x="332" y="1515"/>
      <point x="427" y="1517"/>
      <point x="460" y="1517" type="qcurve" name="at01"/>
      <point x="628" y="1517"/>
      <point x="913" y="1436"/>
      <point x="1121" y="1264"/>
      <point x="1239" y="995"/>
      <point x="1239" y="807" type="qcurve" name="sh01"/>
      <point x="1239" y="662"/>
      <point x="1181" y="429"/>
      <point x="1076" y="250"/>
      <point x="930" y="121"/>
      <point x="755" y="39"/>
      <point x="557" y="0"/>
      <point x="452" y="0" type="qcurve" name="ab01"/>
      <point x="100" y="0" type="line" name="sh02"/>
      <point x="100" y="1262" type="line"/>
    </contour>
    <contour>
      <point x="451" y="1121" type="line"/>
      <point x="451" y="250" type="line" name="sh03"/>
      <point x="556" y="250"/>
      <point x="702" y="301"/>
      <point x="800" y="386"/>
      <point x="854" y="496"/>
      <point x="882" y="613"/>
      <point x="888" y="729"/>
      <point x="888" y="778" type="qcurve" name="ah01"/>
      <point x="888" y="890"/>
      <point x="853" y="1076"/>
      <point x="757" y="1210"/>
      <point x="587" y="1283"/>
      <point x="452" y="1283" type="qcurve" name="sh04"/>
      <point x="449" y="1283"/>
      <point x="442" y="1282"/>
      <point x="438" y="1282" type="qcurve" name="sv01"/>
      <point x="430" y="1282" type="line" name="sv02"/>
    </contour>
  </outline>
</glyph>
<glyph name="E" format="2">
  <advance width="1300"/>
  <unicode hex="0045"/>
  <outline>
    <contour>
      <point x="1137" y="228" type="line" name="dh02"/>
      <point x="1110" y="0" type="line" name="ab02"/>
      <point x="150" y="0" type="line" name="ab01"/>
      <point x="167" y="231" type="line" name="dh03"/>
      <point x="167" y="1263" type="line"/>
      <point x="132" y="1500" type="line" name="at01"/>
      <point x="1100" y="1500" type="line" name="ah01"/>
      <point x="1100" y="1272" type="line"/>
      <point x="503" y="1272" type="line" name="sv01"/>
      <point x="518" y="1134" type="line" name="sh01"/>
      <point x="518" y="916" type="line"/>
      <point x="1034" y="916" type="line" name="dv01"/>
      <point x="1034" y="703" type="line" name="dh01"/>
      <point x="518" y="703" type="line"/>
      <point x="518" y="360" type="line" name="dh04"/>
      <point x="510" y="228" type="line"/>
    </contour>
  </outline>
</glyph>
<glyph name="H" format="2">
  <advance width="1300"/>
  <unicode hex="0048"/>
  <outline>
    <contour>
      <point x="872" y="0" type="line" name="ah01"/>
      <point x="872" y="688" type="line" name="dv02"/>
      <point x="426" y="688" type="line" name="dv04"/>
      <point x="426" y="0" type="line" name="sh02"/>
      <point x="79" y="0" type="line" name="sh01"/>
      <point x="79" y="1263" type="line"/>
      <point x="48" y="1500" type="line"/>
      <point x="426" y="1520" type="line" name="sh03"/>
      <point x="426" y="916" type="line" name="dv03"/>
      <point x="872" y="916" type="line" name="dv01"/>
      <point x="872" y="1500" type="line" name="sh04"/>
      <point x="1218" y="1520" type="line" name="at01"/>
      <point x="1218" y="0" type="line" name="sh05"/>
    </contour>
  </outline>
</glyph>
<glyph name="I" format="2">
  <advance width="1300"/>
  <unicode hex="0049"/>
  <outline>
    <contour>
      <point x="183" y="1500" type="line" name="mh01"/>
      <point x="1061" y="1500" type="line" name="ah02"/>
      <point x="1061" y="1272" type="line" name="mh02"/>
      <point x="788" y="1272" type="line" name="dh04"/>
      <point x="788" y="228" type="line" name="dh02"/>
      <point x="1089" y="228" type="line" name="sh01"/>
      <point x="1054" y="0" type="line" name="ah03"/>
      <point x="176" y="0" type="line" name="ah01"/>
      <point x="176" y="228" type="line" name="mh03"/>
      <point x="454" y="228" type="line" name="dh01"/>
      <point x="454" y="1272" type="line" name="dh03"/>
      <point x="148" y="1272" type="line" name="sh02"/>
    </contour>
  </outline>
</glyph>
<glyph name="O" format="2">
  <advance width="1300"/>
  <unicode hex="004F"/>
  <outline>
    <contour>
      <point x="649" y="-17" type="qcurve" name="ab01"/>
      <point x="551" y="-17"/>
      <point x="386" y="38"/>
      <point x="253" y="139"/>
      <point x="152" y="279"/>
      <point x="84" y="450"/>
      <point x="50" y="645"/>
      <point x="50" y="750" type="qcurve" name="ah01"/>
      <point x="50" y="907"/>
      <point x="124" y="1187"/>
      <point x="273" y="1395"/>
      <point x="498" y="1517"/>
      <point x="649" y="1517" type="qcurve" name="at01"/>
      <point x="796" y="1517"/>
      <point x="1019" y="1395"/>
      <point x="1170" y="1187"/>
      <point x="1247" y="907"/>
      <point x="1247" y="750" type="qcurve" name="ah02"/>
      <point x="1247" y="645"/>
      <point x="1214" y="450"/>
      <point x="1148" y="279"/>
      <point x="1049" y="139"/>
      <point x="916" y="38"/>
      <point x="749" y="-17"/>
    </contour>
    <contour>
      <point x="897" y="721" type="qcurve" name="sh01"/>
      <point x="897" y="783"/>
      <point x="890" y="913"/>
      <point x="871" y="1036"/>
      <point x="836" y="1145"/>
      <point x="779" y="1227"/>
      <point x="698" y="1274"/>
      <point x="643" y="1274" type="qcurve" name="sv01"/>
      <point x="591" y="1274"/>
      <point x="515" y="1231"/>
      <point x="461" y="1158"/>
      <point x="426" y="1061"/>
      <point x="407" y="952"/>
      <point x="400" y="837"/>
      <point x="400" y="783" type="qcurve" name="sh02"/>
      <point x="400" y="720"/>
      <point x="407" y="589"/>
      <point x="427" y="465"/>
      <point x="462" y="356"/>
      <point x="518" y="274"/>
      <point x="599" y="226"/>
      <point x="654" y="226" type="qcurve" name="sv02"/>
      <point x="706" y="226"/>
      <point x="782" y="269"/>
      <point x="836" y="344"/>
      <point x="870" y="442"/>
      <point x="890" y="552"/>
      <point x="897" y="667"/>
    </contour>
  </outline>
</glyph>
<glyph name="R" format="2">
  <advance width="1300"/>
  <unicode hex="0052"/>
  <outline>
    <contour>
      <point x="449" y="600" type="line" name="dv01"/>
      <point x="449" y="0" type="line" name="sh02"/>
      <point x="124" y="0" type="line" name="sh01"/>
      <point x="124" y="1262" type="line"/>
      <point x="86" y="1488" type="line"/>
      <point x="176" y="1498"/>
      <point x="375" y="1517"/>
      <point x="465" y="1517" type="qcurve" name="at01"/>
      <point x="601" y="1517"/>
      <point x="832" y="1460"/>
      <point x="1001" y="1349"/>
      <point x="1096" y="1186"/>
      <point x="1096" y="1081" type="qcurve" name="sh03"/>
      <point x="1096" y="992"/>
      <point x="1039" y="845" name="mh01"/>
      <point x="936" y="729"/>
      <point x="790" y="647"/>
      <point x="700" y="624" type="qcurve" name="ih01"/>
      <point x="792" y="600" type="line"/>
      <point x="1200" y="0" type="line" name="mh02"/>
      <point x="835" y="0" type="line"/>
    </contour>
    <contour>
      <point x="449" y="1121" type="line" name="sh04"/>
      <point x="449" y="800" type="line" name="dv02"/>
      <point x="485" y="800" type="line"/>
      <point x="553" y="800"/>
      <point x="658" y="843"/>
      <point x="730" y="916"/>
      <point x="767" y="1013"/>
      <point x="767" y="1066" type="qcurve" name="ah01"/>
      <point x="767" y="1136"/>
      <point x="715" y="1226"/>
      <point x="634" y="1277"/>
      <point x="535" y="1296"/>
      <point x="489" y="1296" type="qcurve" name="sv01"/>
      <point x="473" y="1296"/>
      <point x="445" y="1295"/>
      <point x="433" y="1294" type="qcurve"/>
    </contour>
  </outline>
</glyph>
<glyph name="S" format="2">
  <advance width="1300"/>
  <unicode hex="0053"/>
  <outline>
    <contour>
      <point x="973" y="1178" type="line" name="mh01"/>
      <point x="927" y="1205"/>
      <point x="852" y="1242"/>
      <point x="788" y="1264"/>
      <point x="731" y="1274"/>
      <point x="703" y="1274" type="qcurve" name="sv01"/>
      <point x="666" y="1274"/>
      <point x="593" y="1260"/>
      <point x="535" y="1226"/>
      <point x="499" y="1168"/>
      <point x="499" y="1125" type="qcurve" name="sh02"/>
      <point x="499" y="1084"/>
      <point x="540" y="1025" name="sv02"/>
      <point x="607" y="979"/>
      <point x="692" y="941" name="mv01"/>
      <point x="736" y="921" type="qcurve" name="sh03"/>
      <point x="811" y="886" name="mv02"/>
      <point x="965" y="805" name="sv04"/>
      <point x="1089" y="695"/>
      <point x="1168" y="548"/>
      <point x="1168" y="448" type="qcurve" name="sh04"/>
      <point x="1168" y="332"/>
      <point x="1072" y="158"/>
      <point x="913" y="42"/>
      <point x="706" y="-17"/>
      <point x="596" y="-17" type="qcurve" name="ab01"/>
      <point x="470" y="-17" name="mh02"/>
      <point x="257" y="54" name="mv03"/>
      <point x="150" y="121" type="qcurve" name="mh03"/>
      <point x="288" y="348" type="line"/>
      <point x="315" y="330"/>
      <point x="389" y="290"/>
      <point x="472" y="257"/>
      <point x="556" y="236"/>
      <point x="594" y="236" type="qcurve" name="sv03"/>
      <point x="638" y="236"/>
      <point x="724" y="255"/>
      <point x="791" y="300"/>
      <point x="832" y="374"/>
      <point x="832" y="430" type="qcurve" name="ah01"/>
      <point x="832" y="484"/>
      <point x="783" y="562" name="av01"/>
      <point x="704" y="621"/>
      <point x="604" y="669" name="iv01"/>
      <point x="553" y="693" type="qcurve" name="ah02"/>
      <point x="481" y="727"/>
      <point x="345" y="803" name="av02"/>
      <point x="238" y="899"/>
      <point x="173" y="1019"/>
      <point x="173" y="1097" type="qcurve" name="sh01"/>
      <point x="173" y="1198"/>
      <point x="259" y="1355"/>
      <point x="401" y="1462"/>
      <point x="583" y="1517"/>
      <point x="679" y="1517" type="qcurve" name="at01"/>
      <point x="797" y="1517"/>
      <point x="1011" y="1444"/>
      <point x="1123" y="1369" type="qcurve" name="mh04"/>
    </contour>
  </outline>
</glyph>
<glyph name="T" format="2">
  <advance width="1300"/>
  <unicode hex="0054"/>
  <outline>
    <contour>
      <point x="469" y="0" type="line" name="dh01"/>
      <point x="469" y="1272" type="line" name="sv01"/>
      <point x="66" y="1272" type="line"/>
      <point x="66" y="1500" type="line" name="at01"/>
      <point x="1200" y="1500" type="line"/>
      <point x="1200" y="1272" type="line" name="sv02"/>
      <point x="802" y="1272" type="line" name="sv03"/>
      <point x="802" y="0" type="line" name="dh02"/>
    </contour>
  </outline>
</glyph>
<glyph name="W" format="2">
  <advance width="1300"/>
  <unicode hex="0057"/>
  <outline>
    <contour>
      <point x="305" y="1520" type="line" name="sh01"/>
      <point x="418" y="959" type="line"/>
      <point x="426" y="400" type="line"/>
      <point x="436" y="400" type="line" name="ah03"/>
      <point x="479" y="701" type="line" name="mh01"/>
      <point x="530" y="1000" type="line" name="sh02"/>
      <point x="756" y="1000" type="line" name="sh03"/>
      <point x="813" y="701" type="line" name="mh02"/>
      <point x="865" y="400" type="line" name="ah01"/>
      <point x="875" y="400" type="line" name="mh03"/>
      <point x="873" y="957" type="line"/>
      <point x="975" y="1500" type="line" name="sh04"/>
      <point x="1266" y="1500" type="line" name="sh05"/>
      <point x="998" y="0" type="line" name="ah05"/>
      <point x="745" y="0" type="line" name="sh06"/>
      <point x="684" y="300" type="line" name="ah04"/>
      <point x="644" y="650" type="line" name="ah02"/>
      <point x="603" y="300" type="line"/>
      <point x="541" y="0" type="line" name="sh07"/>
      <point x="291" y="0" type="line"/>
      <point x="255" y="237"/>
      <point x="185" y="649"/>
      <point x="117" y="1016"/>
      <point x="52" y="1346"/>
      <point x="21" y="1500" type="qcurve" name="sh08"/>
    </contour>
  </outline>
</glyph>
<glyph name="bracketleft" format="2">
  <advance width="1300"/>
  <unicode hex="005B"/>
  <outline>
    <contour>
      <point x="281" y="1288" type="line" name="hr00"/>
      <point x="255" y="1520" type="line"/>
      <point x="955" y="1520" type="line"/>
      <point x="955" y="1302" type="line"/>
      <point x="605" y="1302" type="line"/>
      <point x="620" y="1154" type="line"/>
      <point x="620" y="-31" type="line"/>
      <point x="605" y="-179" type="line"/>
      <point x="955" y="-179" type="line"/>
      <point x="955" y="-398" type="line"/>
      <point x="255" y="-398" type="line"/>
      <point x="281" y="-166" type="line"/>
    </contour>
  </outline>
</glyph>
<glyph name="backslash" format="2">
  <advance width="1300"/>
  <unicode hex="005C"/>
  <outline>
    <contour>
      <point x="93" y="1600" type="line" name="hr00"/>
      <point x="435" y="1600" type="line"/>
      <point x="1141" y="-100" type="line"/>
      <point x="788" y="-100" type="line"/>
    </contour>
  </outline>
</glyph>
<glyph name="bracketright" format="2">
  <advance width="1300"/>
  <unicode hex="005D"/>
  <outline>
    <contour>
      <point x="1041" y="-166" type="line" name="hr00"/>
      <point x="1067" y="-398" type="line"/>
      <point x="367" y="-398" type="line"/>
      <point x="367" y="-179" type="line"/>
      <point x="716" y="-179" type="line"/>
      <point x="701" y="-31" type="line"/>
      <point x="701" y="1154" type="line"/>
      <point x="716" y="1302" type="line"/>
      <point x="367" y="1302" type="line"/>
      <point x="367" y="1520" type="line"/>
      <point x="1067" y="1520" type="line"/>
      <point x="1041" y="1288" type="line"/>
    </contour>
  </outline>
</glyph>
<glyph name="asciicircum" format="2">
  <advance width="1300"/>
  <unicode hex="005E"/>
  <outline>
    <contour>
      <point x="1250" y="866" type="line" name="sh01"/>
      <point x="950" y="866" type="line" name="ah02"/>
      <point x="650" y="1200" type="line" name="ih01"/>
      <point x="350" y="868" type="line" name="sh02"/>
      <point x="50" y="868" type="line" name="ah01"/>
      <point x="534" y="1500" type="line" name="ih02"/>
      <point x="743" y="1520" type="line" name="ih03"/>
    </contour>
  </outline>
</glyph>
<glyph name="underscore" format="2">
  <advance width="1300"/>
  <unicode hex="005F"/>
  <outline>
    <contour>
      <point x="100" y="-200" type="line" name="hr00"/>
      <point x="1200" y="-200" type="line"/>
      <point x="1200" y="-455" type="line" name="av02"/>
      <point x="100" y="-455" type="line" name="av01"/>
    </contour>
  </outline>
</glyph>
<glyph name="d" format="2">
  <advance width="1300"/>
  <unicode hex="0064"/>
  <outline>
    <contour>
      <point x="800" y="900" type="line"/>
      <point x="731" y="900" type="line" name="sv01"/>
      <point x="665" y="900"/>
      <point x="567" y="838"/>
      <point x="504" y="732"/>
      <point x="473" y="592"/>
      <point x="473" y="515" type="qcurve" name="sh02"/>
      <point x="473" y="441"/>
      <point x="497" y="325"/>
      <point x="539" y="243"/>
      <point x="598" y="200"/>
      <point x="633" y="200" type="qcurve" name="sv02"/>
      <point x="669" y="200"/>
      <point x="723" y="221"/>
      <point x="763" y="254"/>
      <point x="791" y="296"/>
      <point x="800" y="316" type="qcurve" name="sh03"/>
    </contour>
    <contour>
      <point x="800" y="0" type="line" name="ab02"/>
      <point x="800" y="162" type="line" name="ah01"/>
      <point x="675" y="-10" type="line"/>
      <point x="667" y="-12"/>
      <point x="653" y="-15"/>
      <point x="634" y="-16"/>
      <point x="607" y="-17" name="ab01"/>
      <point x="586" y="-17" type="qcurve"/>
      <point x="494" y="-17"/>
      <point x="334" y="64"/>
      <point x="216" y="210"/>
      <point x="148" y="409"/>
      <point x="148" y="528" type="qcurve" name="sh01"/>
      <point x="148" y="647"/>
      <point x="230" y="856"/>
      <point x="382" y="1011"/>
      <point x="597" y="1100"/>
      <point x="730" y="1100" type="qcurve" name="at01"/>
      <point x="800" y="1100" type="line" name="sh04"/>
      <point x="800" y="1632" type="line" name="av01"/>
      <point x="1126" y="1600" type="line"/>
      <point x="1126" y="209" type="line" name="sh05"/>
      <point x="1148" y="0" type="line"/>
    </contour>
  </outline>
</glyph>
<glyph name="f" format="2">
  <advance width="1300"/>
  <unicode hex="0066"/>
  <outline>
    <contour>
      <point x="100" y="1100" type="line" name="dv01"/>
      <point x="320" y="1100" type="line" name="dh03"/>
      <point x="320" y="1207" type="line" name="sh01"/>
      <point x="320" y="1295"/>
      <point x="395" y="1439"/>
      <point x="524" y="1543"/>
      <point x="696" y="1600"/>
      <point x="794" y="1600" type="qcurve" name="av01"/>
      <point x="858" y="1600"/>
      <point x="969" y="1579"/>
      <point x="1063" y="1546"/>
      <point x="1140" y="1506"/>
      <point x="1170" y="1486" type="qcurve"/>
      <point x="1037" y="1300" type="line"/>
      <point x="1022" y="1310"/>
      <point x="977" y="1336"/>
      <point x="921" y="1360"/>
      <point x="858" y="1376"/>
      <point x="824" y="1376" type="qcurve" name="sv01"/>
      <point x="795" y="1376"/>
      <point x="731" y="1353"/>
      <point x="677" y="1308"/>
      <point x="642" y="1241"/>
      <point x="642" y="1198" type="qcurve" name="sh02"/>
      <point x="642" y="1100" type="line" name="dh04"/>
      <point x="1063" y="1100" type="line" name="dv03"/>
      <point x="1036" y="876" type="line" name="dv04"/>
      <point x="647" y="876" type="line" name="dh02"/>
      <point x="647" y="0" type="line" name="ab01"/>
      <point x="320" y="0" type="line"/>
      <point x="320" y="876" type="line" name="dh01"/>
      <point x="100" y="876" type="line" name="dv02"/>
    </contour>
  </outline>
</glyph>
<glyph name="j" format="2">
  <advance width="1300"/>
  <unicode hex="006A"/>
  <outline>
    <contour>
      <point x="593" y="1501" type="line" name="sh01"/>
      <point x="930" y="1501" type="line" name="sh02"/>
      <point x="930" y="1240" type="line" name="sv01"/>
      <point x="593" y="1240" type="line"/>
    </contour>
    <contour>
      <point x="668" y="916" type="line" name="ah01"/>
      <point x="498" y="876" type="line"/>
      <point x="323" y="876" type="line"/>
      <point x="295" y="1100" type="line" name="ah02"/>
      <point x="925" y="1100" type="line"/>
      <point x="925" y="-68" type="line" name="dh02"/>
      <point x="925" y="-159"/>
      <point x="872" y="-322"/>
      <point x="763" y="-445"/>
      <point x="596" y="-517"/>
      <point x="481" y="-517" type="qcurve" name="ab01"/>
      <point x="410" y="-517"/>
      <point x="310" y="-489"/>
      <point x="241" y="-452"/>
      <point x="198" y="-413"/>
      <point x="185" y="-402" type="qcurve" name="ah03"/>
      <point x="244" y="-170" type="line" name="av02"/>
      <point x="296" y="-220"/>
      <point x="396" y="-264"/>
      <point x="462" y="-264" type="qcurve" name="av01"/>
      <point x="492" y="-264"/>
      <point x="542" y="-236"/>
      <point x="578" y="-187"/>
      <point x="598" y="-118"/>
      <point x="598" y="-77" type="qcurve" name="dh01"/>
      <point x="598" y="826" type="line"/>
    </contour>
  </outline>
</glyph>
<glyph name="k" format="2">
  <advance width="1300"/>
  <unicode hex="006B"/>
  <outline>
    <contour>
      <point x="187" y="0" type="line" name="ab01"/>
      <point x="187" y="1397" type="line" name="sh01"/>
      <point x="165" y="1600" type="line"/>
      <point x="493" y="1631" type="line" name="sh02"/>
      <point x="493" y="769" type="line" name="sh03"/>
      <point x="758" y="1100" type="line" name="ah01"/>
      <point x="1099" y="1100" type="line" name="sh04"/>
      <point x="737" y="700" type="line"/>
      <point x="533" y="627" type="line" name="iv01"/>
      <point x="722" y="564" type="line"/>
      <point x="1200" y="0" type="line" name="sh05"/>
      <point x="852" y="0" type="line" name="ah02"/>
      <point x="493" y="458" type="line" name="sh06"/>
      <point x="493" y="0" type="line"/>
    </contour>
  </outline>
</glyph>
<glyph name="n" format="2">
  <advance width="1300"/>
  <unicode hex="006E"/>
  <outline>
    <contour>
      <point x="461" y="0" type="line" name="sh02"/>
      <point x="144" y="0" type="line" name="sh01"/>
      <point x="144" y="1100" type="line"/>
      <point x="461" y="1120" type="line" name="sh03"/>
      <point x="461" y="1000" type="line" name="ih01"/>
      <point x="538" y="1100" type="line"/>
      <point x="576" y="1110"/>
      <point x="663" y="1117"/>
      <point x="721" y="1117" type="qcurve" name="at01"/>
      <point x="812" y="1117"/>
      <point x="958" y="1063"/>
      <point x="1059" y="964"/>
      <point x="1113" y="823"/>
      <point x="1113" y="736" type="qcurve"/>
      <point x="1113" y="0" type="line" name="sh04"/>
      <point x="796" y="0" type="line" name="ah01"/>
      <point x="796" y="736" type="line"/>
      <point x="796" y="777"/>
      <point x="771" y="836"/>
      <point x="731" y="874"/>
      <point x="679" y="892"/>
      <point x="651" y="892" type="qcurve" name="sv01"/>
      <point x="588" y="892"/>
      <point x="501" y="851"/>
      <point x="461" y="808" type="qcurve"/>
    </contour>
  </outline>
</glyph>
<glyph name="p" format="2">
  <advance width="1300"/>
  <unicode hex="0070"/>
  <outline>
    <contour>
      <point x="476" y="200" type="line" name="sh03"/>
      <point x="554" y="200" type="line" name="sv01"/>
      <point x="621" y="200"/>
      <point x="740" y="259"/>
      <point x="828" y="361"/>
      <point x="880" y="498"/>
      <point x="880" y="576" type="qcurve" name="ah01"/>
      <point x="880" y="657"/>
      <point x="846" y="779"/>
      <point x="788" y="860"/>
      <point x="708" y="900"/>
      <point x="663" y="900" type="qcurve" name="sv02"/>
      <point x="636" y="900"/>
      <point x="583" y="884"/>
      <point x="535" y="859"/>
      <point x="493" y="827"/>
      <point x="476" y="811" type="qcurve"/>
    </contour>
    <contour>
      <point x="150" y="-500" type="line" name="sh01"/>
      <point x="150" y="1100" type="line"/>
      <point x="476" y="1120" type="line" name="sh04"/>
      <point x="476" y="944" type="line" name="ih01"/>
      <point x="600" y="1110" type="line"/>
      <point x="621" y="1113"/>
      <point x="666" y="1117"/>
      <point x="690" y="1117" type="qcurve" name="at01"/>
      <point x="783" y="1117"/>
      <point x="958" y="1039"/>
      <point x="1095" y="894"/>
      <point x="1178" y="690"/>
      <point x="1178" y="564" type="qcurve" name="sh05"/>
      <point x="1178" y="441"/>
      <point x="1081" y="234"/>
      <point x="909" y="84"/>
      <point x="674" y="0"/>
      <point x="537" y="0" type="qcurve" name="ab01"/>
      <point x="476" y="0" type="line"/>
      <point x="476" y="-500" type="line" name="sh02"/>
    </contour>
  </outline>
</glyph>
<glyph name="q" format="2">
  <advance width="1300"/>
  <unicode hex="0071"/>
  <outline>
    <contour>
      <point x="819" y="891" type="line" name="ah01"/>
      <point x="789" y="895"/>
      <point x="732" y="900"/>
      <point x="694" y="900" type="qcurve" name="sv01"/>
      <point x="631" y="900"/>
      <point x="536" y="831"/>
      <point x="471" y="723"/>
      <point x="438" y="590"/>
      <point x="438" y="526" type="qcurve" name="sh02"/>
      <point x="438" y="442"/>
      <point x="474" y="320"/>
      <point x="533" y="239"/>
      <point x="609" y="200"/>
      <point x="648" y="200" type="qcurve" name="sv02"/>
      <point x="684" y="200"/>
      <point x="736" y="211"/>
      <point x="775" y="232"/>
      <point x="804" y="260"/>
      <point x="819" y="278" type="qcurve"/>
    </contour>
    <contour>
      <point x="819" y="136" type="line" name="sh03"/>
      <point x="702" y="-8" type="line"/>
      <point x="654" y="-17"/>
      <point x="610" y="-17" type="qcurve" name="ab01"/>
      <point x="518" y="-17"/>
      <point x="341" y="58"/>
      <point x="202" y="198"/>
      <point x="117" y="400"/>
      <point x="117" y="526" type="qcurve" name="sh01"/>
      <point x="117" y="663"/>
      <point x="209" y="882"/>
      <point x="368" y="1035"/>
      <point x="579" y="1117"/>
      <point x="698" y="1117" type="qcurve" name="at01"/>
      <point x="762" y="1117"/>
      <point x="898" y="1099"/>
      <point x="1021" y="1074"/>
      <point x="1119" y="1047"/>
      <point x="1145" y="1038" type="qcurve" name="sh04"/>
      <point x="1145" y="-500" type="line" name="ab02"/>
      <point x="819" y="-500" type="line" name="sh05"/>
    </contour>
  </outline>
</glyph>
<glyph name="r" format="2">
  <advance width="1300"/>
  <unicode hex="0072"/>
  <outline>
    <contour>
      <point x="462" y="1000" type="line" name="iv01"/>
      <point x="539" y="1100" type="line"/>
      <point x="593" y="1115"/>
      <point x="693" y="1117"/>
      <point x="741" y="1117" type="qcurve" name="at01"/>
      <point x="822" y="1117"/>
      <point x="942" y="1099"/>
      <point x="1029" y="1072"/>
      <point x="1085" y="1043"/>
      <point x="1102" y="1032" type="qcurve"/>
      <point x="1152" y="735" type="line" name="dh04"/>
      <point x="872" y="700" type="line" name="dh03"/>
      <point x="823" y="876" type="line" name="ih01"/>
      <point x="803" y="879"/>
      <point x="763" y="885"/>
      <point x="743" y="885" type="qcurve" name="sv01"/>
      <point x="646" y="885"/>
      <point x="508" y="814"/>
      <point x="462" y="750" type="qcurve"/>
      <point x="462" y="0" type="line" name="dh02"/>
      <point x="145" y="0" type="line" name="dh01"/>
      <point x="145" y="1100" type="line"/>
      <point x="462" y="1120" type="line" name="sh01"/>
    </contour>
  </outline>
</glyph>
<glyph name="s" format="2">
  <advance width="1300"/>
  <unicode hex="0073"/>
  <outline>
    <contour>
      <point x="985" y="802" type="line" name="ah02"/>
      <point x="957" y="820"/>
      <point x="895" y="854"/>
      <point x="823" y="881"/>
      <point x="741" y="898"/>
      <point x="694" y="898" type="qcurve" name="sv01"/>
      <point x="651" y="898"/>
      <point x="560" y="890"/>
      <point x="486" y="869"/>
      <point x="438" y="832"/>
      <point x="438" y="804" type="qcurve" name="sh02"/>
      <point x="438" y="778"/>
      <point x="492" y="741" name="mh01"/>
      <point x="574" y="713"/>
      <point x="671" y="693"/>
      <point x="715" y="684" type="qcurve" name="ih01"/>
      <point x="766" y="673"/>
      <point x="862" y="651"/>
      <point x="892" y="640" type="qcurve" name="sv03"/>
      <point x="942" y="620"/>
      <point x="1031" y="562" name="mh02"/>
      <point x="1098" y="489" name="mh03"/>
      <point x="1137" y="403"/>
      <point x="1137" y="355" type="qcurve" name="sh03"/>
      <point x="1137" y="288"/>
      <point x="1084" y="181"/>
      <point x="993" y="99"/>
      <point x="874" y="39"/>
      <point x="741" y="1"/>
      <point x="603" y="-17" name="ih02"/>
      <point x="540" y="-17" type="qcurve" name="ab01"/>
      <point x="480" y="-17"/>
      <point x="362" y="0"/>
      <point x="254" y="30"/>
      <point x="161" y="71"/>
      <point x="127" y="95" type="qcurve"/>
      <point x="225" y="305" type="line" name="sh04"/>
      <point x="294" y="263"/>
      <point x="449" y="208"/>
      <point x="542" y="208" type="qcurve" name="sv02"/>
      <point x="565" y="208"/>
      <point x="626" y="213"/>
      <point x="691" y="226"/>
      <point x="755" y="247"/>
      <point x="805" y="279"/>
      <point x="836" y="324"/>
      <point x="836" y="354" type="qcurve" name="ah01"/>
      <point x="836" y="381"/>
      <point x="788" y="420" name="mh04"/>
      <point x="714" y="448"/>
      <point x="626" y="467"/>
      <point x="586" y="475" type="qcurve" name="ih03"/>
      <point x="557" y="481"/>
      <point x="498" y="494"/>
      <point x="444" y="508"/>
      <point x="398" y="523"/>
      <point x="382" y="531" type="qcurve" name="sv04"/>
      <point x="383" y="531" type="line"/>
      <point x="317" y="562"/>
      <point x="230" y="631"/>
      <point x="179" y="704"/>
      <point x="158" y="782"/>
      <point x="158" y="822" type="qcurve" name="sh01"/>
      <point x="158" y="898"/>
      <point x="246" y="1009"/>
      <point x="393" y="1082"/>
      <point x="584" y="1117" name="ih04"/>
      <point x="688" y="1117" type="qcurve" name="at01"/>
      <point x="744" y="1117"/>
      <point x="857" y="1100"/>
      <point x="959" y="1073"/>
      <point x="1043" y="1039"/>
      <point x="1070" y="1022" type="qcurve"/>
    </contour>
  </outline>
</glyph>
<glyph name="u" format="2">
  <advance width="1300"/>
  <unicode hex="0075"/>
  <outline>
    <contour>
      <point x="816" y="1100" type="line" name="sh02"/>
      <point x="1133" y="1120" type="line" name="sh03"/>
      <point x="1133" y="0" type="line" name="ah01"/>
      <point x="816" y="0" type="line" name="sh01"/>
      <point x="816" y="100" type="line" name="iv01"/>
      <point x="735" y="0" type="line" name="ah02"/>
      <point x="679" y="-17"/>
      <point x="614" y="-17" type="qcurve" name="ih01"/>
      <point x="480" y="-17"/>
      <point x="300" y="59"/>
      <point x="191" y="186"/>
      <point x="145" y="350"/>
      <point x="145" y="438" type="qcurve" name="sh04"/>
      <point x="145" y="1100" type="line" name="ih02"/>
      <point x="461" y="1120" type="line" name="at01"/>
      <point x="461" y="438" type="line" name="sh05"/>
      <point x="461" y="386"/>
      <point x="478" y="303"/>
      <point x="520" y="244"/>
      <point x="589" y="213"/>
      <point x="640" y="213" type="qcurve" name="ih03"/>
      <point x="673" y="213"/>
      <point x="729" y="233"/>
      <point x="774" y="265"/>
      <point x="806" y="301"/>
      <point x="816" y="318" type="qcurve"/>
    </contour>
  </outline>
</glyph>
<glyph name="v" format="2">
  <advance width="1300"/>
  <unicode hex="0076"/>
  <outline>
    <contour>
      <point x="583" y="700" type="line" name="iv01"/>
      <point x="657" y="300" type="line" name="ah01"/>
      <point x="729" y="700" type="line" name="iv03"/>
      <point x="860" y="1100" type="line" name="sh01"/>
      <point x="1173" y="1120" type="line" name="sh02"/>
      <point x="800" y="-17" type="line" name="ab01"/>
      <point x="484" y="0" type="line" name="iv02"/>
      <point x="133" y="1100" type="line" name="sh04"/>
      <point x="447" y="1120" type="line" name="sh03"/>
    </contour>
  </outline>
  <guideline angle="0" color="1,0,0,1" x="0" y="381"/>
</glyph>
<glyph name="y" format="2">
  <advance width="1300"/>
  <unicode hex="0079"/>
  <outline>
    <contour>
      <point x="571" y="670" type="line" name="dh01"/>
      <point x="648" y="200" type="line" name="ah02"/>
      <point x="727" y="670" type="line" name="dh02"/>
      <point x="890" y="1100" type="line" name="sh01"/>
      <point x="1210" y="1120" type="line" name="sh02"/>
      <point x="802" y="8" type="line" name="ih01"/>
      <point x="782" y="-47"/>
      <point x="735" y="-163"/>
      <point x="679" y="-271"/>
      <point x="613" y="-367"/>
      <point x="533" y="-438"/>
      <point x="439" y="-480"/>
      <point x="383" y="-480" type="qcurve" name="av01"/>
      <point x="316" y="-480"/>
      <point x="185" y="-425"/>
      <point x="127" y="-374" type="qcurve" name="ah01"/>
      <point x="250" y="-194" type="line" name="sh03"/>
      <point x="273" y="-209"/>
      <point x="325" y="-234"/>
      <point x="352" y="-234" type="qcurve" name="av02"/>
      <point x="395" y="-234"/>
      <point x="464" y="-135"/>
      <point x="501" y="-47" type="qcurve" name="ab01"/>
      <point x="82" y="1100" type="line" name="sh05"/>
      <point x="408" y="1120" type="line" name="sh04"/>
    </contour>
  </outline>
  <guideline angle="90" color="1,0,0,1" x="550" y="0"/>
</glyph>
<glyph name="braceleft" format="2">
  <advance width="1300"/>
  <unicode hex="007B"/>
  <outline>
    <contour>
      <point x="1003" y="1260" type="line" name="sh01"/>
      <point x="969" y="1280"/>
      <point x="882" y="1305"/>
      <point x="847" y="1305" type="qcurve" name="ah06"/>
      <point x="817" y="1303"/>
      <point x="781" y="1274"/>
      <point x="763" y="1222"/>
      <point x="757" y="1147"/>
      <point x="757" y="1099" type="qcurve"/>
      <point x="757" y="864" type="line"/>
      <point x="757" y="808"/>
      <point x="726" y="710"/>
      <point x="678" y="631"/>
      <point x="620" y="570"/>
      <point x="593" y="550" type="qcurve" name="ah04"/>
      <point x="620" y="530"/>
      <point x="678" y="469"/>
      <point x="726" y="390"/>
      <point x="757" y="293"/>
      <point x="757" y="238" type="qcurve"/>
      <point x="757" y="-2" type="line"/>
      <point x="757" y="-50"/>
      <point x="763" y="-126"/>
      <point x="781" y="-180"/>
      <point x="817" y="-208"/>
      <point x="847" y="-208" type="qcurve" name="ah05"/>
      <point x="882" y="-208"/>
      <point x="969" y="-183"/>
      <point x="1003" y="-163" type="qcurve" name="sh02"/>
      <point x="1099" y="-348" type="line" name="ah02"/>
      <point x="1066" y="-363"/>
      <point x="1005" y="-389"/>
      <point x="937" y="-409"/>
      <point x="856" y="-420"/>
      <point x="804" y="-420" type="qcurve" name="av01"/>
      <point x="691" y="-420"/>
      <point x="541" y="-356"/>
      <point x="452" y="-244"/>
      <point x="415" y="-91"/>
      <point x="415" y="-2" type="qcurve"/>
      <point x="415" y="238" type="line"/>
      <point x="415" y="328"/>
      <point x="384" y="432"/>
      <point x="338" y="442" type="qcurve"/>
      <point x="200" y="462" type="line" name="ah03"/>
      <point x="200" y="640" type="line" name="iv01"/>
      <point x="338" y="660" type="line"/>
      <point x="384" y="671"/>
      <point x="415" y="776"/>
      <point x="415" y="864" type="qcurve"/>
      <point x="415" y="1099" type="line"/>
      <point x="415" y="1188"/>
      <point x="452" y="1341"/>
      <point x="542" y="1453"/>
      <point x="692" y="1517"/>
      <point x="805" y="1517" type="qcurve" name="at01"/>
      <point x="857" y="1517"/>
      <point x="938" y="1506"/>
      <point x="1005" y="1487"/>
      <point x="1066" y="1461"/>
      <point x="1099" y="1445" type="qcurve" name="ah01"/>
    </contour>
  </outline>
  <guideline angle="0" color="1,0,0,1" x="0" y="550"/>
  <guideline angle="0" color="1,0,0,1" x="0" y="475"/>
</glyph>
<glyph name="bar" format="2">
  <advance width="1300"/>
  <unicode hex="007C"/>
  <outline>
    <contour>
      <point x="766" y="1520" type="line" name="hr00"/>
      <point x="766" y="-380" type="line"/>
      <point x="434" y="-380" type="line"/>
      <point x="434" y="1500" type="line"/>
    </contour>
  </outline>
</glyph>
<glyph name="yen" format="2">
  <advance width="1300"/>
  <unicode hex="00A5"/>
  <outline>
    <contour>
      <point x="160" y="589" type="line" name="sv02"/>
      <point x="469" y="589" type="line"/>
      <point x="469" y="650" type="line" name="sh01"/>
      <point x="443" y="700" type="line"/>
      <point x="160" y="700" type="line" name="sv01"/>
      <point x="160" y="889" type="line" name="ah02"/>
      <point x="347" y="889" type="line"/>
      <point x="40" y="1500" type="line" name="sh02"/>
      <point x="379" y="1520" type="line" name="hr01"/>
      <point x="571" y="1143" type="line"/>
      <point x="678" y="773" type="line"/>
      <point x="736" y="1143" type="line"/>
      <point x="918" y="1500" type="line"/>
      <point x="1253" y="1500" type="line" name="sh03"/>
      <point x="942" y="889" type="line"/>
      <point x="1160" y="889" type="line" name="ah03"/>
      <point x="1160" y="700" type="line" name="sv03"/>
      <point x="845" y="700" type="line"/>
      <point x="820" y="650" type="line" name="sh05"/>
      <point x="820" y="589" type="line"/>
      <point x="1160" y="589" type="line" name="sv04"/>
      <point x="1160" y="400" type="line" name="sh06"/>
      <point x="820" y="400" type="line"/>
      <point x="820" y="0" type="line" name="sh04"/>
      <point x="469" y="0" type="line" name="ah01"/>
      <point x="469" y="400" type="line"/>
      <point x="160" y="400" type="line" name="sh07"/>
    </contour>
  </outline>
</glyph>
<glyph name="dieresis" format="2">
  <advance width="1300"/>
  <unicode hex="00A8"/>
  <outline>
    <contour>
      <point x="262" y="1566" type="line" name="ah01"/>
      <point x="538" y="1566" type="line"/>
      <point x="538" y="1300" type="line" name="sv01"/>
      <point x="262" y="1300" type="line"/>
    </contour>
    <contour>
      <point x="662" y="1566" type="line" name="ah02"/>
      <point x="938" y="1566" type="line"/>
      <point x="938" y="1300" type="line" name="sv02"/>
      <point x="662" y="1300" type="line"/>
    </contour>
  </outline>
</glyph>
<glyph name="logicalnot" format="2">
  <advance width="1300"/>
  <unicode hex="00AC"/>
  <outline>
    <contour>
      <point x="1261" y="827" type="line" name="hr00"/>
      <point x="1242" y="586" type="line"/>
      <point x="1242" y="258" type="line"/>
      <point x="900" y="258" type="line"/>
      <point x="900" y="459" type="line"/>
      <point x="912" y="600" type="line"/>
      <point x="62" y="600" type="line"/>
      <point x="62" y="827" type="line"/>
    </contour>
  </outline>
</glyph>
<glyph name="degree" format="2">
  <advance width="1300"/>
  <unicode hex="00B0"/>
  <outline>
    <contour>
      <point x="500" y="1517" type="qcurve" name="at01"/>
      <point x="561" y="1517"/>
      <point x="669" y="1475"/>
      <point x="750" y="1401"/>
      <point x="796" y="1303"/>
      <point x="796" y="1247" type="qcurve" name="ah02"/>
      <point x="796" y="1191"/>
      <point x="750" y="1093"/>
      <point x="669" y="1020"/>
      <point x="561" y="977"/>
      <point x="500" y="977" type="qcurve" name="av01"/>
      <point x="438" y="977"/>
      <point x="331" y="1020"/>
      <point x="250" y="1093"/>
      <point x="204" y="1191"/>
      <point x="204" y="1247" type="qcurve" name="ah01"/>
      <point x="204" y="1303"/>
      <point x="250" y="1401"/>
      <point x="331" y="1475"/>
      <point x="438" y="1517"/>
    </contour>
    <contour>
      <point x="500" y="1145" type="qcurve" name="sv01"/>
      <point x="523" y="1145"/>
      <point x="564" y="1161"/>
      <point x="594" y="1189"/>
      <point x="612" y="1226"/>
      <point x="612" y="1247" type="qcurve" name="sh01"/>
      <point x="612" y="1268"/>
      <point x="594" y="1305"/>
      <point x="564" y="1333"/>
      <point x="523" y="1349"/>
      <point x="500" y="1349" type="qcurve" name="sv02"/>
      <point x="477" y="1349"/>
      <point x="436" y="1333"/>
      <point x="406" y="1305"/>
      <point x="388" y="1268"/>
      <point x="388" y="1247" type="qcurve" name="sh02"/>
      <point x="388" y="1226"/>
      <point x="406" y="1189"/>
      <point x="436" y="1161"/>
      <point x="477" y="1145"/>
    </contour>
  </outline>
</glyph>
<glyph name="plusminus" format="2">
  <advance width="1300"/>
  <unicode hex="00B1"/>
  <outline>
    <contour>
      <point x="179" y="862" type="line" name="mv01"/>
      <point x="539" y="862" type="line" name="mv02"/>
      <point x="539" y="1196" type="line" name="mv03"/>
      <point x="759" y="1196" type="line" name="mh01"/>
      <point x="759" y="862" type="line" name="mh02"/>
      <point x="1119" y="862" type="line" name="mv04"/>
      <point x="1119" y="702" type="line"/>
      <point x="759" y="702" type="line" name="ih01"/>
      <point x="759" y="382" type="line" name="ih02"/>
      <point x="539" y="382" type="line" name="ih05"/>
      <point x="539" y="702" type="line" name="ih06"/>
      <point x="179" y="702" type="line"/>
    </contour>
    <contour>
      <point x="200" y="290" type="line" name="mh04"/>
      <point x="1100" y="290" type="line" name="mh03"/>
      <point x="1100" y="88" type="line" name="ih03"/>
      <point x="200" y="88" type="line" name="ih04"/>
    </contour>
  </outline>
</glyph>
<glyph name="mu" format="2">
  <advance width="1300"/>
  <unicode hex="00B5"/>
  <outline>
    <contour>
      <point x="1269" y="51" type="line" name="hr00"/>
      <point x="1254" y="37"/>
      <point x="1220" y="13"/>
      <point x="1170" y="-6"/>
      <point x="1103" y="-17"/>
      <point x="1055" y="-17" type="qcurve" name="ab02"/>
      <point x="1021" y="-17"/>
      <point x="955" y="7"/>
      <point x="897" y="57"/>
      <point x="848" y="135"/>
      <point x="832" y="190" type="qcurve" name="ih01"/>
      <point x="785" y="72" type="line"/>
      <point x="767" y="56"/>
      <point x="720" y="24"/>
      <point x="660" y="-1"/>
      <point x="588" y="-17"/>
      <point x="545" y="-17" type="qcurve" name="ab01"/>
      <point x="525" y="-17"/>
      <point x="467" y="-7"/>
      <point x="408" y="10"/>
      <point x="358" y="30"/>
      <point x="346" y="40" type="qcurve"/>
      <point x="411" y="-166" type="line"/>
      <point x="411" y="-500" type="line" name="ab03"/>
      <point x="100" y="-500" type="line"/>
      <point x="100" y="1093" type="line" name="sh02"/>
      <point x="411" y="1125" type="line" name="av01"/>
      <point x="411" y="362" type="line" name="sh03"/>
      <point x="411" y="324"/>
      <point x="436" y="263"/>
      <point x="477" y="221"/>
      <point x="528" y="199"/>
      <point x="555" y="199" type="qcurve" name="sv01"/>
      <point x="598" y="199"/>
      <point x="671" y="240"/>
      <point x="700" y="268" type="qcurve" name="sh04"/>
      <point x="700" y="1093" type="line" name="ah01"/>
      <point x="1011" y="1125" type="line" name="sh01"/>
      <point x="1011" y="365" type="line"/>
      <point x="1011" y="273"/>
      <point x="1049" y="199"/>
      <point x="1084" y="199" type="qcurve"/>
      <point x="1111" y="199"/>
      <point x="1145" y="210"/>
      <point x="1170" y="223" type="qcurve"/>
    </contour>
  </outline>
</glyph>
<glyph name="paragraph" format="2">
  <advance width="1300"/>
  <unicode hex="00B6"/>
  <outline>
    <contour>
      <point x="933" y="1298" type="line" name="mh01"/>
      <point x="799" y="1298" type="line"/>
      <point x="799" y="-400" type="line" name="mh02"/>
      <point x="530" y="-400" type="line"/>
      <point x="530" y="604" type="line"/>
      <point x="453" y="614"/>
      <point x="304" y="672"/>
      <point x="187" y="777"/>
      <point x="115" y="937"/>
      <point x="115" y="1050" type="qcurve"/>
      <point x="115" y="1137"/>
      <point x="159" y="1272"/>
      <point x="235" y="1372"/>
      <point x="337" y="1440"/>
      <point x="451" y="1482"/>
      <point x="572" y="1500"/>
      <point x="630" y="1500" type="qcurve"/>
      <point x="1200" y="1500" type="line"/>
      <point x="1200" y="-400" type="line"/>
      <point x="933" y="-400" type="line" name="mh03"/>
    </contour>
  </outline>
</glyph>
<glyph name="periodcentered" format="2">
  <advance width="1300"/>
  <unicode hex="00B7"/>
  <outline>
    <contour>
      <point x="452.5" y="683" type="qcurve" name="ah01"/>
      <point x="452.5" y="724"/>
      <point x="483.5" y="796"/>
      <point x="537.5" y="850"/>
      <point x="608.5" y="881"/>
      <point x="649.5" y="881" type="qcurve" name="av01"/>
      <point x="690.5" y="881"/>
      <point x="762.5" y="850"/>
      <point x="816.5" y="796"/>
      <point x="847.5" y="724"/>
      <point x="847.5" y="683" type="qcurve" name="ah02"/>
      <point x="847.5" y="642"/>
      <point x="816.5" y="569"/>
      <point x="763.5" y="515"/>
      <point x="691.5" y="483"/>
      <point x="651.5" y="483" type="qcurve" name="ab01"/>
      <point x="610.5" y="483"/>
      <point x="537.5" y="515"/>
      <point x="483.5" y="569"/>
      <point x="452.5" y="642"/>
    </contour>
  </outline>
</glyph>
<glyph name="Aacute" format="2">
  <advance width="1300"/>
  <unicode hex="00C1"/>
  <outline>
    <contour>
      <point x="50" y="0" type="line" name="sh02"/>
      <point x="405" y="1284" type="line"/>
      <point x="441" y="1500" type="line"/>
      <point x="819" y="1520" type="line" name="at01"/>
      <point x="1250" y="0" type="line" name="sh04"/>
      <point x="916" y="0" type="line" name="sh03"/>
      <point x="812" y="427" type="line" name="dv01"/>
      <point x="470" y="427" type="line"/>
      <point x="369" y="0" type="line" name="sh01"/>
    </contour>
    <contour>
      <point x="643" y="1331" type="line" name="ah01"/>
      <point x="604" y="990" type="line"/>
      <point x="529" y="646" type="line" name="ih01"/>
      <point x="753" y="646" type="line" name="ih02"/>
      <point x="681" y="990" type="line" name="hr03"/>
    </contour>
    <contour>
      <point x="663" y="1900" type="line" name="ah02"/>
      <point x="1000" y="1920" type="line" name="sh05"/>
      <point x="715" y="1600" type="line" name="mv01"/>
      <point x="500" y="1600" type="line" name="mh01"/>
    </contour>
  </outline>
</glyph>
<glyph name="Acircumflex" format="2">
  <advance width="1300"/>
  <unicode hex="00C2"/>
  <outline>
    <contour>
      <point x="50" y="0" type="line" name="sh02"/>
      <point x="405" y="1284" type="line"/>
      <point x="441" y="1500" type="line"/>
      <point x="819" y="1520" type="line" name="at01"/>
      <point x="1250" y="0" type="line" name="sh04"/>
      <point x="916" y="0" type="line" name="sh03"/>
      <point x="812" y="427" type="line" name="dv01"/>
      <point x="470" y="427" type="line"/>
      <point x="369" y="0" type="line" name="sh01"/>
    </contour>
    <contour>
      <point x="643" y="1331" type="line" name="ah01"/>
      <point x="604" y="990" type="line"/>
      <point x="529" y="646" type="line" name="ih01"/>
      <point x="753" y="646" type="line" name="ih02"/>
      <point x="681" y="990" type="line" name="hr03"/>
    </contour>
    <contour>
      <point x="958" y="1620" type="line" name="ah03"/>
      <point x="738" y="1620" type="line" name="sh05"/>
      <point x="668" y="1723" type="line" name="mv01"/>
      <point x="638" y="1850" type="line" name="ih03"/>
      <point x="608" y="1723" type="line" name="mh01"/>
      <point x="527" y="1620" type="line" name="sh06"/>
      <point x="288" y="1620" type="line" name="ah02"/>
      <point x="483" y="1900" type="line" name="ih04"/>
      <point x="773" y="1920" type="line" name="ih05"/>
    </contour>
  </outline>
</glyph>
<glyph name="Atilde" format="2">
  <advance width="1300"/>
  <unicode hex="00C3"/>
  <outline>
    <contour>
      <point x="50" y="0" type="line" name="sh02"/>
      <point x="405" y="1284" type="line"/>
      <point x="441" y="1500" type="line"/>
      <point x="819" y="1520" type="line" name="at01"/>
      <point x="1250" y="0" type="line" name="sh04"/>
      <point x="916" y="0" type="line" name="sh03"/>
      <point x="812" y="427" type="line" name="dv01"/>
      <point x="470" y="427" type="line"/>
      <point x="369" y="0" type="line" name="sh01"/>
    </contour>
    <contour>
      <point x="643" y="1331" type="line" name="ah01"/>
      <point x="604" y="990" type="line"/>
      <point x="529" y="646" type="line" name="ih01"/>
      <point x="753" y="646" type="line" name="ih02"/>
      <point x="681" y="990" type="line"/>
    </contour>
    <contour>
      <point x="255" y="1627" type="line" name="sh05"/>
      <point x="259" y="1667"/>
      <point x="291" y="1758"/>
      <point x="351" y="1834"/>
      <point x="443" y="1884" name="mv01"/>
      <point x="506" y="1884" type="qcurve" name="ah02"/>
      <point x="555" y="1884"/>
      <point x="622" y="1859"/>
      <point x="676" y="1829"/>
      <point x="725" y="1804"/>
      <point x="756" y="1804" type="qcurve" name="av03"/>
      <point x="777" y="1804"/>
      <point x="805" y="1818"/>
      <point x="824" y="1842"/>
      <point x="834" y="1874"/>
      <point x="837" y="1892" type="qcurve"/>
      <point x="1004" y="1882" type="line" name="av04"/>
      <point x="1001" y="1838" name="mh01"/>
      <point x="973" y="1745"/>
      <point x="916" y="1669"/>
      <point x="826" y="1620" name="mv02"/>
      <point x="759" y="1620" type="qcurve" name="av01"/>
      <point x="713" y="1620"/>
      <point x="650" y="1645"/>
      <point x="598" y="1675"/>
      <point x="545" y="1700"/>
      <point x="510" y="1700" type="qcurve" name="av02"/>
      <point x="492" y="1700"/>
      <point x="468" y="1686"/>
      <point x="451" y="1664"/>
      <point x="441" y="1635"/>
      <point x="437" y="1620" type="qcurve" name="sh06"/>
    </contour>
  </outline>
</glyph>
<glyph name="Adieresis" format="2">
  <advance width="1300"/>
  <unicode hex="00C4"/>
  <outline>
    <contour>
      <point x="50" y="0" type="line" name="sh02"/>
      <point x="405" y="1284" type="line"/>
      <point x="441" y="1500" type="line"/>
      <point x="819" y="1520" type="line" name="at01"/>
      <point x="1250" y="0" type="line" name="sh04"/>
      <point x="916" y="0" type="line" name="sh03"/>
      <point x="812" y="427" type="line" name="dv01"/>
      <point x="470" y="427" type="line"/>
      <point x="369" y="0" type="line" name="sh01"/>
    </contour>
    <contour>
      <point x="643" y="1331" type="line" name="ah01"/>
      <point x="604" y="990" type="line"/>
      <point x="529" y="646" type="line" name="ih01"/>
      <point x="753" y="646" type="line" name="ih02"/>
      <point x="681" y="990" type="line"/>
    </contour>
    <contour>
      <point x="304" y="1866" type="line" name="ah02"/>
      <point x="580" y="1866" type="line"/>
      <point x="580" y="1600" type="line" name="sv01"/>
      <point x="304" y="1600" type="line"/>
    </contour>
    <contour>
      <point x="704" y="1866" type="line" name="ah03"/>
      <point x="980" y="1866" type="line"/>
      <point x="980" y="1600" type="line" name="sv02"/>
      <point x="704" y="1600" type="line"/>
    </contour>
  </outline>
</glyph>
<glyph name="Ecircumflex" format="2">
  <advance width="1300"/>
  <unicode hex="00CA"/>
  <outline>
    <contour>
      <point x="1137" y="228" type="line" name="dh02"/>
      <point x="1110" y="0" type="line" name="ab02"/>
      <point x="150" y="0" type="line" name="ab01"/>
      <point x="167" y="231" type="line" name="dh03"/>
      <point x="167" y="1263" type="line"/>
      <point x="132" y="1500" type="line" name="at01"/>
      <point x="1100" y="1500" type="line" name="ah01"/>
      <point x="1100" y="1272" type="line"/>
      <point x="503" y="1272" type="line" name="sv01"/>
      <point x="518" y="1134" type="line" name="sh01"/>
      <point x="518" y="916" type="line"/>
      <point x="1034" y="916" type="line" name="dv01"/>
      <point x="1034" y="703" type="line" name="dh01"/>
      <point x="518" y="703" type="line"/>
      <point x="518" y="360" type="line" name="dh04"/>
      <point x="510" y="228" type="line" name="hr03"/>
    </contour>
    <contour>
      <point x="970" y="1620" type="line" name="ah03"/>
      <point x="750" y="1620" type="line" name="sh02"/>
      <point x="680" y="1723" type="line" name="mv01"/>
      <point x="650" y="1850" type="line" name="ih01"/>
      <point x="620" y="1723" type="line" name="mh01"/>
      <point x="539" y="1620" type="line" name="sh03"/>
      <point x="300" y="1620" type="line" name="ah02"/>
      <point x="495" y="1900" type="line" name="ih02"/>
      <point x="785" y="1920" type="line" name="ih03"/>
    </contour>
  </outline>
</glyph>
<glyph name="Edieresis" format="2">
  <advance width="1300"/>
  <unicode hex="00CB"/>
  <outline>
    <contour>
      <point x="1137" y="228" type="line" name="dh02"/>
      <point x="1110" y="0" type="line" name="ab02"/>
      <point x="150" y="0" type="line" name="ab01"/>
      <point x="167" y="231" type="line" name="dh03"/>
      <point x="167" y="1263" type="line"/>
      <point x="132" y="1500" type="line" name="at01"/>
      <point x="1100" y="1500" type="line" name="ah01"/>
      <point x="1100" y="1272" type="line"/>
      <point x="503" y="1272" type="line" name="sv01"/>
      <point x="518" y="1134" type="line" name="sh01"/>
      <point x="518" y="916" type="line"/>
      <point x="1034" y="916" type="line" name="dv01"/>
      <point x="1034" y="703" type="line" name="dh01"/>
      <point x="518" y="703" type="line"/>
      <point x="518" y="360" type="line" name="dh04"/>
      <point x="510" y="228" type="line"/>
    </contour>
    <contour>
      <point x="312" y="1866" type="line" name="ah02"/>
      <point x="588" y="1866" type="line"/>
      <point x="588" y="1600" type="line" name="sv02"/>
      <point x="312" y="1600" type="line"/>
    </contour>
    <contour>
      <point x="712" y="1866" type="line" name="ah03"/>
      <point x="988" y="1866" type="line"/>
      <point x="988" y="1600" type="line" name="sv03"/>
      <point x="712" y="1600" type="line"/>
    </contour>
  </outline>
</glyph>
<glyph name="Igrave" format="2">
  <advance width="1300"/>
  <unicode hex="00CC"/>
  <outline>
    <contour>
      <point x="189" y="1500" type="line" name="mh01"/>
      <point x="1067" y="1500" type="line" name="ah02"/>
      <point x="1067" y="1272" type="line" name="mh02"/>
      <point x="794" y="1272" type="line" name="dh04"/>
      <point x="794" y="228" type="line" name="dh02"/>
      <point x="1095" y="228" type="line" name="sh01"/>
      <point x="1060" y="0" type="line" name="ah03"/>
      <point x="182" y="0" type="line" name="ah01"/>
      <point x="182" y="228" type="line" name="mh03"/>
      <point x="460" y="228" type="line" name="dh01"/>
      <point x="460" y="1272" type="line" name="dh03"/>
      <point x="154" y="1272" type="line" name="sh02"/>
    </contour>
    <contour>
      <point x="795" y="1600" type="line" name="av01"/>
      <point x="580" y="1600" type="line" name="hr02"/>
      <point x="295" y="1920" type="line" name="iv01"/>
      <point x="632" y="1900" type="line" name="at01"/>
    </contour>
  </outline>
</glyph>
<glyph name="Icircumflex" format="2">
  <advance width="1300"/>
  <unicode hex="00CE"/>
  <outline>
    <contour>
      <point x="189" y="1500" type="line" name="mh01"/>
      <point x="1067" y="1500" type="line" name="ah02"/>
      <point x="1067" y="1272" type="line" name="mh02"/>
      <point x="794" y="1272" type="line" name="dh04"/>
      <point x="794" y="228" type="line" name="dh02"/>
      <point x="1095" y="228" type="line" name="sh01"/>
      <point x="1060" y="0" type="line" name="ah03"/>
      <point x="182" y="0" type="line" name="ah01"/>
      <point x="182" y="228" type="line" name="mh03"/>
      <point x="460" y="228" type="line" name="dh01"/>
      <point x="460" y="1272" type="line" name="dh03"/>
      <point x="154" y="1272" type="line" name="sh02"/>
    </contour>
    <contour>
      <point x="955" y="1624" type="line" name="ah05"/>
      <point x="735" y="1624" type="line" name="sh03"/>
      <point x="665" y="1727" type="line" name="mv01"/>
      <point x="635" y="1854" type="line" name="ih01"/>
      <point x="605" y="1727" type="line" name="mh04"/>
      <point x="524" y="1624" type="line" name="sh04"/>
      <point x="285" y="1624" type="line" name="ah04"/>
      <point x="480" y="1904" type="line" name="ih02"/>
      <point x="770" y="1924" type="line" name="ih03"/>
    </contour>
  </outline>
</glyph>
<glyph name="Idieresis" format="2">
  <advance width="1300"/>
  <unicode hex="00CF"/>
  <outline>
    <contour>
      <point x="189" y="1500" type="line" name="mh01"/>
      <point x="1067" y="1500" type="line" name="ah02"/>
      <point x="1067" y="1272" type="line" name="mh02"/>
      <point x="794" y="1272" type="line" name="dh04"/>
      <point x="794" y="228" type="line" name="dh02"/>
      <point x="1095" y="228" type="line" name="sh01"/>
      <point x="1060" y="0" type="line" name="ah03"/>
      <point x="182" y="0" type="line" name="ah01"/>
      <point x="182" y="228" type="line" name="mh03"/>
      <point x="460" y="228" type="line" name="dh01"/>
      <point x="460" y="1272" type="line" name="dh03"/>
      <point x="154" y="1272" type="line" name="sh02"/>
    </contour>
    <contour>
      <point x="291" y="1966" type="line" name="ah04"/>
      <point x="567" y="1966" type="line"/>
      <point x="567" y="1700" type="line" name="sv01"/>
      <point x="291" y="1700" type="line"/>
    </contour>
    <contour>
      <point x="691" y="1966" type="line" name="ah05"/>
      <point x="967" y="1966" type="line"/>
      <point x="967" y="1700" type="line" name="sv02"/>
      <point x="691" y="1700" type="line"/>
    </contour>
  </outline>
</glyph>
<glyph name="Ntilde" format="2">
  <advance width="1300"/>
  <unicode hex="00D1"/>
  <outline>
    <contour>
      <point x="884" y="0" type="line" name="mh01"/>
      <point x="400" y="950" type="line" name="mh02"/>
      <point x="390" y="950" type="line" name="mh03"/>
      <point x="452" y="649" type="line" name="mh04"/>
      <point x="452" y="0" type="line" name="ab01"/>
      <point x="129" y="0" type="line" name="ah01"/>
      <point x="129" y="1263" type="line" name="ah03"/>
      <point x="96" y="1500" type="line"/>
      <point x="422" y="1520" type="line" name="mh05"/>
      <point x="900" y="600" type="line" name="mh06"/>
      <point x="910" y="600" type="line" name="mh07"/>
      <point x="851" y="852" type="line" name="mh08"/>
      <point x="851" y="1500" type="line"/>
      <point x="1173" y="1520" type="line" name="ah04"/>
      <point x="1173" y="0" type="line" name="ah02"/>
    </contour>
    <contour>
      <point x="274" y="1627" type="line" name="sh01"/>
      <point x="278" y="1667"/>
      <point x="310" y="1758"/>
      <point x="370" y="1834"/>
      <point x="462" y="1884" name="mv01"/>
      <point x="525" y="1884" type="qcurve" name="ah05"/>
      <point x="574" y="1884"/>
      <point x="641" y="1859"/>
      <point x="695" y="1829"/>
      <point x="744" y="1804"/>
      <point x="775" y="1804" type="qcurve" name="av03"/>
      <point x="796" y="1804"/>
      <point x="824" y="1818"/>
      <point x="843" y="1842"/>
      <point x="853" y="1874"/>
      <point x="856" y="1892" type="qcurve"/>
      <point x="1023" y="1882" type="line" name="av04"/>
      <point x="1020" y="1838" name="mh09"/>
      <point x="992" y="1745"/>
      <point x="935" y="1669"/>
      <point x="845" y="1620" name="mv02"/>
      <point x="778" y="1620" type="qcurve" name="av01"/>
      <point x="732" y="1620"/>
      <point x="669" y="1645"/>
      <point x="617" y="1675"/>
      <point x="564" y="1700"/>
      <point x="529" y="1700" type="qcurve" name="av02"/>
      <point x="511" y="1700"/>
      <point x="487" y="1686"/>
      <point x="470" y="1664"/>
      <point x="460" y="1635"/>
      <point x="456" y="1620" type="qcurve" name="sh02"/>
    </contour>
  </outline>
</glyph>
<glyph name="Otilde" format="2">
  <advance width="1300"/>
  <unicode hex="00D5"/>
  <outline>
    <contour>
      <point x="623" y="-17" type="qcurve" name="ab01"/>
      <point x="525" y="-17"/>
      <point x="360" y="38"/>
      <point x="227" y="139"/>
      <point x="126" y="279"/>
      <point x="58" y="450"/>
      <point x="24" y="645"/>
      <point x="24" y="750" type="qcurve" name="ah01"/>
      <point x="24" y="907"/>
      <point x="98" y="1187"/>
      <point x="247" y="1395"/>
      <point x="472" y="1517"/>
      <point x="623" y="1517" type="qcurve" name="at01"/>
      <point x="770" y="1517"/>
      <point x="993" y="1395"/>
      <point x="1144" y="1187"/>
      <point x="1221" y="907"/>
      <point x="1221" y="750" type="qcurve" name="ah02"/>
      <point x="1221" y="645"/>
      <point x="1188" y="450"/>
      <point x="1122" y="279"/>
      <point x="1023" y="139"/>
      <point x="890" y="38"/>
      <point x="723" y="-17"/>
    </contour>
    <contour>
      <point x="871" y="721" type="qcurve" name="sh01"/>
      <point x="871" y="783"/>
      <point x="864" y="913"/>
      <point x="845" y="1036"/>
      <point x="810" y="1145"/>
      <point x="753" y="1227"/>
      <point x="672" y="1274"/>
      <point x="617" y="1274" type="qcurve" name="sv01"/>
      <point x="565" y="1274"/>
      <point x="489" y="1231"/>
      <point x="435" y="1158"/>
      <point x="400" y="1061"/>
      <point x="381" y="952"/>
      <point x="374" y="837"/>
      <point x="374" y="783" type="qcurve" name="sh02"/>
      <point x="374" y="720"/>
      <point x="381" y="589"/>
      <point x="401" y="465"/>
      <point x="436" y="356"/>
      <point x="492" y="274"/>
      <point x="573" y="226"/>
      <point x="628" y="226" type="qcurve" name="sv02"/>
      <point x="680" y="226"/>
      <point x="756" y="269"/>
      <point x="810" y="344"/>
      <point x="844" y="442"/>
      <point x="864" y="552"/>
      <point x="871" y="667"/>
    </contour>
    <contour>
      <point x="225" y="1627" type="line" name="sh03"/>
      <point x="229" y="1667"/>
      <point x="261" y="1758"/>
      <point x="321" y="1834"/>
      <point x="413" y="1884" name="mv01"/>
      <point x="476" y="1884" type="qcurve" name="ah03"/>
      <point x="525" y="1884"/>
      <point x="592" y="1859"/>
      <point x="646" y="1829"/>
      <point x="695" y="1804"/>
      <point x="726" y="1804" type="qcurve" name="av03"/>
      <point x="747" y="1804"/>
      <point x="775" y="1818"/>
      <point x="794" y="1842"/>
      <point x="804" y="1874"/>
      <point x="807" y="1892" type="qcurve"/>
      <point x="974" y="1882" type="line" name="av04"/>
      <point x="971" y="1838" name="mh01"/>
      <point x="943" y="1745"/>
      <point x="886" y="1669"/>
      <point x="796" y="1620" name="mv02"/>
      <point x="729" y="1620" type="qcurve" name="av01"/>
      <point x="683" y="1620"/>
      <point x="620" y="1645"/>
      <point x="568" y="1675"/>
      <point x="515" y="1700"/>
      <point x="480" y="1700" type="qcurve" name="av02"/>
      <point x="462" y="1700"/>
      <point x="438" y="1686"/>
      <point x="421" y="1664"/>
      <point x="411" y="1635"/>
      <point x="407" y="1620" type="qcurve" name="sh04"/>
    </contour>
  </outline>
</glyph>
<glyph name="Thorn" format="2">
  <advance width="1300"/>
  <unicode hex="00DE"/>
  <outline>
    <contour>
      <point x="137" y="1500" type="line" name="ah01"/>
      <point x="501" y="1500" type="line" name="sh01"/>
      <point x="501" y="1311" type="line" name="av02"/>
      <point x="615" y="1311" type="line"/>
      <point x="666" y="1311"/>
      <point x="781" y="1293"/>
      <point x="892" y="1252"/>
      <point x="994" y="1186"/>
      <point x="1072" y="1090"/>
      <point x="1118" y="963"/>
      <point x="1118" y="882" type="qcurve" name="sh02"/>
      <point x="1118" y="825"/>
      <point x="1101" y="702"/>
      <point x="1047" y="584"/>
      <point x="948" y="478"/>
      <point x="866" y="438" type="qcurve"/>
      <point x="840" y="426"/>
      <point x="782" y="405"/>
      <point x="712" y="390"/>
      <point x="628" y="381"/>
      <point x="577" y="381" type="qcurve"/>
      <point x="501" y="381" type="line" name="av01"/>
      <point x="501" y="0" type="line" name="sh03"/>
      <point x="159" y="0" type="line" name="ah02"/>
      <point x="159" y="1267" type="line"/>
    </contour>
    <contour>
      <point x="501" y="1093" type="line" name="sh04"/>
      <point x="501" y="605" type="line" name="sh05"/>
      <point x="605" y="605" type="line"/>
      <point x="654" y="605"/>
      <point x="727" y="647"/>
      <point x="773" y="722"/>
      <point x="796" y="823"/>
      <point x="796" y="882" type="qcurve" name="ah03"/>
      <point x="796" y="983"/>
      <point x="683" y="1093"/>
      <point x="586" y="1093" type="qcurve"/>
    </contour>
  </outline>
</glyph>
<glyph name="germandbls" format="2">
  <advance width="1300"/>
  <unicode hex="00DF"/>
  <outline>
    <contour>
      <point x="470" y="-17" type="line" name="sh01"/>
      <point x="127" y="0" type="line" name="ah01"/>
      <point x="127" y="1073" type="line"/>
      <point x="127" y="1176"/>
      <point x="198" y="1332"/>
      <point x="327" y="1437"/>
      <point x="505" y="1489"/>
      <point x="613" y="1489" type="qcurve" name="av01"/>
      <point x="844" y="1489"/>
      <point x="954" y="1373" type="qcurve"/>
      <point x="979" y="1346"/>
      <point x="1021" y="1293"/>
      <point x="1051" y="1234"/>
      <point x="1068" y="1167"/>
      <point x="1068" y="1127" type="qcurve" name="sh02"/>
      <point x="1068" y="1074"/>
      <point x="1038" y="980"/>
      <point x="983" y="900"/>
      <point x="906" y="835"/>
      <point x="859" y="811" type="qcurve" name="sh03"/>
      <point x="922" y="790"/>
      <point x="1033" y="728"/>
      <point x="1115" y="644"/>
      <point x="1162" y="535"/>
      <point x="1162" y="466" type="qcurve" name="sh04"/>
      <point x="1162" y="380"/>
      <point x="1114" y="244"/>
      <point x="1032" y="140"/>
      <point x="923" y="67"/>
      <point x="798" y="21"/>
      <point x="665" y="0"/>
      <point x="601" y="0" type="qcurve" name="ab01"/>
      <point x="520" y="224" type="line" name="sv01"/>
      <point x="666" y="227"/>
      <point x="826" y="339"/>
      <point x="826" y="457" type="qcurve" name="ah03"/>
      <point x="826" y="516"/>
      <point x="792" y="601"/>
      <point x="730" y="655"/>
      <point x="646" y="681"/>
      <point x="595" y="681" type="qcurve" name="ah02"/>
      <point x="500" y="902" type="line" name="dv01"/>
      <point x="554" y="907"/>
      <point x="643" y="936"/>
      <point x="706" y="986"/>
      <point x="740" y="1058"/>
      <point x="740" y="1107" type="qcurve" name="ah04"/>
      <point x="740" y="1142"/>
      <point x="718" y="1204"/>
      <point x="682" y="1250"/>
      <point x="635" y="1276"/>
      <point x="610" y="1276" type="qcurve" name="sv02"/>
      <point x="539" y="1276"/>
      <point x="470" y="1203"/>
      <point x="470" y="1119" type="qcurve" name="sh05"/>
    </contour>
  </outline>
</glyph>
<glyph name="atilde" format="2">
  <advance width="1300"/>
  <unicode hex="00E3"/>
  <outline>
    <contour>
      <point x="1135" y="0" type="line" name="ab02"/>
      <point x="795" y="0" type="line" name="hr01"/>
      <point x="795" y="100" type="line" name="ah01"/>
      <point x="711" y="5" type="line" name="ah02"/>
      <point x="676" y="-6"/>
      <point x="607" y="-17"/>
      <point x="577" y="-17" type="qcurve" name="ab01"/>
      <point x="494" y="-17"/>
      <point x="326" y="32"/>
      <point x="191" y="127"/>
      <point x="106" y="267"/>
      <point x="106" y="358" type="qcurve" name="sh01"/>
      <point x="106" y="454"/>
      <point x="192" y="594"/>
      <point x="333" y="685" name="mh01"/>
      <point x="511" y="729" name="mv01"/>
      <point x="604" y="729" type="qcurve" name="dv01"/>
      <point x="661" y="729"/>
      <point x="755" y="722"/>
      <point x="795" y="715" type="qcurve" name="sh02"/>
      <point x="791" y="800"/>
      <point x="713" y="900" name="mv02"/>
      <point x="632" y="900" type="qcurve" name="sv01"/>
      <point x="588" y="900" name="mv03"/>
      <point x="499" y="890" name="mv04"/>
      <point x="417" y="872"/>
      <point x="346" y="850"/>
      <point x="319" y="838" type="qcurve" name="ih01"/>
      <point x="225" y="1023" type="line" name="mh02"/>
      <point x="271" y="1044"/>
      <point x="356" y="1079"/>
      <point x="451" y="1104" name="sh04"/>
      <point x="565" y="1117"/>
      <point x="642" y="1117" type="qcurve" name="mh03"/>
      <point x="770" y="1117" name="mv05"/>
      <point x="949" y="1054"/>
      <point x="1061" y="939"/>
      <point x="1112" y="778"/>
      <point x="1112" y="681" type="qcurve"/>
      <point x="1112" y="200" type="line" name="sh05"/>
    </contour>
    <contour>
      <point x="795" y="500" type="line" name="sh06"/>
      <point x="780" y="501"/>
      <point x="740" y="503"/>
      <point x="698" y="504"/>
      <point x="657" y="505"/>
      <point x="642" y="505" type="qcurve" name="dv02"/>
      <point x="604" y="505"/>
      <point x="529" y="491"/>
      <point x="471" y="457"/>
      <point x="435" y="401"/>
      <point x="435" y="359" type="qcurve" name="sh03"/>
      <point x="435" y="325"/>
      <point x="460" y="270"/>
      <point x="502" y="230"/>
      <point x="556" y="208"/>
      <point x="585" y="208" type="qcurve" name="sv02"/>
      <point x="642" y="208"/>
      <point x="746" y="258"/>
      <point x="795" y="300" type="qcurve"/>
    </contour>
    <contour>
      <point x="276" y="1247" type="line" name="sh07"/>
      <point x="280" y="1287"/>
      <point x="312" y="1378"/>
      <point x="372" y="1454"/>
      <point x="464" y="1504" name="mv06"/>
      <point x="527" y="1504" type="qcurve" name="ah03"/>
      <point x="576" y="1504"/>
      <point x="643" y="1479"/>
      <point x="697" y="1449"/>
      <point x="746" y="1424"/>
      <point x="777" y="1424" type="qcurve" name="av03"/>
      <point x="798" y="1424"/>
      <point x="826" y="1438"/>
      <point x="845" y="1462"/>
      <point x="855" y="1494"/>
      <point x="858" y="1512" type="qcurve"/>
      <point x="1025" y="1502" type="line" name="av04"/>
      <point x="1022" y="1458" name="mh04"/>
      <point x="994" y="1365"/>
      <point x="937" y="1289"/>
      <point x="847" y="1240" name="mv07"/>
      <point x="780" y="1240" type="qcurve" name="av01"/>
      <point x="734" y="1240"/>
      <point x="671" y="1265"/>
      <point x="619" y="1295"/>
      <point x="566" y="1320"/>
      <point x="531" y="1320" type="qcurve" name="av02"/>
      <point x="513" y="1320"/>
      <point x="489" y="1306"/>
      <point x="472" y="1284"/>
      <point x="462" y="1255"/>
      <point x="458" y="1240" type="qcurve" name="sh08"/>
    </contour>
  </outline>
</glyph>
<glyph name="aring" format="2">
  <advance width="1300"/>
  <unicode hex="00E5"/>
  <outline>
    <contour>
      <point x="1135" y="0" type="line" name="ab02"/>
      <point x="795" y="0" type="line" name="hr01"/>
      <point x="795" y="100" type="line" name="ah01"/>
      <point x="711" y="5" type="line" name="ah02"/>
      <point x="676" y="-6"/>
      <point x="607" y="-17"/>
      <point x="577" y="-17" type="qcurve" name="ab01"/>
      <point x="494" y="-17"/>
      <point x="326" y="32"/>
      <point x="191" y="127"/>
      <point x="106" y="267"/>
      <point x="106" y="358" type="qcurve" name="sh01"/>
      <point x="106" y="454"/>
      <point x="192" y="594"/>
      <point x="333" y="685" name="mh01"/>
      <point x="511" y="729" name="mv01"/>
      <point x="604" y="729" type="qcurve" name="dv01"/>
      <point x="661" y="729"/>
      <point x="755" y="722"/>
      <point x="795" y="715" type="qcurve" name="sh02"/>
      <point x="791" y="800"/>
      <point x="713" y="900" name="mv02"/>
      <point x="632" y="900" type="qcurve" name="sv01"/>
      <point x="588" y="900" name="mv03"/>
      <point x="499" y="890" name="mv04"/>
      <point x="417" y="872"/>
      <point x="346" y="850"/>
      <point x="319" y="838" type="qcurve" name="ih01"/>
      <point x="225" y="1023" type="line" name="mh02"/>
      <point x="271" y="1044"/>
      <point x="356" y="1079"/>
      <point x="451" y="1104" name="sh04"/>
      <point x="565" y="1117"/>
      <point x="642" y="1117" type="qcurve" name="mh03"/>
      <point x="770" y="1117" name="mv05"/>
      <point x="949" y="1054"/>
      <point x="1061" y="939"/>
      <point x="1112" y="778"/>
      <point x="1112" y="681" type="qcurve"/>
      <point x="1112" y="200" type="line" name="sh05"/>
    </contour>
    <contour>
      <point x="795" y="500" type="line" name="sh06"/>
      <point x="780" y="501"/>
      <point x="740" y="503"/>
      <point x="698" y="504"/>
      <point x="657" y="505"/>
      <point x="642" y="505" type="qcurve" name="dv02"/>
      <point x="604" y="505"/>
      <point x="529" y="491"/>
      <point x="471" y="457"/>
      <point x="435" y="401"/>
      <point x="435" y="359" type="qcurve" name="sh03"/>
      <point x="435" y="325"/>
      <point x="460" y="270"/>
      <point x="502" y="230"/>
      <point x="556" y="208"/>
      <point x="585" y="208" type="qcurve" name="sv02"/>
      <point x="642" y="208"/>
      <point x="746" y="258"/>
      <point x="795" y="300" type="qcurve"/>
    </contour>
    <contour>
      <point x="650" y="1682" type="qcurve" name="av01"/>
      <point x="709" y="1682"/>
      <point x="812" y="1637"/>
      <point x="889" y="1560"/>
      <point x="934" y="1456"/>
      <point x="934" y="1397" type="qcurve" name="ah04"/>
      <point x="934" y="1338"/>
      <point x="890" y="1233"/>
      <point x="814" y="1154"/>
      <point x="711" y="1108"/>
      <point x="652" y="1108" type="qcurve" name="at01"/>
      <point x="593" y="1108"/>
      <point x="488" y="1154"/>
      <point x="410" y="1233"/>
      <point x="364" y="1338"/>
      <point x="364" y="1397" type="qcurve" name="ah03"/>
      <point x="364" y="1456"/>
      <point x="409" y="1560"/>
      <point x="487" y="1637"/>
      <point x="591" y="1682"/>
    </contour>
    <contour>
      <point x="651" y="1297" type="qcurve" name="sv03"/>
      <point x="671" y="1297"/>
      <point x="706" y="1313"/>
      <point x="732" y="1340"/>
      <point x="747" y="1376"/>
      <point x="747" y="1396" type="qcurve" name="sh07"/>
      <point x="747" y="1416"/>
      <point x="732" y="1451"/>
      <point x="706" y="1478"/>
      <point x="670" y="1493"/>
      <point x="650" y="1493" type="qcurve" name="sv04"/>
      <point x="630" y="1493"/>
      <point x="594" y="1478"/>
      <point x="568" y="1451"/>
      <point x="553" y="1416"/>
      <point x="553" y="1396" type="qcurve" name="sh08"/>
      <point x="553" y="1376"/>
      <point x="568" y="1340"/>
      <point x="595" y="1313"/>
      <point x="631" y="1297"/>
    </contour>
  </outline>
</glyph>
<glyph name="ccedilla" format="2">
  <advance width="1300"/>
  <unicode hex="00E7"/>
  <outline>
    <contour>
      <point x="967" y="772" type="line"/>
      <point x="919" y="829"/>
      <point x="802" y="881"/>
      <point x="726" y="881" type="qcurve" name="sv01"/>
      <point x="665" y="881"/>
      <point x="559" y="828"/>
      <point x="480" y="738"/>
      <point x="435" y="619"/>
      <point x="435" y="553" type="qcurve" name="sh02"/>
      <point x="435" y="484"/>
      <point x="482" y="367"/>
      <point x="562" y="283"/>
      <point x="667" y="236"/>
      <point x="726" y="236" type="qcurve" name="sv02"/>
      <point x="778" y="236"/>
      <point x="863" y="255"/>
      <point x="930" y="288"/>
      <point x="981" y="330"/>
      <point x="999" y="353" type="qcurve"/>
      <point x="1123" y="137" type="line"/>
      <point x="1105" y="121"/>
      <point x="1034" y="69"/>
      <point x="928" y="19"/>
      <point x="784" y="-17"/>
      <point x="693" y="-17" type="qcurve" name="ab01"/>
      <point x="560" y="-17"/>
      <point x="343" y="79"/>
      <point x="189" y="239"/>
      <point x="105" y="450"/>
      <point x="105" y="565" type="qcurve" name="sh01"/>
      <point x="105" y="669"/>
      <point x="186" y="868"/>
      <point x="339" y="1023"/>
      <point x="559" y="1117"/>
      <point x="697" y="1117" type="qcurve" name="at01"/>
      <point x="832" y="1117"/>
      <point x="1051" y="1042"/>
      <point x="1129" y="957" type="qcurve"/>
    </contour>
    <contour>
      <point x="820" y="0" type="line"/>
      <point x="847" y="-20"/>
      <point x="869" y="-46" type="qcurve"/>
      <point x="888" y="-69"/>
      <point x="919" y="-132"/>
      <point x="919" y="-171" type="qcurve"/>
      <point x="919" y="-221"/>
      <point x="872" y="-307"/>
      <point x="792" y="-370"/>
      <point x="688" y="-407"/>
      <point x="631" y="-407" type="qcurve"/>
      <point x="571" y="-407"/>
      <point x="456" y="-371"/>
      <point x="408" y="-349" type="qcurve"/>
      <point x="353" y="-323"/>
      <point x="302" y="-290" type="qcurve"/>
      <point x="417" y="-131" type="line"/>
      <point x="449" y="-151"/>
      <point x="481" y="-166" type="qcurve"/>
      <point x="507" y="-179"/>
      <point x="566" y="-200"/>
      <point x="588" y="-200" type="qcurve"/>
      <point x="611" y="-200"/>
      <point x="652" y="-175"/>
      <point x="652" y="-147" type="qcurve"/>
      <point x="652" y="-126"/>
      <point x="628" y="-79"/>
      <point x="596" y="-37"/>
      <point x="565" y="-6"/>
      <point x="558" y="0" type="qcurve"/>
    </contour>
  </outline>
</glyph>
<glyph name="oacute" format="2">
  <advance width="1300"/>
  <unicode hex="00F3"/>
  <outline>
    <contour>
      <point x="627" y="-17" type="qcurve" name="mh01"/>
      <point x="507" y="-17"/>
      <point x="307" y="70"/>
      <point x="162" y="223"/>
      <point x="81" y="431"/>
      <point x="81" y="553" type="qcurve" name="sh01"/>
      <point x="81" y="674"/>
      <point x="159" y="882"/>
      <point x="302" y="1034"/>
      <point x="504" y="1121"/>
      <point x="627" y="1117" type="qcurve" name="at01"/>
      <point x="747" y="1121"/>
      <point x="945" y="1034"/>
      <point x="1086" y="882"/>
      <point x="1164" y="674"/>
      <point x="1164" y="553" type="qcurve" name="sh02"/>
      <point x="1164" y="431"/>
      <point x="1089" y="223" name="mv01"/>
      <point x="949" y="70"/>
      <point x="751" y="-17" name="mh02"/>
    </contour>
    <contour>
      <point x="838" y="528" type="qcurve" name="ah01"/>
      <point x="838" y="596"/>
      <point x="815" y="728"/>
      <point x="763" y="833"/>
      <point x="681" y="897"/>
      <point x="623" y="897" type="qcurve" name="sv01"/>
      <point x="567" y="897"/>
      <point x="486" y="842"/>
      <point x="434" y="750"/>
      <point x="408" y="633"/>
      <point x="408" y="571" type="qcurve" name="sh03"/>
      <point x="408" y="502"/>
      <point x="434" y="370"/>
      <point x="488" y="267"/>
      <point x="572" y="203"/>
      <point x="631" y="203" type="qcurve" name="sv02"/>
      <point x="685" y="203"/>
      <point x="764" y="258"/>
      <point x="814" y="350"/>
      <point x="838" y="466"/>
    </contour>
    <contour>
      <point x="663" y="1500" type="line" name="ah02"/>
      <point x="1000" y="1520" type="line" name="sh04"/>
      <point x="715" y="1200" type="line"/>
      <point x="500" y="1200" type="line" name="mh03"/>
    </contour>
  </outline>
</glyph>
<glyph name="otilde" format="2">
  <advance width="1300"/>
  <unicode hex="00F5"/>
  <outline>
    <contour>
      <point x="627" y="-17" type="qcurve" name="mh01"/>
      <point x="507" y="-17"/>
      <point x="307" y="70"/>
      <point x="162" y="223"/>
      <point x="81" y="431"/>
      <point x="81" y="553" type="qcurve" name="sh01"/>
      <point x="81" y="674"/>
      <point x="159" y="882"/>
      <point x="302" y="1034"/>
      <point x="504" y="1121"/>
      <point x="627" y="1117" type="qcurve" name="at01"/>
      <point x="747" y="1121"/>
      <point x="945" y="1034"/>
      <point x="1086" y="882"/>
      <point x="1164" y="674"/>
      <point x="1164" y="553" type="qcurve" name="sh02"/>
      <point x="1164" y="431"/>
      <point x="1089" y="223" name="mv01"/>
      <point x="949" y="70"/>
      <point x="751" y="-17" name="mh02"/>
    </contour>
    <contour>
      <point x="838" y="528" type="qcurve" name="ah01"/>
      <point x="838" y="596"/>
      <point x="815" y="728"/>
      <point x="763" y="833"/>
      <point x="681" y="897"/>
      <point x="623" y="897" type="qcurve" name="sv01"/>
      <point x="567" y="897"/>
      <point x="486" y="842"/>
      <point x="434" y="750"/>
      <point x="408" y="633"/>
      <point x="408" y="571" type="qcurve" name="sh03"/>
      <point x="408" y="502"/>
      <point x="434" y="370"/>
      <point x="488" y="267"/>
      <point x="572" y="203"/>
      <point x="631" y="203" type="qcurve" name="sv02"/>
      <point x="685" y="203"/>
      <point x="764" y="258"/>
      <point x="814" y="350"/>
      <point x="838" y="466"/>
    </contour>
    <contour>
      <point x="268" y="1247" type="line" name="sh04"/>
      <point x="272" y="1287"/>
      <point x="304" y="1378"/>
      <point x="364" y="1454"/>
      <point x="456" y="1504" name="mv02"/>
      <point x="519" y="1504" type="qcurve" name="ah02"/>
      <point x="568" y="1504"/>
      <point x="635" y="1479"/>
      <point x="689" y="1449"/>
      <point x="738" y="1424"/>
      <point x="769" y="1424" type="qcurve" name="av03"/>
      <point x="790" y="1424"/>
      <point x="818" y="1438"/>
      <point x="837" y="1462"/>
      <point x="847" y="1494"/>
      <point x="850" y="1512" type="qcurve"/>
      <point x="1017" y="1502" type="line" name="av04"/>
      <point x="1014" y="1458" name="mh03"/>
      <point x="986" y="1365"/>
      <point x="929" y="1289"/>
      <point x="839" y="1240" name="mv03"/>
      <point x="772" y="1240" type="qcurve" name="av01"/>
      <point x="726" y="1240"/>
      <point x="663" y="1265"/>
      <point x="611" y="1295"/>
      <point x="558" y="1320"/>
      <point x="523" y="1320" type="qcurve" name="av02"/>
      <point x="505" y="1320"/>
      <point x="481" y="1306"/>
      <point x="464" y="1284"/>
      <point x="454" y="1255"/>
      <point x="450" y="1240" type="qcurve" name="sh05"/>
    </contour>
  </outline>
</glyph>
<glyph name="divide" format="2">
  <advance width="1300"/>
  <unicode hex="00F7"/>
  <outline>
    <contour>
      <point x="509" y="287" type="qcurve" name="ah03"/>
      <point x="509" y="316"/>
      <point x="531" y="367"/>
      <point x="570" y="406"/>
      <point x="620" y="428"/>
      <point x="649" y="428" type="qcurve" name="mh01"/>
      <point x="678" y="428"/>
      <point x="728" y="406"/>
      <point x="767" y="367"/>
      <point x="789" y="316"/>
      <point x="789" y="287" type="qcurve" name="ah04"/>
      <point x="789" y="259"/>
      <point x="767" y="207"/>
      <point x="730" y="168"/>
      <point x="679" y="144"/>
      <point x="650" y="144" type="qcurve" name="av04"/>
      <point x="622" y="144"/>
      <point x="570" y="168"/>
      <point x="531" y="207"/>
      <point x="509" y="259"/>
    </contour>
    <contour>
      <point x="509" y="940" type="qcurve" name="ah01"/>
      <point x="509" y="969"/>
      <point x="531" y="1020"/>
      <point x="570" y="1059"/>
      <point x="620" y="1081"/>
      <point x="649" y="1081" type="qcurve" name="av03"/>
      <point x="678" y="1081"/>
      <point x="728" y="1059"/>
      <point x="767" y="1020"/>
      <point x="789" y="969"/>
      <point x="789" y="940" type="qcurve" name="ah02"/>
      <point x="789" y="912"/>
      <point x="767" y="860"/>
      <point x="730" y="821"/>
      <point x="679" y="797"/>
      <point x="650" y="797" type="qcurve" name="av02"/>
      <point x="622" y="797"/>
      <point x="570" y="821"/>
      <point x="531" y="860"/>
      <point x="509" y="912"/>
    </contour>
    <contour>
      <point x="200" y="724" type="line" name="av01"/>
      <point x="1100" y="724" type="line" name="sv01"/>
      <point x="1100" y="500" type="line"/>
      <point x="200" y="500" type="line" name="sv02"/>
    </contour>
  </outline>
</glyph>
<glyph name="oslash" format="2">
  <advance width="1300"/>
  <unicode hex="00F8"/>
  <outline>
    <contour>
      <point x="321" y="-100" type="line"/>
      <point x="61" y="-100" type="line"/>
      <point x="861" y="1209" type="line"/>
      <point x="1111" y="1209" type="line"/>
    </contour>
    <contour>
      <point x="582" y="-17" type="qcurve" name="hr01"/>
      <point x="462" y="-17"/>
      <point x="262" y="70"/>
      <point x="117" y="223"/>
      <point x="36" y="431"/>
      <point x="36" y="553" type="qcurve"/>
      <point x="36" y="674"/>
      <point x="114" y="882"/>
      <point x="257" y="1034"/>
      <point x="459" y="1121"/>
      <point x="582" y="1117" type="qcurve"/>
      <point x="702" y="1121"/>
      <point x="900" y="1034"/>
      <point x="1041" y="882"/>
      <point x="1119" y="674"/>
      <point x="1119" y="553" type="qcurve"/>
      <point x="1119" y="431"/>
      <point x="1044" y="223"/>
      <point x="904" y="70"/>
      <point x="706" y="-17"/>
    </contour>
    <contour>
      <point x="793" y="528" type="qcurve"/>
      <point x="793" y="596"/>
      <point x="770" y="728"/>
      <point x="718" y="833"/>
      <point x="636" y="897"/>
      <point x="578" y="897" type="qcurve"/>
      <point x="522" y="897"/>
      <point x="441" y="842"/>
      <point x="389" y="750"/>
      <point x="363" y="633"/>
      <point x="363" y="571" type="qcurve"/>
      <point x="363" y="502"/>
      <point x="389" y="370"/>
      <point x="443" y="267"/>
      <point x="527" y="203"/>
      <point x="586" y="203" type="qcurve"/>
      <point x="640" y="203"/>
      <point x="719" y="258"/>
      <point x="769" y="350"/>
      <point x="793" y="466"/>
    </contour>
  </outline>
</glyph>
<glyph name="ugrave" format="2">
  <advance width="1300"/>
  <unicode hex="00F9"/>
  <outline>
    <contour>
      <point x="815" y="1100" type="line" name="sh02"/>
      <point x="1132" y="1120" type="line" name="sh03"/>
      <point x="1132" y="0" type="line" name="ah01"/>
      <point x="815" y="0" type="line" name="sh01"/>
      <point x="815" y="100" type="line" name="iv01"/>
      <point x="734" y="0" type="line" name="ah02"/>
      <point x="678" y="-17"/>
      <point x="613" y="-17" type="qcurve" name="ih01"/>
      <point x="479" y="-17"/>
      <point x="299" y="59"/>
      <point x="190" y="186"/>
      <point x="144" y="350"/>
      <point x="144" y="438" type="qcurve" name="sh04"/>
      <point x="144" y="1100" type="line" name="ih02"/>
      <point x="460" y="1120" type="line" name="at01"/>
      <point x="460" y="438" type="line" name="sh05"/>
      <point x="460" y="386"/>
      <point x="477" y="303"/>
      <point x="519" y="244"/>
      <point x="588" y="213"/>
      <point x="639" y="213" type="qcurve" name="ih03"/>
      <point x="672" y="213"/>
      <point x="728" y="233"/>
      <point x="773" y="265"/>
      <point x="805" y="301"/>
      <point x="815" y="318" type="qcurve"/>
    </contour>
    <contour>
      <point x="816" y="1200" type="line" name="av01"/>
      <point x="601" y="1200" type="line"/>
      <point x="316" y="1520" type="line" name="iv02"/>
      <point x="653" y="1500" type="line" name="at02"/>
    </contour>
  </outline>
</glyph>
<glyph name="OE" format="2">
  <advance width="1300"/>
  <unicode hex="0152"/>
  <outline>
    <contour>
      <point x="650" y="0" type="line"/>
      <point x="600" y="60" type="line"/>
      <point x="577" y="-17" type="line"/>
      <point x="445" y="-17"/>
      <point x="222" y="68"/>
      <point x="60" y="252"/>
      <point x="-31" y="544"/>
      <point x="-31" y="750" type="qcurve"/>
      <point x="-31" y="956"/>
      <point x="60" y="1247"/>
      <point x="222" y="1432"/>
      <point x="445" y="1517"/>
      <point x="577" y="1517" type="qcurve"/>
      <point x="600" y="1440" type="line"/>
      <point x="650" y="1500" type="line"/>
      <point x="1263" y="1500" type="line"/>
      <point x="1263" y="1272" type="line" name="hr02"/>
      <point x="873" y="1272" type="line"/>
      <point x="888" y="1134" type="line"/>
      <point x="888" y="916" type="line"/>
      <point x="1197" y="916" type="line" name="hr01"/>
      <point x="1197" y="703" type="line"/>
      <point x="888" y="703" type="line"/>
      <point x="888" y="360" type="line"/>
      <point x="881" y="228" type="line"/>
      <point x="1300" y="228" type="line"/>
      <point x="1273" y="0" type="line"/>
    </contour>
    <contour>
      <point x="601" y="1265" type="line"/>
      <point x="586" y="1271"/>
      <point x="553" y="1279"/>
      <point x="539" y="1279" type="qcurve"/>
      <point x="486" y="1279"/>
      <point x="398" y="1215"/>
      <point x="335" y="1089"/>
      <point x="300" y="904"/>
      <point x="300" y="783" type="qcurve"/>
      <point x="300" y="638"/>
      <point x="336" y="426"/>
      <point x="401" y="288"/>
      <point x="493" y="221"/>
      <point x="550" y="221" type="qcurve"/>
      <point x="563" y="221"/>
      <point x="589" y="226"/>
      <point x="601" y="231" type="qcurve"/>
    </contour>
  </outline>
</glyph>
<glyph name="Scaron" format="2">
  <advance width="1300"/>
  <unicode hex="0160"/>
  <outline>
    <contour>
      <point x="975" y="1178" type="line" name="mh01"/>
      <point x="929" y="1205"/>
      <point x="854" y="1242"/>
      <point x="790" y="1264"/>
      <point x="733" y="1274"/>
      <point x="705" y="1274" type="qcurve" name="sv01"/>
      <point x="668" y="1274"/>
      <point x="595" y="1260"/>
      <point x="537" y="1226"/>
      <point x="501" y="1168"/>
      <point x="501" y="1125" type="qcurve" name="sh02"/>
      <point x="501" y="1084"/>
      <point x="542" y="1025" name="sv02"/>
      <point x="609" y="979"/>
      <point x="694" y="941" name="mv01"/>
      <point x="738" y="921" type="qcurve" name="sh03"/>
      <point x="813" y="886" name="mv02"/>
      <point x="967" y="805" name="sv04"/>
      <point x="1091" y="695"/>
      <point x="1170" y="548"/>
      <point x="1170" y="448" type="qcurve" name="sh04"/>
      <point x="1170" y="332"/>
      <point x="1074" y="158"/>
      <point x="915" y="42"/>
      <point x="708" y="-17"/>
      <point x="598" y="-17" type="qcurve" name="ab01"/>
      <point x="472" y="-17" name="mh02"/>
      <point x="259" y="54" name="mv03"/>
      <point x="152" y="121" type="qcurve" name="mh03"/>
      <point x="290" y="348" type="line"/>
      <point x="317" y="330"/>
      <point x="391" y="290"/>
      <point x="474" y="257"/>
      <point x="558" y="236"/>
      <point x="596" y="236" type="qcurve" name="sv03"/>
      <point x="640" y="236"/>
      <point x="726" y="255"/>
      <point x="793" y="300"/>
      <point x="834" y="374"/>
      <point x="834" y="430" type="qcurve" name="ah01"/>
      <point x="834" y="484"/>
      <point x="785" y="562" name="av01"/>
      <point x="706" y="621"/>
      <point x="606" y="669" name="iv01"/>
      <point x="555" y="693" type="qcurve" name="ah02"/>
      <point x="483" y="727"/>
      <point x="347" y="803" name="av02"/>
      <point x="240" y="899"/>
      <point x="175" y="1019"/>
      <point x="175" y="1097" type="qcurve" name="sh01"/>
      <point x="175" y="1198"/>
      <point x="261" y="1355"/>
      <point x="403" y="1462"/>
      <point x="585" y="1517"/>
      <point x="681" y="1517" type="qcurve" name="at01"/>
      <point x="799" y="1517"/>
      <point x="1013" y="1444"/>
      <point x="1125" y="1369" type="qcurve" name="mh04"/>
    </contour>
    <contour>
      <point x="779" y="1596" type="line"/>
      <point x="483" y="1625" type="line"/>
      <point x="310" y="1900" type="line" name="at02"/>
      <point x="540" y="1900" type="line"/>
      <point x="615" y="1807" type="line"/>
      <point x="651" y="1680" type="line"/>
      <point x="685" y="1807" type="line"/>
      <point x="761" y="1900" type="line" name="at03"/>
      <point x="966" y="1900" type="line"/>
    </contour>
  </outline>
</glyph>
<glyph name="Ydieresis" format="2">
  <advance width="1300"/>
  <unicode hex="0178"/>
  <outline>
    <contour>
      <point x="574" y="1143" type="line"/>
      <point x="681" y="773" type="line" name="ih01"/>
      <point x="739" y="1143" type="line"/>
      <point x="921" y="1500" type="line" name="ah02"/>
      <point x="1256" y="1500" type="line" name="sh01"/>
      <point x="823" y="650" type="line" name="ih03"/>
      <point x="823" y="0" type="line" name="sh02"/>
      <point x="472" y="0" type="line" name="ah01"/>
      <point x="472" y="650" type="line" name="ih02"/>
      <point x="43" y="1500" type="line" name="ah03"/>
      <point x="382" y="1520" type="line" name="sh03"/>
    </contour>
    <contour>
      <point x="341" y="1866" type="line" name="ah04"/>
      <point x="617" y="1866" type="line"/>
      <point x="617" y="1600" type="line" name="sv01"/>
      <point x="341" y="1600" type="line"/>
    </contour>
    <contour>
      <point x="741" y="1866" type="line" name="ah05"/>
      <point x="1017" y="1866" type="line"/>
      <point x="1017" y="1600" type="line" name="sv02"/>
      <point x="741" y="1600" type="line"/>
    </contour>
  </outline>
</glyph>
<glyph name="circumflex" format="2">
  <advance width="1300"/>
  <unicode hex="02C6"/>
  <outline>
    <contour>
      <point x="920" y="1220" type="line" name="ah02"/>
      <point x="700" y="1220" type="line" name="sh01"/>
      <point x="630" y="1323" type="line" name="mv01"/>
      <point x="600" y="1450" type="line" name="ih01"/>
      <point x="570" y="1323" type="line" name="mh01"/>
      <point x="489" y="1220" type="line" name="sh02"/>
      <point x="250" y="1220" type="line" name="ah01"/>
      <point x="445" y="1500" type="line" name="ih02"/>
      <point x="735" y="1520" type="line" name="ih03"/>
    </contour>
  </outline>
</glyph>
<glyph name="caron" format="2">
  <advance width="1300"/>
  <unicode hex="02C7"/>
  <outline>
    <contour>
      <point x="728" y="1216" type="line" name="hr00"/>
      <point x="432" y="1245" type="line"/>
      <point x="259" y="1520" type="line" name="at01"/>
      <point x="489" y="1520" type="line"/>
      <point x="564" y="1427" type="line"/>
      <point x="600" y="1300" type="line"/>
      <point x="634" y="1427" type="line"/>
      <point x="710" y="1520" type="line" name="at02"/>
      <point x="915" y="1520" type="line"/>
    </contour>
  </outline>
</glyph>
<glyph name="hungarumlaut" format="2">
  <advance width="1300"/>
  <unicode hex="02DD"/>
  <outline>
    <contour>
      <point x="336" y="1496" type="line" name="hr02"/>
      <point x="667" y="1518" type="line" name="hr01"/>
      <point x="385" y="1117" type="line" name="sh01"/>
      <point x="156" y="1117" type="line" name="ah01"/>
    </contour>
    <contour>
      <point x="699" y="1496" type="line"/>
      <point x="1030" y="1518" type="line" name="hr03"/>
      <point x="748" y="1117" type="line" name="sh03"/>
      <point x="519" y="1117" type="line" name="sh02"/>
    </contour>
  </outline>
</glyph>
<glyph name="Gamma" format="2">
  <advance width="1300"/>
  <unicode hex="0393"/>
  <outline>
    <contour>
      <point x="521" y="1131" type="line" name="sh02"/>
      <point x="521" y="0" type="line" name="sh01"/>
      <point x="179" y="0" type="line" name="ah01"/>
      <point x="179" y="1269" type="line" name="sh03"/>
      <point x="160" y="1500" type="line" name="at01"/>
      <point x="1109" y="1500" type="line" name="sv01"/>
      <point x="1109" y="1282" type="line" name="sv02"/>
      <point x="509" y="1282" type="line"/>
    </contour>
  </outline>
</glyph>
<glyph name="Eta" format="2">
  <advance width="1300"/>
  <unicode hex="0397"/>
  <outline>
    <contour>
      <point x="801" y="0" type="line" name="ah01"/>
      <point x="801" y="688" type="line" name="dv02"/>
      <point x="355" y="688" type="line" name="dv04"/>
      <point x="355" y="0" type="line" name="sh02"/>
      <point x="8" y="0" type="line" name="sh01"/>
      <point x="8" y="1263" type="line"/>
      <point x="-23" y="1500" type="line"/>
      <point x="355" y="1520" type="line" name="sh03"/>
      <point x="355" y="916" type="line" name="dv03"/>
      <point x="801" y="916" type="line" name="dv01"/>
      <point x="801" y="1500" type="line" name="sh04"/>
      <point x="1147" y="1520" type="line" name="at01"/>
      <point x="1147" y="0" type="line" name="sh05"/>
    </contour>
  </outline>
</glyph>
<glyph name="Kappa" format="2">
  <advance width="1300"/>
  <unicode hex="039A"/>
  <outline>
    <contour>
      <point x="121" y="0" type="line" name="sh01"/>
      <point x="121" y="1263" type="line"/>
      <point x="88" y="1500" type="line" name="at01"/>
      <point x="472" y="1520" type="line" name="ah02"/>
      <point x="472" y="1035" type="line" name="ah03"/>
      <point x="863" y="1500" type="line" name="sh02"/>
      <point x="1231" y="1500" type="line" name="sh03"/>
      <point x="732" y="900" type="line" name="sh04"/>
      <point x="499" y="800" type="line" name="mh01"/>
      <point x="722" y="716" type="line" name="sh05"/>
      <point x="1252" y="0" type="line" name="sh07"/>
      <point x="872" y="0" type="line" name="sh06"/>
      <point x="472" y="540" type="line" name="ah04"/>
      <point x="472" y="0" type="line" name="ah01"/>
    </contour>
  </outline>
</glyph>
<glyph name="Mu" format="2">
  <advance width="1300"/>
  <unicode hex="039C"/>
  <outline>
    <contour>
      <point x="883" y="0" type="line" name="sh01"/>
      <point x="883" y="449" type="line" name="mh01"/>
      <point x="990" y="1200" type="line" name="mh02"/>
      <point x="980" y="1200" type="line" name="ih01"/>
      <point x="843" y="700" type="line" name="mh03"/>
      <point x="755" y="475" type="line" name="ih03"/>
      <point x="544" y="475" type="line" name="ih04"/>
      <point x="459" y="700" type="line" name="mh05"/>
      <point x="320" y="1200" type="line" name="ih05"/>
      <point x="310" y="1200" type="line" name="mh06"/>
      <point x="422" y="449" type="line" name="mh04"/>
      <point x="422" y="0" type="line" name="dh02"/>
      <point x="100" y="0" type="line" name="dh01"/>
      <point x="100" y="1263" type="line"/>
      <point x="69" y="1500" type="line" name="ih06"/>
      <point x="409" y="1520" type="line" name="sh02"/>
      <point x="600" y="1079" type="line" name="mh07"/>
      <point x="651" y="800" type="line" name="ah02"/>
      <point x="700" y="1082" type="line" name="mh08"/>
      <point x="870" y="1500" type="line" name="sh03"/>
      <point x="1206" y="1520" type="line" name="ih02"/>
      <point x="1206" y="0" type="line" name="ah01"/>
    </contour>
  </outline>
</glyph>
<glyph name="Nu" format="2">
  <advance width="1300"/>
  <unicode hex="039D"/>
  <outline>
    <contour>
      <point x="884" y="0" type="line" name="mh01"/>
      <point x="400" y="950" type="line" name="mh02"/>
      <point x="390" y="950" type="line" name="mh03"/>
      <point x="452" y="649" type="line" name="mh04"/>
      <point x="452" y="0" type="line" name="ab01"/>
      <point x="129" y="0" type="line" name="ah01"/>
      <point x="129" y="1263" type="line" name="ah03"/>
      <point x="96" y="1500" type="line"/>
      <point x="422" y="1520" type="line" name="mh05"/>
      <point x="900" y="600" type="line" name="mh06"/>
      <point x="910" y="600" type="line" name="mh07"/>
      <point x="851" y="852" type="line" name="mh08"/>
      <point x="851" y="1500" type="line"/>
      <point x="1173" y="1520" type="line" name="ah04"/>
      <point x="1173" y="0" type="line" name="ah02"/>
    </contour>
  </outline>
</glyph>
<glyph name="Sigma" format="2">
  <advance width="1300"/>
  <unicode hex="03A3"/>
  <outline>
    <contour>
      <point x="943" y="699" type="line" name="dv01"/>
      <point x="564" y="300" type="line"/>
      <point x="434" y="200" type="line" name="sh01"/>
      <point x="594" y="217" type="line"/>
      <point x="1200" y="217" type="line" name="sv02"/>
      <point x="1200" y="0" type="line" name="sv01"/>
      <point x="75" y="0" type="line" name="ab01"/>
      <point x="98" y="216" type="line" name="ah02"/>
      <point x="554" y="690" type="line"/>
      <point x="764" y="750" type="line" name="ih01"/>
      <point x="554" y="810" type="line" name="ih02"/>
      <point x="98" y="1284" type="line" name="ah01"/>
      <point x="75" y="1500" type="line" name="at01"/>
      <point x="1200" y="1500" type="line" name="sv03"/>
      <point x="1200" y="1283" type="line" name="sv04"/>
      <point x="594" y="1283" type="line"/>
      <point x="434" y="1300" type="line" name="sh02"/>
      <point x="564" y="1200" type="line"/>
      <point x="943" y="801" type="line" name="ih03"/>
    </contour>
  </outline>
</glyph>
<glyph name="Tau" format="2">
  <advance width="1300"/>
  <unicode hex="03A4"/>
  <outline>
    <contour>
      <point x="469" y="0" type="line" name="dh01"/>
      <point x="469" y="1272" type="line" name="sv01"/>
      <point x="66" y="1272" type="line"/>
      <point x="66" y="1500" type="line" name="at01"/>
      <point x="1200" y="1500" type="line"/>
      <point x="1200" y="1272" type="line" name="sv02"/>
      <point x="802" y="1272" type="line" name="sv03"/>
      <point x="802" y="0" type="line" name="dh02"/>
    </contour>
  </outline>
</glyph>
<glyph name="Upsilon" format="2">
  <advance width="1300"/>
  <unicode hex="03A5"/>
  <outline>
    <contour>
      <point x="600" y="1143" type="line" name="hr00"/>
      <point x="707" y="773" type="line" name="ih01"/>
      <point x="765" y="1143" type="line"/>
      <point x="947" y="1500" type="line" name="ah02"/>
      <point x="1282" y="1500" type="line" name="sh01"/>
      <point x="849" y="650" type="line" name="ih03"/>
      <point x="849" y="0" type="line" name="sh02"/>
      <point x="498" y="0" type="line" name="ah01"/>
      <point x="498" y="650" type="line" name="ih02"/>
      <point x="69" y="1500" type="line" name="ah03"/>
      <point x="408" y="1520" type="line" name="sh03"/>
    </contour>
  </outline>
</glyph>
<glyph name="Phi" format="2">
  <advance width="1300"/>
  <unicode hex="03A6"/>
  <outline>
    <contour>
      <point x="477" y="204" type="line" name="iv04"/>
      <point x="456" y="209"/>
      <point x="418" y="218"/>
      <point x="399" y="224" type="qcurve"/>
      <point x="400" y="224" type="line"/>
      <point x="213" y="281"/>
      <point x="22" y="542"/>
      <point x="22" y="750" type="qcurve" name="ah02"/>
      <point x="22" y="956"/>
      <point x="213" y="1220"/>
      <point x="400" y="1276" type="qcurve"/>
      <point x="399" y="1276" type="line"/>
      <point x="418" y="1282"/>
      <point x="456" y="1291"/>
      <point x="477" y="1296" type="qcurve" name="iv03"/>
      <point x="477" y="1500" type="line" name="ah01"/>
      <point x="818" y="1520" type="line" name="sh01"/>
      <point x="818" y="1296" type="line" name="iv01"/>
      <point x="839" y="1291"/>
      <point x="878" y="1282"/>
      <point x="897" y="1276" type="qcurve"/>
      <point x="896" y="1276" type="line"/>
      <point x="1082" y="1220"/>
      <point x="1275" y="956"/>
      <point x="1275" y="750" type="qcurve" name="ah03"/>
      <point x="1275" y="542"/>
      <point x="1083" y="281"/>
      <point x="897" y="224" type="qcurve"/>
      <point x="898" y="224" type="line"/>
      <point x="879" y="218"/>
      <point x="838" y="209"/>
      <point x="818" y="204" type="qcurve" name="iv02"/>
      <point x="818" y="0" type="line" name="sh04"/>
      <point x="477" y="0" type="line" name="sh07"/>
    </contour>
    <contour>
      <point x="818" y="444" type="line" name="sh03"/>
      <point x="851" y="462"/>
      <point x="908" y="517"/>
      <point x="950" y="594"/>
      <point x="974" y="691"/>
      <point x="974" y="750" type="qcurve" name="sh08"/>
      <point x="974" y="810"/>
      <point x="950" y="907"/>
      <point x="908" y="982"/>
      <point x="851" y="1037"/>
      <point x="818" y="1055" type="qcurve" name="sh02"/>
    </contour>
    <contour>
      <point x="477" y="1055" type="line" name="sh05"/>
      <point x="408" y="1020"/>
      <point x="323" y="870"/>
      <point x="323" y="750" type="qcurve" name="sh09"/>
      <point x="323" y="630"/>
      <point x="409" y="479"/>
      <point x="477" y="445" type="qcurve" name="sh06"/>
    </contour>
  </outline>
</glyph>
<glyph name="Chi" format="2">
  <advance width="1300"/>
  <unicode hex="03A7"/>
  <outline>
    <contour>
      <point x="921" y="0" type="line" name="hr00"/>
      <point x="609" y="583" type="line"/>
      <point x="588" y="400" type="line"/>
      <point x="360" y="0" type="line"/>
      <point x="17" y="0" type="line"/>
      <point x="478" y="797" type="line"/>
      <point x="431" y="878"/>
      <point x="76" y="1500" type="qcurve"/>
      <point x="424" y="1520" type="line"/>
      <point x="718" y="995" type="line"/>
      <point x="749" y="1199" type="line"/>
      <point x="910" y="1500" type="line"/>
      <point x="1255" y="1500" type="line"/>
      <point x="855" y="800" type="line"/>
      <point x="1284" y="0" type="line"/>
    </contour>
  </outline>
</glyph>
<glyph name="Psi" format="2">
  <advance width="1300"/>
  <unicode hex="03A8"/>
  <outline>
    <contour>
      <point x="822" y="1520" type="line" name="sh03"/>
      <point x="822" y="671" type="line" name="sv01"/>
      <point x="837" y="680"/>
      <point x="866" y="709"/>
      <point x="889" y="752"/>
      <point x="904" y="810"/>
      <point x="904" y="849" type="qcurve"/>
      <point x="904" y="1500" type="line" name="sh04"/>
      <point x="1221" y="1500" type="line" name="sh05"/>
      <point x="1221" y="867" type="line" name="sv02"/>
      <point x="1221" y="754"/>
      <point x="1168" y="597"/>
      <point x="1066" y="493"/>
      <point x="917" y="435"/>
      <point x="822" y="422" type="qcurve" name="sh08"/>
      <point x="822" y="1" type="line" name="sh07"/>
      <point x="480" y="1" type="line" name="sh06"/>
      <point x="480" y="422" type="line" name="sv03"/>
      <point x="381" y="438"/>
      <point x="231" y="511"/>
      <point x="132" y="631"/>
      <point x="82" y="801"/>
      <point x="82" y="914" type="qcurve"/>
      <point x="82" y="1263" type="line"/>
      <point x="49" y="1500" type="line" name="ah01"/>
      <point x="398" y="1520" type="line" name="sh01"/>
      <point x="398" y="896" type="line" name="sv04"/>
      <point x="398" y="854"/>
      <point x="413" y="789"/>
      <point x="437" y="738"/>
      <point x="466" y="701" name="av01"/>
      <point x="480" y="688" type="qcurve" name="sv05"/>
      <point x="480" y="1500" type="line" name="sh02"/>
    </contour>
  </outline>
</glyph>
<glyph name="beta" format="2">
  <advance width="1300"/>
  <unicode hex="03B2"/>
  <outline>
    <contour>
      <point x="602" y="-17" type="qcurve" name="ih01"/>
      <point x="567" y="-17"/>
      <point x="499" y="-11"/>
      <point x="470" y="-7" type="qcurve" name="sh02"/>
      <point x="470" y="-517" type="line" name="sh01"/>
      <point x="134" y="-500" type="line" name="ah01"/>
      <point x="134" y="1101" type="line" name="ah02"/>
      <point x="134" y="1207"/>
      <point x="208" y="1364"/>
      <point x="338" y="1467"/>
      <point x="518" y="1517"/>
      <point x="623" y="1517" type="qcurve" name="at01"/>
      <point x="711" y="1517"/>
      <point x="869" y="1470"/>
      <point x="989" y="1378"/>
      <point x="1059" y="1243"/>
      <point x="1059" y="1155" type="qcurve" name="ah03"/>
      <point x="1059" y="1110"/>
      <point x="1040" y="1028"/>
      <point x="1007" y="956"/>
      <point x="963" y="895"/>
      <point x="938" y="871" type="qcurve"/>
      <point x="734" y="809" type="line" name="iv01"/>
      <point x="926" y="784" type="line"/>
      <point x="964" y="767"/>
      <point x="1027" y="726"/>
      <point x="1050" y="701" type="qcurve"/>
      <point x="1073" y="677"/>
      <point x="1110" y="628"/>
      <point x="1135" y="571"/>
      <point x="1149" y="503"/>
      <point x="1149" y="460" type="qcurve" name="ah04"/>
      <point x="1149" y="413"/>
      <point x="1130" y="305"/>
      <point x="1083" y="199"/>
      <point x="1004" y="102"/>
      <point x="882" y="27"/>
      <point x="714" y="-17"/>
    </contour>
    <contour>
      <point x="461" y="211" type="line" name="sh04"/>
      <point x="485" y="199"/>
      <point x="547" y="183"/>
      <point x="576" y="183" type="qcurve" name="sv01"/>
      <point x="630" y="183"/>
      <point x="723" y="219"/>
      <point x="792" y="288"/>
      <point x="832" y="388"/>
      <point x="832" y="451" type="qcurve" name="sh05"/>
      <point x="832" y="572"/>
      <point x="721" y="700"/>
      <point x="600" y="700" type="qcurve" name="dv02"/>
      <point x="510" y="900" type="line" name="dv01"/>
      <point x="540" y="902"/>
      <point x="622" y="922"/>
      <point x="697" y="974"/>
      <point x="750" y="1064"/>
      <point x="750" y="1135" type="qcurve" name="sh06"/>
      <point x="750" y="1170"/>
      <point x="726" y="1236"/>
      <point x="686" y="1287"/>
      <point x="631" y="1317"/>
      <point x="600" y="1317" type="qcurve" name="ih02"/>
      <point x="570" y="1317"/>
      <point x="520" y="1295"/>
      <point x="482" y="1252"/>
      <point x="461" y="1189"/>
      <point x="461" y="1147" type="qcurve" name="sh03"/>
    </contour>
  </outline>
</glyph>
<glyph name="gamma" format="2">
  <advance width="1300"/>
  <unicode hex="03B3"/>
  <outline>
    <contour>
      <point x="80" y="1117" type="line" name="ah01"/>
      <point x="137" y="1116"/>
      <point x="258" y="1108"/>
      <point x="367" y="1071"/>
      <point x="457" y="995"/>
      <point x="482" y="927" type="qcurve"/>
      <point x="587" y="641" type="line"/>
      <point x="667" y="220" type="line" name="ih01"/>
      <point x="746" y="643" type="line"/>
      <point x="914" y="1100" type="line" name="sh01"/>
      <point x="1224" y="1120" type="line" name="ah02"/>
      <point x="828" y="21" type="line" name="sh03"/>
      <point x="828" y="-500" type="line" name="sh02"/>
      <point x="500" y="-500" type="line" name="ah03"/>
      <point x="500" y="-7" type="line"/>
      <point x="194" y="834" type="line"/>
      <point x="183" y="864"/>
      <point x="145" y="899"/>
      <point x="126" y="907" type="qcurve"/>
      <point x="104" y="917"/>
      <point x="80" y="920" type="qcurve" name="sv01"/>
    </contour>
  </outline>
</glyph>
<glyph name="delta" format="2">
  <advance width="1300"/>
  <unicode hex="03B4"/>
  <outline>
    <contour>
      <point x="640" y="183" type="qcurve" name="sh01"/>
      <point x="683" y="183"/>
      <point x="757" y="237"/>
      <point x="811" y="331"/>
      <point x="842" y="457"/>
      <point x="842" y="528" type="qcurve" name="sh02"/>
      <point x="842" y="582"/>
      <point x="816" y="699"/>
      <point x="766" y="796"/>
      <point x="691" y="859"/>
      <point x="643" y="859" type="qcurve" name="ih01"/>
      <point x="545" y="859"/>
      <point x="436" y="688"/>
      <point x="436" y="528" type="qcurve" name="sh03"/>
      <point x="436" y="457"/>
      <point x="466" y="331"/>
      <point x="520" y="237"/>
      <point x="595" y="183"/>
    </contour>
    <contour>
      <point x="1059" y="1500" type="line" name="at01"/>
      <point x="1000" y="1300" type="line" name="sv01"/>
      <point x="587" y="1300" type="line"/>
      <point x="555" y="1300"/>
      <point x="514" y="1279"/>
      <point x="514" y="1253" type="qcurve" name="sh04"/>
      <point x="514" y="1236"/>
      <point x="568" y="1205"/>
      <point x="651" y="1171"/>
      <point x="748" y="1131"/>
      <point x="790" y="1107" type="qcurve" name="sv02"/>
      <point x="885" y="1053"/>
      <point x="1030" y="933"/>
      <point x="1129" y="794"/>
      <point x="1180" y="628"/>
      <point x="1180" y="528" type="qcurve" name="ah02"/>
      <point x="1180" y="456"/>
      <point x="1142" y="320"/>
      <point x="1072" y="199"/>
      <point x="974" y="97"/>
      <point x="855" y="24"/>
      <point x="718" y="-17"/>
      <point x="644" y="-17" type="qcurve" name="ab01"/>
      <point x="564" y="-17"/>
      <point x="422" y="28"/>
      <point x="303" y="106"/>
      <point x="209" y="212"/>
      <point x="143" y="336"/>
      <point x="108" y="472"/>
      <point x="108" y="540" type="qcurve" name="ah01"/>
      <point x="108" y="606"/>
      <point x="140" y="744"/>
      <point x="215" y="870"/>
      <point x="338" y="978"/>
      <point x="429" y="1015" type="qcurve" name="av01"/>
      <point x="610" y="1015" type="line" name="sv03"/>
      <point x="370" y="1108" type="line"/>
      <point x="341" y="1123"/>
      <point x="286" y="1161"/>
      <point x="244" y="1206"/>
      <point x="218" y="1257"/>
      <point x="218" y="1286" type="qcurve" name="ah03"/>
      <point x="218" y="1334"/>
      <point x="255" y="1403"/>
      <point x="317" y="1451"/>
      <point x="399" y="1479"/>
      <point x="489" y="1495"/>
      <point x="582" y="1500"/>
      <point x="624" y="1500" type="qcurve"/>
    </contour>
  </outline>
</glyph>
<glyph name="eta" format="2">
  <advance width="1300"/>
  <unicode hex="03B7"/>
  <outline>
    <contour>
      <point x="478" y="0" type="line" name="sh02"/>
      <point x="152" y="0" type="line" name="ab01"/>
      <point x="152" y="1100" type="line" name="ah01"/>
      <point x="478" y="1120" type="line" name="sh01"/>
      <point x="478" y="1067" type="line"/>
      <point x="527" y="1087"/>
      <point x="645" y="1116"/>
      <point x="707" y="1116" type="qcurve" name="at01"/>
      <point x="802" y="1116"/>
      <point x="932" y="1063"/>
      <point x="1012" y="964"/>
      <point x="1047" y="823"/>
      <point x="1047" y="736" type="qcurve" name="sh03"/>
      <point x="1047" y="-500" type="line" name="ah02"/>
      <point x="721" y="-500" type="line" name="sh04"/>
      <point x="721" y="761" type="line"/>
      <point x="721" y="843"/>
      <point x="690" y="917"/>
      <point x="646" y="917" type="qcurve" name="sv01"/>
      <point x="629" y="917"/>
      <point x="588" y="904"/>
      <point x="544" y="883"/>
      <point x="499" y="855"/>
      <point x="478" y="841" type="qcurve"/>
    </contour>
  </outline>
</glyph>
<glyph name="iota" format="2">
  <advance width="1300"/>
  <unicode hex="03B9"/>
  <outline>
    <contour>
      <point x="433" y="413" type="line" name="hr00"/>
      <point x="433" y="322"/>
      <point x="454" y="165"/>
      <point x="527" y="49"/>
      <point x="668" y="-17"/>
      <point x="788" y="-17" type="qcurve"/>
      <point x="813" y="-17"/>
      <point x="869" y="-8"/>
      <point x="921" y="7"/>
      <point x="965" y="26"/>
      <point x="979" y="35" type="qcurve"/>
      <point x="883" y="209" type="line"/>
      <point x="852" y="195"/>
      <point x="808" y="195" type="qcurve"/>
      <point x="790" y="195"/>
      <point x="770" y="231"/>
      <point x="761" y="289"/>
      <point x="760" y="362"/>
      <point x="760" y="400" type="qcurve"/>
      <point x="760" y="1120" type="line"/>
      <point x="412" y="1100" type="line"/>
      <point x="433" y="874" type="line"/>
    </contour>
  </outline>
</glyph>
<glyph name="tau" format="2">
  <advance width="1300"/>
  <unicode hex="03C4"/>
  <outline>
    <contour>
      <point x="1077" y="900" type="line" name="hr00"/>
      <point x="1104" y="1100" type="line"/>
      <point x="176" y="1100" type="line"/>
      <point x="149" y="900" type="line"/>
      <point x="484" y="900" type="line"/>
      <point x="484" y="320" type="line"/>
      <point x="484" y="264"/>
      <point x="494" y="170"/>
      <point x="520" y="90"/>
      <point x="565" y="25"/>
      <point x="600" y="0" type="qcurve"/>
      <point x="915" y="0" type="line"/>
      <point x="878" y="50"/>
      <point x="831" y="125"/>
      <point x="804" y="190"/>
      <point x="793" y="250"/>
      <point x="793" y="284" type="qcurve"/>
      <point x="793" y="900" type="line"/>
    </contour>
  </outline>
</glyph>
<glyph name="phi" format="2">
  <advance width="1300"/>
  <unicode hex="03C6"/>
  <outline>
    <contour>
      <point x="484" y="1100" type="line" name="hr00"/>
      <point x="484" y="1005" type="line"/>
      <point x="390" y="984"/>
      <point x="221" y="898"/>
      <point x="93" y="771"/>
      <point x="17" y="605"/>
      <point x="17" y="503" type="qcurve"/>
      <point x="17" y="398"/>
      <point x="97" y="228"/>
      <point x="228" y="101"/>
      <point x="396" y="19"/>
      <point x="484" y="2" type="qcurve"/>
      <point x="484" y="-500" type="line"/>
      <point x="812" y="-500" type="line"/>
      <point x="812" y="2" type="line"/>
      <point x="908" y="20"/>
      <point x="1078" y="104"/>
      <point x="1207" y="232"/>
      <point x="1282" y="400"/>
      <point x="1282" y="503" type="qcurve"/>
      <point x="1282" y="609"/>
      <point x="1201" y="778"/>
      <point x="1069" y="904"/>
      <point x="900" y="986"/>
      <point x="812" y="1005" type="qcurve"/>
      <point x="812" y="1120" type="line"/>
    </contour>
    <contour>
      <point x="994" y="503" type="qcurve"/>
      <point x="994" y="450"/>
      <point x="963" y="361"/>
      <point x="912" y="290"/>
      <point x="847" y="238"/>
      <point x="812" y="223" type="qcurve"/>
      <point x="812" y="782" type="line"/>
      <point x="847" y="768"/>
      <point x="912" y="717"/>
      <point x="963" y="646"/>
      <point x="994" y="556"/>
    </contour>
    <contour>
      <point x="303" y="503" type="qcurve"/>
      <point x="303" y="556"/>
      <point x="333" y="645"/>
      <point x="383" y="715"/>
      <point x="449" y="766"/>
      <point x="484" y="781" type="qcurve"/>
      <point x="484" y="224" type="line"/>
      <point x="449" y="239"/>
      <point x="384" y="291"/>
      <point x="333" y="361"/>
      <point x="303" y="450"/>
    </contour>
  </outline>
</glyph>
<glyph name="hyphentwo" format="2">
  <advance width="1300"/>
  <unicode hex="2010"/>
  <outline>
    <contour>
      <point x="337" y="400" type="line" name="hr00"/>
      <point x="964" y="400" type="line"/>
      <point x="964" y="624" type="line"/>
      <point x="337" y="624" type="line"/>
    </contour>
  </outline>
</glyph>
<glyph name="emdash" format="2">
  <advance width="1300"/>
  <unicode hex="2014"/>
  <outline>
    <contour>
      <point x="0" y="624" type="line" name="av01"/>
      <point x="1300" y="624" type="line"/>
      <point x="1300" y="400" type="line" name="sv02"/>
      <point x="0" y="400" type="line" name="sv01"/>
    </contour>
  </outline>
</glyph>
<glyph name="quotationdash" format="2">
  <advance width="1300"/>
  <unicode hex="2015"/>
  <outline>
    <contour>
      <point x="0" y="400" type="line" name="hr00"/>
      <point x="1200" y="400" type="line"/>
      <point x="1200" y="624" type="line"/>
      <point x="0" y="624" type="line"/>
    </contour>
  </outline>
</glyph>
<glyph name="doubleverticalline" format="2">
  <advance width="1300"/>
  <unicode hex="2016"/>
  <outline>
    <contour>
      <point x="589" y="1500" type="line" name="sh02"/>
      <point x="589" y="0" type="line" name="sh01"/>
      <point x="370" y="0" type="line" name="ah01"/>
      <point x="370" y="1500" type="line"/>
    </contour>
    <contour>
      <point x="889" y="1500" type="line" name="sh05"/>
      <point x="889" y="0" type="line" name="sh04"/>
      <point x="670" y="0" type="line" name="sh03"/>
      <point x="670" y="1500" type="line" name="sh06"/>
    </contour>
  </outline>
</glyph>
<glyph name="quoteright" format="2">
  <advance width="1300"/>
  <unicode hex="2019"/>
  <outline>
    <contour>
      <point x="600" y="1520" type="line" name="hr00"/>
      <point x="970" y="1500" type="line" name="ah02"/>
      <point x="554" y="1144" type="line" name="sh01"/>
      <point x="247" y="1144" type="line" name="ah01"/>
    </contour>
  </outline>
</glyph>
<glyph name="quotesinglbase" format="2">
  <advance width="1300"/>
  <unicode hex="201A"/>
  <outline>
    <contour>
      <point x="142" y="121" type="qcurve" name="ah01"/>
      <point x="142" y="152"/>
      <point x="165" y="208"/>
      <point x="207" y="250"/>
      <point x="265" y="275"/>
      <point x="300" y="275" type="qcurve" name="av01"/>
      <point x="334" y="275"/>
      <point x="394" y="250"/>
      <point x="439" y="208"/>
      <point x="464" y="152"/>
      <point x="464" y="121" type="qcurve" name="ah02"/>
      <point x="464" y="85"/>
      <point x="450" y="-4"/>
      <point x="410" y="-103"/>
      <point x="337" y="-210"/>
      <point x="277" y="-266" type="qcurve" name="av02"/>
      <point x="175" y="-208" type="line"/>
      <point x="186" y="-190"/>
      <point x="209" y="-144"/>
      <point x="228" y="-93"/>
      <point x="242" y="-41"/>
      <point x="245" y="-17" type="qcurve" name="ab01"/>
      <point x="225" y="-9"/>
      <point x="188" y="13"/>
      <point x="160" y="45"/>
      <point x="142" y="90"/>
    </contour>
  </outline>
</glyph>
<glyph name="dagger" format="2">
  <advance width="1300"/>
  <unicode hex="2020"/>
  <outline>
    <contour>
      <point x="200" y="1117" type="line" name="at02"/>
      <point x="456" y="1117" type="line" name="dh01"/>
      <point x="456" y="1500" type="line"/>
      <point x="738" y="1520" type="line" name="at01"/>
      <point x="738" y="1117" type="line" name="dh02"/>
      <point x="1028" y="1117" type="line"/>
      <point x="1000" y="900" type="line" name="sv01"/>
      <point x="738" y="900" type="line" name="sh01"/>
      <point x="738" y="-401" type="line" name="av01"/>
      <point x="456" y="-401" type="line" name="sh02"/>
      <point x="456" y="900" type="line" name="sv02"/>
      <point x="200" y="900" type="line" name="sv03"/>
    </contour>
  </outline>
</glyph>
<glyph name="prime" format="2">
  <advance width="1300"/>
  <unicode hex="2032"/>
  <outline>
    <contour>
      <point x="480" y="1230" type="line" name="hr00"/>
      <point x="319" y="885" type="line"/>
      <point x="166" y="885" type="line"/>
      <point x="230" y="1232" type="line"/>
      <point x="230" y="1520" type="line"/>
      <point x="480" y="1500" type="line"/>
    </contour>
  </outline>
</glyph>
<glyph name="tripleprime" format="2">
  <advance width="1300"/>
  <unicode hex="2034"/>
  <outline>
    <contour>
      <point x="480" y="1230" type="line"/>
      <point x="319" y="885" type="line"/>
      <point x="166" y="885" type="line"/>
      <point x="230" y="1232" type="line"/>
      <point x="230" y="1520" type="line"/>
      <point x="480" y="1500" type="line"/>
    </contour>
    <contour>
      <point x="780" y="1230" type="line" name="hr01"/>
      <point x="619" y="885" type="line"/>
      <point x="466" y="885" type="line"/>
      <point x="530" y="1232" type="line"/>
      <point x="530" y="1520" type="line"/>
      <point x="780" y="1500" type="line"/>
    </contour>
    <contour>
      <point x="1080" y="1230" type="line" name="hr02"/>
      <point x="919" y="885" type="line"/>
      <point x="766" y="885" type="line"/>
      <point x="830" y="1232" type="line"/>
      <point x="830" y="1520" type="line"/>
      <point x="1080" y="1500" type="line"/>
    </contour>
  </outline>
</glyph>
<glyph name="reversedprime" format="2">
  <advance width="1300"/>
  <unicode hex="2035"/>
  <outline>
    <contour>
      <point x="220" y="1230" type="line" name="hr00"/>
      <point x="381" y="885" type="line"/>
      <point x="534" y="885" type="line"/>
      <point x="470" y="1232" type="line"/>
      <point x="470" y="1520" type="line"/>
      <point x="220" y="1500" type="line"/>
    </contour>
  </outline>
</glyph>
<glyph name="guilsinglleft" format="2">
  <advance width="1300"/>
  <unicode hex="2039"/>
  <outline>
    <contour>
      <point x="884" y="1106" type="line" name="at01"/>
      <point x="973" y="880" type="line" name="sv01"/>
      <point x="642" y="583" type="line"/>
      <point x="566" y="550" type="line" name="iv01"/>
      <point x="641" y="517" type="line"/>
      <point x="975" y="224" type="line" name="sv02"/>
      <point x="881" y="-13" type="line" name="ab01"/>
      <point x="326" y="476" type="line" name="dv01"/>
      <point x="326" y="620" type="line" name="dv02"/>
    </contour>
  </outline>
</glyph>
<glyph name="guilsinglright" format="2">
  <advance width="1300"/>
  <unicode hex="203A"/>
  <outline>
    <contour>
      <point x="977" y="619" type="line" name="dv01"/>
      <point x="977" y="476" type="line" name="dv02"/>
      <point x="421" y="-13" type="line" name="ab01"/>
      <point x="327" y="224" type="line" name="sv01"/>
      <point x="661" y="517" type="line"/>
      <point x="735" y="550" type="line" name="iv01"/>
      <point x="660" y="582" type="line"/>
      <point x="329" y="880" type="line" name="sv02"/>
      <point x="418" y="1106" type="line" name="at01"/>
    </contour>
  </outline>
</glyph>
<glyph name="superscriptfour" format="2">
  <advance width="1300"/>
  <unicode hex="2074"/>
  <outline>
    <contour>
      <point x="699" y="970" type="line" name="hr00"/>
      <point x="599" y="970" type="line"/>
      <point x="599" y="1120" type="line"/>
      <point x="439" y="1110" type="line"/>
      <point x="439" y="970" type="line"/>
      <point x="293" y="970" type="line"/>
      <point x="380" y="1101" type="line"/>
      <point x="546" y="1470" type="line"/>
      <point x="405" y="1480" type="line"/>
      <point x="159" y="970" type="line"/>
      <point x="159" y="870" type="line"/>
      <point x="439" y="870" type="line"/>
      <point x="439" y="720" type="line"/>
      <point x="599" y="720" type="line"/>
      <point x="599" y="870" type="line"/>
      <point x="688" y="870" type="line"/>
    </contour>
  </outline>
</glyph>
<glyph name="superscriptplussign" format="2">
  <advance width="1300"/>
  <unicode hex="207A"/>
  <outline>
    <contour>
      <point x="189" y="1070" type="line" name="hr00"/>
      <point x="369" y="1070" type="line"/>
      <point x="369" y="1278" type="line"/>
      <point x="479" y="1278" type="line"/>
      <point x="479" y="1070" type="line"/>
      <point x="659" y="1070" type="line"/>
      <point x="659" y="970" type="line"/>
      <point x="479" y="970" type="line"/>
      <point x="479" y="770" type="line"/>
      <point x="369" y="770" type="line"/>
      <point x="369" y="970" type="line"/>
      <point x="189" y="970" type="line"/>
    </contour>
  </outline>
</glyph>
<glyph name="superscriptequalssign" format="2">
  <advance width="1300"/>
  <unicode hex="207C"/>
  <outline>
    <contour>
      <point x="200" y="1120" type="line" name="hr00"/>
      <point x="600" y="1120" type="line"/>
      <point x="600" y="1010" type="line"/>
      <point x="200" y="1010" type="line"/>
    </contour>
    <contour>
      <point x="200" y="920" type="line"/>
      <point x="600" y="920" type="line"/>
      <point x="600" y="810" type="line"/>
      <point x="200" y="810" type="line"/>
    </contour>
  </outline>
</glyph>
<glyph name="subscriptone" format="2">
  <advance width="1300"/>
  <unicode hex="2081"/>
  <outline>
    <contour>
      <point x="384" y="-400" type="line" name="hr00"/>
      <point x="263" y="-400" type="line"/>
      <point x="263" y="-500" type="line"/>
      <point x="671" y="-500" type="line"/>
      <point x="671" y="-400" type="line"/>
      <point x="550" y="-400" type="line"/>
      <point x="550" y="250" type="line"/>
      <point x="428" y="260" type="line"/>
      <point x="188" y="41" type="line"/>
      <point x="266" y="-51" type="line"/>
      <point x="308" y="-14" type="line"/>
      <point x="421" y="121" type="line"/>
      <point x="384" y="-60" type="line"/>
    </contour>
  </outline>
</glyph>
<glyph name="subscriptfour" format="2">
  <advance width="1300"/>
  <unicode hex="2084"/>
  <outline>
    <contour>
      <point x="699" y="-250" type="line" name="hr00"/>
      <point x="599" y="-250" type="line"/>
      <point x="599" y="-100" type="line"/>
      <point x="439" y="-110" type="line"/>
      <point x="439" y="-250" type="line"/>
      <point x="293" y="-250" type="line"/>
      <point x="380" y="-119" type="line"/>
      <point x="546" y="250" type="line"/>
      <point x="405" y="260" type="line"/>
      <point x="159" y="-250" type="line"/>
      <point x="159" y="-350" type="line"/>
      <point x="439" y="-350" type="line"/>
      <point x="439" y="-500" type="line"/>
      <point x="599" y="-500" type="line"/>
      <point x="599" y="-350" type="line"/>
      <point x="688" y="-350" type="line"/>
    </contour>
  </outline>
</glyph>
<glyph name="subscriptnine" format="2">
  <advance width="1300"/>
  <unicode hex="2089"/>
  <outline>
    <contour>
      <point x="279" y="-500" type="line"/>
      <point x="543" y="-478"/>
      <point x="696" y="-291"/>
      <point x="696" y="-55" type="curve" smooth="yes"/>
      <point x="696" y="65"/>
      <point x="640" y="267"/>
      <point x="419" y="267" type="curve" smooth="yes"/>
      <point x="254" y="267"/>
      <point x="149" y="165"/>
      <point x="149" y="17" type="curve" smooth="yes"/>
      <point x="149" y="-126"/>
      <point x="262" y="-219"/>
      <point x="408" y="-219" type="curve" smooth="yes"/>
      <point x="420" y="-219"/>
      <point x="431" y="-219"/>
      <point x="441" y="-217" type="curve"/>
      <point x="530" y="-141" type="line"/>
      <point x="528" y="-263"/>
      <point x="395" y="-388"/>
      <point x="258" y="-392" type="curve"/>
    </contour>
    <contour>
      <point x="413" y="-111" type="curve" smooth="yes" name="hr01"/>
      <point x="351" y="-111"/>
      <point x="314" y="-46"/>
      <point x="314" y="26" type="curve" smooth="yes"/>
      <point x="314" y="98"/>
      <point x="361" y="159"/>
      <point x="423" y="159" type="curve" smooth="yes"/>
      <point x="488" y="159"/>
      <point x="528" y="66"/>
      <point x="532" y="-19" type="curve"/>
      <point x="511" y="-64"/>
      <point x="459" y="-111"/>
    </contour>
  </outline>
</glyph>
<glyph name="subscriptplussign" format="2">
  <advance width="1300"/>
  <unicode hex="208A"/>
  <outline>
    <contour>
      <point x="189" y="-150" type="line" name="hr00"/>
      <point x="369" y="-150" type="line"/>
      <point x="369" y="58" type="line"/>
      <point x="479" y="58" type="line"/>
      <point x="479" y="-150" type="line"/>
      <point x="659" y="-150" type="line"/>
      <point x="659" y="-250" type="line"/>
      <point x="479" y="-250" type="line"/>
      <point x="479" y="-450" type="line"/>
      <point x="369" y="-450" type="line"/>
      <point x="369" y="-250" type="line"/>
      <point x="189" y="-250" type="line"/>
    </contour>
  </outline>
</glyph>
<glyph name="Euro" format="2">
  <advance width="1300"/>
  <unicode hex="20AC"/>
  <outline>
    <contour>
      <point x="535" y="792" type="line" name="hr00"/>
      <point x="533" y="768"/>
      <point x="532" y="706"/>
      <point x="537" y="681" type="qcurve"/>
      <point x="544" y="651" type="line"/>
      <point x="630" y="681" type="line"/>
      <point x="895" y="681" type="line" name="dv01"/>
      <point x="784" y="466" type="line" name="dv05"/>
      <point x="578" y="466" type="line"/>
      <point x="613" y="350"/>
      <point x="743" y="225"/>
      <point x="834" y="225" type="qcurve" name="sv01"/>
      <point x="882" y="225"/>
      <point x="1015" y="268"/>
      <point x="1101" y="323" type="qcurve" name="dv06"/>
      <point x="1228" y="114" type="line"/>
      <point x="1195" y="85"/>
      <point x="1110" y="37"/>
      <point x="1002" y="3"/>
      <point x="869" y="-17"/>
      <point x="788" y="-17" type="qcurve" name="ab01"/>
      <point x="695" y="-17"/>
      <point x="522" y="55"/>
      <point x="377" y="184"/>
      <point x="266" y="361"/>
      <point x="235" y="466" type="qcurve"/>
      <point x="72" y="466" type="line" name="sv02"/>
      <point x="72" y="681" type="line" name="sv03"/>
      <point x="204" y="681" type="line"/>
      <point x="199" y="707"/>
      <point x="199" y="765"/>
      <point x="202" y="792" type="qcurve"/>
      <point x="72" y="792" type="line" name="sv04"/>
      <point x="72" y="1007" type="line" name="sv05"/>
      <point x="235" y="1007" type="line"/>
      <point x="261" y="1111"/>
      <point x="364" y="1291"/>
      <point x="507" y="1424"/>
      <point x="685" y="1500"/>
      <point x="785" y="1500" type="qcurve" name="at01"/>
      <point x="865" y="1500"/>
      <point x="986" y="1475"/>
      <point x="1084" y="1428"/>
      <point x="1164" y="1362"/>
      <point x="1203" y="1320" type="qcurve"/>
      <point x="1100" y="1121" type="line" name="dv04"/>
      <point x="1077" y="1151"/>
      <point x="1026" y="1204"/>
      <point x="962" y="1244"/>
      <point x="881" y="1267"/>
      <point x="829" y="1267" type="qcurve" name="sv06"/>
      <point x="785" y="1267"/>
      <point x="700" y="1228"/>
      <point x="628" y="1158"/>
      <point x="574" y="1063"/>
      <point x="562" y="1007" type="qcurve"/>
      <point x="546" y="937" type="line"/>
      <point x="650" y="1007" type="line"/>
      <point x="1063" y="1007" type="line" name="dv03"/>
      <point x="952" y="792" type="line" name="dv02"/>
    </contour>
  </outline>
</glyph>
<glyph name="indianrupee" format="2">
  <advance width="1300"/>
  <unicode hex="20B9"/>
  <outline>
    <contour>
      <point x="180" y="1500" type="line" name="hr00"/>
      <point x="1135" y="1500" type="line"/>
      <point x="1022" y="1292" type="line"/>
      <point x="934" y="1292" type="line"/>
      <point x="790" y="1340" type="line"/>
      <point x="881" y="1251" type="line"/>
      <point x="891" y="1231"/>
      <point x="895" y="1183"/>
      <point x="895" y="1169" type="qcurve"/>
      <point x="1136" y="1169" type="line"/>
      <point x="1022" y="959" type="line"/>
      <point x="930" y="959" type="line"/>
      <point x="817" y="990" type="line"/>
      <point x="877" y="925" type="line"/>
      <point x="855" y="866"/>
      <point x="774" y="765" name="mv01"/>
      <point x="669" y="687" name="mv02"/>
      <point x="546" y="636"/>
      <point x="482" y="627" type="qcurve"/>
      <point x="630" y="583" type="line"/>
      <point x="1067" y="0" type="line"/>
      <point x="699" y="0" type="line"/>
      <point x="272" y="573" type="line"/>
      <point x="264" y="583"/>
      <point x="252" y="583" type="qcurve"/>
      <point x="160" y="583" type="line"/>
      <point x="160" y="802" type="line"/>
      <point x="330" y="802" type="line"/>
      <point x="377" y="802"/>
      <point x="453" y="827"/>
      <point x="513" y="869"/>
      <point x="556" y="926"/>
      <point x="570" y="959" type="qcurve"/>
      <point x="122" y="959" type="line"/>
      <point x="180" y="1169" type="line"/>
      <point x="576" y="1169" type="line"/>
      <point x="570" y="1185"/>
      <point x="550" y="1228"/>
      <point x="513" y="1266"/>
      <point x="454" y="1292"/>
      <point x="410" y="1292" type="qcurve"/>
      <point x="122" y="1292" type="line" name="mh01"/>
    </contour>
  </outline>
</glyph>
<glyph name="centigrade" format="2">
  <advance width="2600"/>
  <unicode hex="2103"/>
  <outline>
    <contour>
      <point x="1810" y="133" type="line" name="ah02"/>
      <point x="1708" y="52"/>
      <point x="1485" y="-17"/>
      <point x="1354" y="-17" type="qcurve" name="ab01"/>
      <point x="1199" y="-17"/>
      <point x="953" y="108"/>
      <point x="781" y="322" name="mh01"/>
      <point x="690" y="608"/>
      <point x="690" y="769" type="qcurve" name="dh01"/>
      <point x="690" y="870"/>
      <point x="724" y="1059" name="mh02"/>
      <point x="794" y="1226"/>
      <point x="902" y="1363"/>
      <point x="1051" y="1462" name="mv01"/>
      <point x="1241" y="1517"/>
      <point x="1358" y="1517" type="qcurve" name="at01"/>
      <point x="1488" y="1517"/>
      <point x="1722" y="1429"/>
      <point x="1810" y="1344" type="qcurve" name="ah01"/>
      <point x="1662" y="1160" type="line" name="mv02"/>
      <point x="1629" y="1182"/>
      <point x="1556" y="1222"/>
      <point x="1482" y="1252"/>
      <point x="1408" y="1270"/>
      <point x="1374" y="1270" type="qcurve" name="sv01"/>
      <point x="1279" y="1270"/>
      <point x="1151" y="1192" name="mv03"/>
      <point x="1073" y="1057"/>
      <point x="1040" y="875"/>
      <point x="1040" y="772" type="qcurve" name="dh02"/>
      <point x="1040" y="711"/>
      <point x="1057" y="584"/>
      <point x="1092" y="464"/>
      <point x="1147" y="358" name="mh03"/>
      <point x="1222" y="279"/>
      <point x="1318" y="233"/>
      <point x="1378" y="233" type="qcurve" name="sv02"/>
      <point x="1412" y="233"/>
      <point x="1478" y="244"/>
      <point x="1551" y="269"/>
      <point x="1637" y="310"/>
      <point x="1691" y="340" type="qcurve"/>
    </contour>
    <contour>
      <point x="400" y="1517" type="qcurve" name="at02"/>
      <point x="461" y="1517"/>
      <point x="569" y="1475"/>
      <point x="650" y="1401"/>
      <point x="696" y="1303"/>
      <point x="696" y="1247" type="qcurve" name="ah04"/>
      <point x="696" y="1191"/>
      <point x="650" y="1093"/>
      <point x="569" y="1020"/>
      <point x="461" y="977"/>
      <point x="400" y="977" type="qcurve" name="av01"/>
      <point x="338" y="977"/>
      <point x="231" y="1020"/>
      <point x="150" y="1093"/>
      <point x="104" y="1191"/>
      <point x="104" y="1247" type="qcurve" name="ah03"/>
      <point x="104" y="1303"/>
      <point x="150" y="1401"/>
      <point x="231" y="1475"/>
      <point x="338" y="1517"/>
    </contour>
    <contour>
      <point x="400" y="1145" type="qcurve" name="sv03"/>
      <point x="423" y="1145"/>
      <point x="464" y="1161"/>
      <point x="494" y="1189"/>
      <point x="512" y="1226"/>
      <point x="512" y="1247" type="qcurve" name="sh01"/>
      <point x="512" y="1268"/>
      <point x="494" y="1305"/>
      <point x="464" y="1333"/>
      <point x="423" y="1349"/>
      <point x="400" y="1349" type="qcurve" name="sv04"/>
      <point x="377" y="1349"/>
      <point x="336" y="1333"/>
      <point x="306" y="1305"/>
      <point x="288" y="1268"/>
      <point x="288" y="1247" type="qcurve" name="sh02"/>
      <point x="288" y="1226"/>
      <point x="306" y="1189"/>
      <point x="336" y="1161"/>
      <point x="377" y="1145"/>
    </contour>
  </outline>
</glyph>
<glyph name="fahrenheit" format="2">
  <advance width="2600"/>
  <unicode hex="2109"/>
  <outline>
    <contour>
      <point x="1251" y="0" type="line" name="dh02"/>
      <point x="900" y="0" type="line" name="dh01"/>
      <point x="900" y="1263" type="line"/>
      <point x="865" y="1500" type="line" name="at01"/>
      <point x="1867" y="1500" type="line" name="dh04"/>
      <point x="1840" y="1272" type="line" name="sv01"/>
      <point x="1236" y="1272" type="line"/>
      <point x="1251" y="1134" type="line" name="sh01"/>
      <point x="1251" y="916" type="line"/>
      <point x="1764" y="916" type="line" name="dh03"/>
      <point x="1764" y="703" type="line" name="dv01"/>
      <point x="1251" y="703" type="line"/>
    </contour>
    <contour>
      <point x="400" y="1517" type="qcurve" name="at02"/>
      <point x="461" y="1517"/>
      <point x="569" y="1475"/>
      <point x="650" y="1401"/>
      <point x="696" y="1303"/>
      <point x="696" y="1247" type="qcurve" name="ah02"/>
      <point x="696" y="1191"/>
      <point x="650" y="1093"/>
      <point x="569" y="1020"/>
      <point x="461" y="977"/>
      <point x="400" y="977" type="qcurve" name="av01"/>
      <point x="338" y="977"/>
      <point x="231" y="1020"/>
      <point x="150" y="1093"/>
      <point x="104" y="1191"/>
      <point x="104" y="1247" type="qcurve" name="ah01"/>
      <point x="104" y="1303"/>
      <point x="150" y="1401"/>
      <point x="231" y="1475"/>
      <point x="338" y="1517"/>
    </contour>
    <contour>
      <point x="400" y="1145" type="qcurve" name="sv02"/>
      <point x="423" y="1145"/>
      <point x="464" y="1161"/>
      <point x="494" y="1189"/>
      <point x="512" y="1226"/>
      <point x="512" y="1247" type="qcurve" name="sh02"/>
      <point x="512" y="1268"/>
      <point x="494" y="1305"/>
      <point x="464" y="1333"/>
      <point x="423" y="1349"/>
      <point x="400" y="1349" type="qcurve" name="sv03"/>
      <point x="377" y="1349"/>
      <point x="336" y="1333"/>
      <point x="306" y="1305"/>
      <point x="288" y="1268"/>
      <point x="288" y="1247" type="qcurve" name="sh03"/>
      <point x="288" y="1226"/>
      <point x="306" y="1189"/>
      <point x="336" y="1161"/>
      <point x="377" y="1145"/>
    </contour>
  </outline>
</glyph>
<glyph name="threefifths" format="2">
  <advance width="1300"/>
  <unicode hex="2157"/>
  <outline>
    <contour>
      <point x="1140" y="1500" type="line"/>
      <point x="964" y="1500" type="line"/>
      <point x="189" y="0" type="line"/>
      <point x="374" y="0" type="line"/>
    </contour>
    <contour>
      <point x="995" y="650" type="line" name="hr01"/>
      <point x="1254" y="650" type="line"/>
      <point x="1254" y="750" type="line"/>
      <point x="821" y="750" type="line"/>
      <point x="821" y="379" type="line"/>
      <point x="933" y="379" type="line"/>
      <point x="953" y="392"/>
      <point x="989" y="411"/>
      <point x="1040" y="411" type="curve" smooth="yes"/>
      <point x="1097" y="411"/>
      <point x="1136" y="357"/>
      <point x="1136" y="303" type="curve" smooth="yes"/>
      <point x="1136" y="195"/>
      <point x="963" y="117"/>
      <point x="821" y="113" type="curve"/>
      <point x="821" y="0" type="line"/>
      <point x="1037" y="0"/>
      <point x="1300" y="108"/>
      <point x="1300" y="313" type="curve" smooth="yes"/>
      <point x="1300" y="432"/>
      <point x="1208" y="529"/>
      <point x="1053" y="529" type="curve" smooth="yes"/>
      <point x="1030" y="529"/>
      <point x="1011" y="527"/>
      <point x="995" y="523" type="curve"/>
    </contour>
    <contour>
      <point x="190" y="1100" type="line" name="hr02"/>
      <point x="209" y="1101"/>
      <point x="273" y="1105"/>
      <point x="293" y="1105" type="curve" smooth="yes"/>
      <point x="376" y="1105"/>
      <point x="446" y="1079"/>
      <point x="446" y="1001" type="curve" smooth="yes"/>
      <point x="446" y="893"/>
      <point x="291" y="825"/>
      <point x="134" y="820" type="curve"/>
      <point x="134" y="720" type="line"/>
      <point x="355" y="720"/>
      <point x="617" y="808"/>
      <point x="617" y="1006" type="curve" smooth="yes"/>
      <point x="617" y="1129"/>
      <point x="524" y="1204"/>
      <point x="383" y="1204" type="curve"/>
      <point x="461" y="1246" type="line"/>
      <point x="509" y="1288"/>
      <point x="550" y="1331"/>
      <point x="570" y="1383" type="curve"/>
      <point x="570" y="1470" type="line"/>
      <point x="149" y="1470" type="line"/>
      <point x="139" y="1370" type="line"/>
      <point x="304" y="1370" type="line"/>
      <point x="434" y="1407" type="line"/>
      <point x="386" y="1330"/>
      <point x="249" y="1231"/>
      <point x="190" y="1189" type="curve"/>
    </contour>
  </outline>
</glyph>
<glyph name="romannumeraltwo" format="2">
  <advance width="2600"/>
  <unicode hex="2161"/>
  <outline>
    <contour>
      <point x="1089" y="1500" type="line" name="mh01"/>
      <point x="1967" y="1500" type="line" name="ah02"/>
      <point x="1967" y="1272" type="line" name="mh02"/>
      <point x="1694" y="1272" type="line" name="dh04"/>
      <point x="1694" y="228" type="line" name="dh02"/>
      <point x="1995" y="228" type="line" name="sh01"/>
      <point x="1960" y="0" type="line" name="ah03"/>
      <point x="1082" y="0" type="line" name="ah01"/>
      <point x="1082" y="228" type="line" name="mh03"/>
      <point x="1360" y="228" type="line" name="dh01"/>
      <point x="1360" y="1272" type="line" name="dh03"/>
      <point x="1054" y="1272" type="line" name="sh02"/>
    </contour>
    <contour>
      <point x="489" y="1500" type="line" name="mh04"/>
      <point x="1367" y="1500" type="line" name="ah05"/>
      <point x="1367" y="1272" type="line" name="mh05"/>
      <point x="1094" y="1272" type="line" name="dh08"/>
      <point x="1094" y="228" type="line" name="dh06"/>
      <point x="1395" y="228" type="line" name="sh03"/>
      <point x="1360" y="0" type="line" name="ah06"/>
      <point x="482" y="0" type="line" name="ah04"/>
      <point x="482" y="228" type="line" name="mh06"/>
      <point x="760" y="228" type="line" name="dh05"/>
      <point x="760" y="1272" type="line" name="dh07"/>
      <point x="454" y="1272" type="line" name="sh04"/>
    </contour>
  </outline>
</glyph>
<glyph name="romannumeralfour" format="2">
  <advance width="2600"/>
  <unicode hex="2163"/>
  <outline>
    <contour>
      <point x="2281" y="1500" type="line" name="hr00"/>
      <point x="1868" y="200" type="line"/>
      <point x="1840" y="-17" type="line"/>
      <point x="1488" y="0" type="line"/>
      <point x="1015" y="1500" type="line"/>
      <point x="1345" y="1500" type="line"/>
      <point x="1590" y="700" type="line"/>
      <point x="1643" y="260" type="line"/>
      <point x="1713" y="700" type="line"/>
      <point x="1961" y="1500" type="line"/>
    </contour>
    <contour>
      <point x="439" y="1500" type="line"/>
      <point x="1317" y="1500" type="line"/>
      <point x="1317" y="1272" type="line"/>
      <point x="1044" y="1272" type="line"/>
      <point x="1044" y="228" type="line"/>
      <point x="1345" y="228" type="line"/>
      <point x="1310" y="0" type="line"/>
      <point x="432" y="0" type="line"/>
      <point x="432" y="228" type="line"/>
      <point x="710" y="228" type="line"/>
      <point x="710" y="1272" type="line"/>
      <point x="404" y="1272" type="line"/>
    </contour>
  </outline>
</glyph>
<glyph name="romannumeralseven" format="2">
  <advance width="2600"/>
  <unicode hex="2166"/>
  <outline>
    <contour>
      <point x="1281" y="1500" type="line" name="sh01"/>
      <point x="868" y="200" type="line"/>
      <point x="840" y="-17" type="line" name="ab01"/>
      <point x="488" y="0" type="line"/>
      <point x="15" y="1500" type="line" name="ah01"/>
      <point x="337" y="1520" type="line" name="sh02"/>
      <point x="590" y="700" type="line" name="mh01"/>
      <point x="643" y="260" type="line" name="ih01"/>
      <point x="713" y="700" type="line"/>
      <point x="961" y="1500" type="line" name="ah02"/>
    </contour>
    <contour>
      <point x="1689" y="1500" type="line" name="mh02"/>
      <point x="2567" y="1500" type="line" name="ah04"/>
      <point x="2567" y="1272" type="line" name="mh03"/>
      <point x="2294" y="1272" type="line" name="dh04"/>
      <point x="2294" y="228" type="line" name="dh02"/>
      <point x="2595" y="228" type="line" name="sh03"/>
      <point x="2560" y="0" type="line" name="ah05"/>
      <point x="1682" y="0" type="line" name="ah03"/>
      <point x="1682" y="228" type="line" name="mh04"/>
      <point x="1960" y="228" type="line" name="dh01"/>
      <point x="1960" y="1272" type="line" name="dh03"/>
      <point x="1654" y="1272" type="line" name="sh04"/>
    </contour>
    <contour>
      <point x="1039" y="1500" type="line" name="mh05"/>
      <point x="1917" y="1500" type="line" name="ah07"/>
      <point x="1917" y="1272" type="line" name="mh06"/>
      <point x="1644" y="1272" type="line" name="dh08"/>
      <point x="1644" y="228" type="line" name="dh06"/>
      <point x="1945" y="228" type="line" name="sh05"/>
      <point x="1910" y="0" type="line" name="ah08"/>
      <point x="1032" y="0" type="line" name="ah06"/>
      <point x="1032" y="228" type="line" name="mh07"/>
      <point x="1310" y="228" type="line" name="dh05"/>
      <point x="1310" y="1272" type="line" name="dh07"/>
      <point x="1004" y="1272" type="line" name="sh06"/>
    </contour>
  </outline>
</glyph>
<glyph name="romannumeraleight" format="2">
  <advance width="2600"/>
  <unicode hex="2167"/>
  <outline>
    <contour>
      <point x="1081" y="1500" type="line" name="sh01"/>
      <point x="668" y="200" type="line"/>
      <point x="640" y="-17" type="line" name="ab01"/>
      <point x="288" y="0" type="line"/>
      <point x="-185" y="1500" type="line" name="ah01"/>
      <point x="137" y="1520" type="line" name="sh02"/>
      <point x="390" y="700" type="line" name="mh01"/>
      <point x="443" y="260" type="line" name="ih01"/>
      <point x="513" y="700" type="line"/>
      <point x="761" y="1500" type="line" name="ah02"/>
    </contour>
    <contour>
      <point x="1489" y="1500" type="line" name="mh02"/>
      <point x="2367" y="1500" type="line" name="ah04"/>
      <point x="2367" y="1272" type="line" name="mh03"/>
      <point x="2094" y="1272" type="line" name="dh04"/>
      <point x="2094" y="228" type="line" name="dh02"/>
      <point x="2395" y="228" type="line" name="sh03"/>
      <point x="2360" y="0" type="line" name="ah05"/>
      <point x="1482" y="0" type="line" name="ah03"/>
      <point x="1482" y="228" type="line" name="mh04"/>
      <point x="1760" y="228" type="line" name="dh01"/>
      <point x="1760" y="1272" type="line" name="dh03"/>
      <point x="1454" y="1272" type="line" name="sh04"/>
    </contour>
    <contour>
      <point x="839" y="1500" type="line" name="mh05"/>
      <point x="1717" y="1500" type="line" name="ah07"/>
      <point x="1717" y="1272" type="line" name="mh06"/>
      <point x="1444" y="1272" type="line" name="dh08"/>
      <point x="1444" y="228" type="line" name="dh06"/>
      <point x="1745" y="228" type="line" name="sh05"/>
      <point x="1710" y="0" type="line" name="ah08"/>
      <point x="832" y="0" type="line" name="ah06"/>
      <point x="832" y="228" type="line" name="mh07"/>
      <point x="1110" y="228" type="line" name="dh05"/>
      <point x="1110" y="1272" type="line" name="dh07"/>
      <point x="804" y="1272" type="line" name="sh06"/>
    </contour>
  </outline>
</glyph>
<glyph name="romannumeralnine" format="2">
  <advance width="2600"/>
  <unicode hex="2168"/>
  <outline>
    <contour>
      <point x="1889" y="0" type="line" name="hr00"/>
      <point x="1577" y="583" type="line"/>
      <point x="1556" y="400" type="line"/>
      <point x="1328" y="0" type="line"/>
      <point x="985" y="0" type="line"/>
      <point x="1446" y="797" type="line"/>
      <point x="1044" y="1500" type="line"/>
      <point x="1400" y="1500" type="line"/>
      <point x="1686" y="995" type="line"/>
      <point x="1717" y="1199" type="line"/>
      <point x="1878" y="1500" type="line"/>
      <point x="2223" y="1500" type="line"/>
      <point x="1823" y="800" type="line"/>
      <point x="2252" y="0" type="line"/>
    </contour>
    <contour>
      <point x="339" y="1500" type="line"/>
      <point x="1217" y="1500" type="line"/>
      <point x="1217" y="1272" type="line"/>
      <point x="944" y="1272" type="line"/>
      <point x="944" y="228" type="line"/>
      <point x="1245" y="228" type="line"/>
      <point x="1210" y="0" type="line"/>
      <point x="332" y="0" type="line"/>
      <point x="332" y="228" type="line"/>
      <point x="610" y="228" type="line"/>
      <point x="610" y="1272" type="line"/>
      <point x="304" y="1272" type="line"/>
    </contour>
  </outline>
</glyph>
<glyph name="romannumeraleleven" format="2">
  <advance width="2600"/>
  <unicode hex="216A"/>
  <outline>
    <contour>
      <point x="889" y="0" type="line"/>
      <point x="577" y="583" type="line"/>
      <point x="556" y="400" type="line"/>
      <point x="328" y="0" type="line"/>
      <point x="-15" y="0" type="line"/>
      <point x="446" y="797" type="line"/>
      <point x="399" y="878"/>
      <point x="44" y="1500" type="qcurve"/>
      <point x="392" y="1520" type="line"/>
      <point x="686" y="995" type="line"/>
      <point x="717" y="1199" type="line"/>
      <point x="878" y="1500" type="line"/>
      <point x="1223" y="1500" type="line"/>
      <point x="823" y="800" type="line"/>
      <point x="1252" y="0" type="line"/>
    </contour>
    <contour>
      <point x="989" y="1500" type="line" name="mh01"/>
      <point x="1867" y="1500" type="line" name="ah02"/>
      <point x="1867" y="1272" type="line" name="mh02"/>
      <point x="1594" y="1272" type="line" name="dh04"/>
      <point x="1594" y="228" type="line" name="dh02"/>
      <point x="1895" y="228" type="line" name="sh01"/>
      <point x="1860" y="0" type="line" name="ah03"/>
      <point x="982" y="0" type="line" name="ah01"/>
      <point x="982" y="228" type="line" name="mh03"/>
      <point x="1260" y="228" type="line" name="dh01"/>
      <point x="1260" y="1272" type="line" name="dh03"/>
      <point x="954" y="1272" type="line" name="sh02"/>
    </contour>
  </outline>
</glyph>
<glyph name="smallromannumeralone" format="2">
  <advance width="1300"/>
  <unicode hex="2170"/>
  <outline>
    <contour>
      <point x="750" y="1120" type="line" name="hr00"/>
      <point x="450" y="1100" type="line"/>
      <point x="450" y="0" type="line"/>
      <point x="750" y="0" type="line"/>
    </contour>
  </outline>
</glyph>
<glyph name="smallromannumeraltwo" format="2">
  <advance width="1300"/>
  <unicode hex="2171"/>
  <outline>
    <contour>
      <point x="550" y="1120" type="line"/>
      <point x="250" y="1100" type="line"/>
      <point x="250" y="0" type="line"/>
      <point x="550" y="0" type="line"/>
    </contour>
    <contour>
      <point x="1050" y="1120" type="line" name="hr01"/>
      <point x="750" y="1100" type="line"/>
      <point x="750" y="0" type="line"/>
      <point x="1050" y="0" type="line"/>
    </contour>
  </outline>
</glyph>
<glyph name="smallromannumeralthree" format="2">
  <advance width="1300"/>
  <unicode hex="2172"/>
  <outline>
    <contour>
      <point x="250" y="1120" type="line"/>
      <point x="-50" y="1100" type="line"/>
      <point x="-50" y="0" type="line"/>
      <point x="250" y="0" type="line"/>
    </contour>
    <contour>
      <point x="750" y="1120" type="line" name="hr01"/>
      <point x="450" y="1100" type="line"/>
      <point x="450" y="0" type="line"/>
      <point x="750" y="0" type="line"/>
    </contour>
    <contour>
      <point x="1250" y="1120" type="line" name="hr02"/>
      <point x="950" y="1100" type="line"/>
      <point x="950" y="0" type="line"/>
      <point x="1250" y="0" type="line"/>
    </contour>
  </outline>
</glyph>
<glyph name="smallromannumeralfour" format="2">
  <advance width="1300"/>
  <unicode hex="2173"/>
  <outline>
    <contour>
      <point x="722" y="700" type="line" name="iv01"/>
      <point x="796" y="300" type="line" name="ah01"/>
      <point x="868" y="700" type="line" name="iv03"/>
      <point x="999" y="1100" type="line" name="sh01"/>
      <point x="1312" y="1120" type="line" name="sh02"/>
      <point x="939" y="-17" type="line" name="ab01"/>
      <point x="623" y="0" type="line" name="iv02"/>
      <point x="272" y="1100" type="line" name="sh04"/>
      <point x="586" y="1120" type="line" name="sh03"/>
    </contour>
    <contour>
      <point x="290" y="1120" type="line" name="hr01"/>
      <point x="-10" y="1100" type="line"/>
      <point x="-10" y="0" type="line"/>
      <point x="290" y="0" type="line"/>
    </contour>
  </outline>
</glyph>
<glyph name="smallromannumeralseven" format="2">
  <advance width="2600"/>
  <unicode hex="2176"/>
  <outline>
    <contour>
      <point x="582" y="700" type="line" name="iv01"/>
      <point x="656" y="300" type="line" name="ah01"/>
      <point x="728" y="700" type="line" name="iv03"/>
      <point x="859" y="1100" type="line" name="sh01"/>
      <point x="1172" y="1120" type="line" name="sh02"/>
      <point x="799" y="-17" type="line" name="ab01"/>
      <point x="483" y="0" type="line" name="iv02"/>
      <point x="132" y="1100" type="line" name="sh04"/>
      <point x="446" y="1120" type="line" name="sh03"/>
    </contour>
    <contour>
      <point x="1450" y="1120" type="line" name="hr01"/>
      <point x="1150" y="1100" type="line"/>
      <point x="1150" y="0" type="line"/>
      <point x="1450" y="0" type="line"/>
    </contour>
    <contour>
      <point x="1950" y="1120" type="line" name="hr02"/>
      <point x="1650" y="1100" type="line"/>
      <point x="1650" y="0" type="line"/>
      <point x="1950" y="0" type="line"/>
    </contour>
  </outline>
</glyph>
<glyph name="minusplus" format="2">
  <advance width="1300"/>
  <unicode hex="2213"/>
  <outline>
    <contour>
      <point x="179" y="612" type="line" name="ah02"/>
      <point x="539" y="612" type="line" name="ih01"/>
      <point x="539" y="946" type="line" name="mh01"/>
      <point x="759" y="946" type="line" name="mh02"/>
      <point x="759" y="612" type="line" name="ih03"/>
      <point x="1119" y="612" type="line" name="mh03"/>
      <point x="1119" y="452" type="line"/>
      <point x="759" y="452" type="line" name="ih04"/>
      <point x="759" y="132" type="line" name="mh05"/>
      <point x="539" y="132" type="line"/>
      <point x="539" y="452" type="line" name="ih06"/>
      <point x="179" y="452" type="line" name="mh06"/>
    </contour>
    <contour>
      <point x="200" y="1200" type="line" name="ah01"/>
      <point x="1100" y="1200" type="line" name="ih02"/>
      <point x="1100" y="998" type="line" name="ih05"/>
      <point x="200" y="998" type="line" name="mh04"/>
    </contour>
  </outline>
</glyph>
<glyph name="ringoperator" format="2">
  <advance width="1300"/>
  <unicode hex="2218"/>
  <outline>
    <contour>
      <point x="600" y="917" type="qcurve" name="at01"/>
      <point x="661" y="917"/>
      <point x="769" y="875"/>
      <point x="850" y="801"/>
      <point x="896" y="703"/>
      <point x="896" y="647" type="qcurve" name="ah02"/>
      <point x="896" y="591"/>
      <point x="850" y="493"/>
      <point x="769" y="420"/>
      <point x="661" y="377"/>
      <point x="600" y="377" type="qcurve" name="av01"/>
      <point x="538" y="377"/>
      <point x="431" y="420"/>
      <point x="350" y="493"/>
      <point x="304" y="591"/>
      <point x="304" y="647" type="qcurve" name="ah01"/>
      <point x="304" y="703"/>
      <point x="350" y="801"/>
      <point x="431" y="875"/>
      <point x="538" y="917"/>
    </contour>
    <contour>
      <point x="600" y="545" type="qcurve" name="sv01"/>
      <point x="623" y="545"/>
      <point x="664" y="561"/>
      <point x="694" y="589"/>
      <point x="712" y="626"/>
      <point x="712" y="647" type="qcurve" name="sh01"/>
      <point x="712" y="668"/>
      <point x="694" y="705"/>
      <point x="664" y="733"/>
      <point x="623" y="749"/>
      <point x="600" y="749" type="qcurve" name="sv02"/>
      <point x="577" y="749"/>
      <point x="536" y="733"/>
      <point x="506" y="705"/>
      <point x="488" y="668"/>
      <point x="488" y="647" type="qcurve" name="sh02"/>
      <point x="488" y="626"/>
      <point x="506" y="589"/>
      <point x="536" y="561"/>
      <point x="577" y="545"/>
    </contour>
  </outline>
</glyph>
<glyph name="logicalor" format="2">
  <advance width="1300"/>
  <unicode hex="2228"/>
  <outline>
    <contour>
      <point x="522" y="0" type="line" name="ab01"/>
      <point x="93" y="1300" type="line"/>
      <point x="248" y="1320" type="line" name="av01"/>
      <point x="592" y="320" type="line"/>
      <point x="657" y="80" type="line" name="iv01"/>
      <point x="722" y="320" type="line"/>
      <point x="1058" y="1300" type="line"/>
      <point x="1229" y="1320" type="line" name="av02"/>
      <point x="787" y="0" type="line"/>
    </contour>
  </outline>
</glyph>
<glyph name="congruent" format="2">
  <advance width="1300"/>
  <unicode hex="2245"/>
  <outline>
    <contour>
      <point x="200" y="300" type="line"/>
      <point x="1000" y="300" type="line" name="av02"/>
      <point x="1000" y="116" type="line" name="sv01"/>
      <point x="200" y="116" type="line" name="sv02"/>
    </contour>
    <contour>
      <point x="200" y="600" type="line"/>
      <point x="1000" y="600" type="line" name="av01"/>
      <point x="1000" y="416" type="line" name="sv03"/>
      <point x="200" y="416" type="line" name="sv04"/>
    </contour>
    <contour>
      <point x="1000" y="800" type="line" name="hr01"/>
      <point x="947" y="740"/>
      <point x="832" y="680"/>
      <point x="760" y="680" type="qcurve"/>
      <point x="713" y="680"/>
      <point x="624" y="727"/>
      <point x="540" y="784"/>
      <point x="459" y="831"/>
      <point x="420" y="831" type="qcurve"/>
      <point x="390" y="831"/>
      <point x="331" y="813"/>
      <point x="274" y="784"/>
      <point x="222" y="746"/>
      <point x="200" y="726" type="qcurve"/>
      <point x="200" y="902" type="line"/>
      <point x="226" y="931"/>
      <point x="281" y="982"/>
      <point x="340" y="1019"/>
      <point x="404" y="1041"/>
      <point x="440" y="1041" type="qcurve"/>
      <point x="471" y="1041"/>
      <point x="529" y="1018"/>
      <point x="583" y="985"/>
      <point x="637" y="945"/>
      <point x="691" y="912"/>
      <point x="748" y="889"/>
      <point x="780" y="889" type="qcurve"/>
      <point x="840" y="889"/>
      <point x="955" y="933"/>
      <point x="1000" y="972" type="qcurve"/>
    </contour>
  </outline>
</glyph>
<glyph name="lessequal" format="2">
  <advance width="1300"/>
  <unicode hex="2264"/>
  <outline>
    <contour>
      <point x="130" y="200" type="line"/>
      <point x="1137" y="200" type="line"/>
      <point x="1112" y="0" type="line"/>
      <point x="130" y="0" type="line"/>
    </contour>
    <contour>
      <point x="1137" y="1296" type="line" name="hr01"/>
      <point x="1137" y="1081" type="line"/>
      <point x="470" y="797" type="line"/>
      <point x="1137" y="516" type="line"/>
      <point x="1137" y="301" type="line" name="mv01"/>
      <point x="130" y="710" type="line"/>
      <point x="130" y="890" type="line"/>
    </contour>
  </outline>
</glyph>
<glyph name="verticalellipsis" format="2">
  <advance width="1300"/>
  <unicode hex="22EE"/>
  <outline>
    <contour>
      <point x="3" y="183" type="qcurve" name="ah01"/>
      <point x="3" y="224"/>
      <point x="34" y="296"/>
      <point x="88" y="350"/>
      <point x="159" y="381"/>
      <point x="200" y="381" type="qcurve" name="av01"/>
      <point x="241" y="381"/>
      <point x="313" y="350"/>
      <point x="367" y="296"/>
      <point x="398" y="224"/>
      <point x="398" y="183" type="qcurve" name="ah02"/>
      <point x="398" y="142"/>
      <point x="367" y="69"/>
      <point x="314" y="15"/>
      <point x="242" y="-17"/>
      <point x="202" y="-17" type="qcurve" name="ab01"/>
      <point x="161" y="-17"/>
      <point x="88" y="15"/>
      <point x="34" y="69"/>
      <point x="3" y="142"/>
    </contour>
    <contour>
      <point x="3" y="783" type="qcurve" name="ah03"/>
      <point x="3" y="824"/>
      <point x="34" y="896"/>
      <point x="88" y="950"/>
      <point x="159" y="981"/>
      <point x="200" y="981" type="qcurve" name="av02"/>
      <point x="241" y="981"/>
      <point x="313" y="950"/>
      <point x="367" y="896"/>
      <point x="398" y="824"/>
      <point x="398" y="783" type="qcurve" name="ah04"/>
      <point x="398" y="742"/>
      <point x="367" y="669"/>
      <point x="314" y="615"/>
      <point x="242" y="583"/>
      <point x="202" y="583" type="qcurve" name="ab02"/>
      <point x="161" y="583"/>
      <point x="88" y="615"/>
      <point x="34" y="669"/>
      <point x="3" y="742"/>
    </contour>
    <contour>
      <point x="3" y="1383" type="qcurve" name="ah05"/>
      <point x="3" y="1424"/>
      <point x="34" y="1496"/>
      <point x="88" y="1550"/>
      <point x="159" y="1581"/>
      <point x="200" y="1581" type="qcurve" name="av03"/>
      <point x="241" y="1581"/>
      <point x="313" y="1550"/>
      <point x="367" y="1496"/>
      <point x="398" y="1424"/>
      <point x="398" y="1383" type="qcurve" name="ah06"/>
      <point x="398" y="1342"/>
      <point x="367" y="1269"/>
      <point x="314" y="1215"/>
      <point x="242" y="1183"/>
      <point x="202" y="1183" type="qcurve" name="ab03"/>
      <point x="161" y="1183"/>
      <point x="88" y="1215"/>
      <point x="34" y="1269"/>
      <point x="3" y="1342"/>
    </contour>
  </outline>
</glyph>
<glyph name="zero.1" format="2">
  <advance width="1300"/>
  <unicode hex="E070"/>
  <outline>
    <contour>
      <point x="628" y="-16" type="curve" smooth="yes"/>
      <point x="1034" y="-16"/>
      <point x="1188" y="390"/>
      <point x="1188" y="750" type="curve" smooth="yes"/>
      <point x="1188" y="1099"/>
      <point x="1001" y="1516"/>
      <point x="628" y="1516" type="curve" smooth="yes"/>
      <point x="221" y="1516"/>
      <point x="68" y="1110"/>
      <point x="68" y="750" type="curve" smooth="yes"/>
      <point x="68" y="401"/>
      <point x="255" y="-16"/>
    </contour>
    <contour>
      <point x="396" y="791" type="curve" smooth="yes"/>
      <point x="396" y="1008"/>
      <point x="451" y="1273"/>
      <point x="620" y="1273" type="curve" smooth="yes"/>
      <point x="672" y="1273"/>
      <point x="713" y="1247"/>
      <point x="746" y="1204" type="curve"/>
      <point x="383" y="328" type="line"/>
      <point x="405" y="628" type="line"/>
      <point x="398" y="687"/>
      <point x="396" y="743"/>
    </contour>
    <contour>
      <point x="857" y="800" type="line"/>
      <point x="859" y="768"/>
      <point x="860" y="738"/>
      <point x="860" y="709" type="curve" smooth="yes"/>
      <point x="860" y="491"/>
      <point x="803" y="226"/>
      <point x="635" y="226" type="curve" smooth="yes"/>
      <point x="596" y="226"/>
      <point x="563" y="241"/>
      <point x="536" y="266" type="curve"/>
      <point x="880" y="1111" type="line"/>
    </contour>
  </outline>
</glyph>
<glyph name="zero.2" format="2">
  <advance width="1300"/>
  <unicode hex="E071"/>
  <outline>
    <contour>
      <point x="628" y="-16" type="curve" smooth="yes"/>
      <point x="1034" y="-16"/>
      <point x="1188" y="390"/>
      <point x="1188" y="750" type="curve" smooth="yes"/>
      <point x="1188" y="1099"/>
      <point x="1001" y="1516"/>
      <point x="628" y="1516" type="curve" smooth="yes"/>
      <point x="221" y="1516"/>
      <point x="68" y="1110"/>
      <point x="68" y="750" type="curve" smooth="yes"/>
      <point x="68" y="401"/>
      <point x="255" y="-16"/>
    </contour>
    <contour>
      <point x="396" y="791" type="curve" smooth="yes"/>
      <point x="396" y="1008"/>
      <point x="451" y="1273"/>
      <point x="620" y="1273" type="curve" smooth="yes"/>
      <point x="812" y="1273"/>
      <point x="860" y="914"/>
      <point x="860" y="709" type="curve" smooth="yes"/>
      <point x="860" y="491"/>
      <point x="803" y="226"/>
      <point x="635" y="226" type="curve" smooth="yes"/>
      <point x="444" y="226"/>
      <point x="396" y="586"/>
    </contour>
  </outline>
</glyph>
<glyph name="ffligature" format="2">
  <advance width="1300"/>
  <unicode hex="FB00"/>
  <outline>
    <contour>
      <point x="474" y="876" type="line" name="dh04"/>
      <point x="474" y="0" type="line"/>
      <point x="148" y="0" type="line"/>
      <point x="148" y="876" type="line" name="dh03"/>
      <point x="28" y="876" type="line" name="dv02"/>
      <point x="28" y="1100" type="line" name="dv01"/>
      <point x="148" y="1100" type="line" name="dh01"/>
      <point x="148" y="1114" type="line"/>
      <point x="148" y="1201"/>
      <point x="174" y="1353"/>
      <point x="247" y="1466"/>
      <point x="378" y="1531"/>
      <point x="484" y="1531" type="qcurve" name="at01"/>
      <point x="545" y="1531"/>
      <point x="639" y="1512"/>
      <point x="679" y="1492" type="qcurve"/>
      <point x="724" y="1536"/>
      <point x="865" y="1582"/>
      <point x="963" y="1582" type="qcurve" name="av01"/>
      <point x="1015" y="1582"/>
      <point x="1107" y="1563"/>
      <point x="1185" y="1531"/>
      <point x="1252" y="1489"/>
      <point x="1281" y="1466" type="qcurve"/>
      <point x="1160" y="1300" type="line"/>
      <point x="1123" y="1325"/>
      <point x="1044" y="1358"/>
      <point x="995" y="1358" type="qcurve" name="sv01"/>
      <point x="944" y="1358"/>
      <point x="902" y="1284"/>
      <point x="902" y="1198" type="qcurve"/>
      <point x="902" y="1100" type="line"/>
      <point x="1144" y="1100" type="line" name="dv03"/>
      <point x="1117" y="876" type="line" name="dv04"/>
      <point x="907" y="876" type="line"/>
      <point x="907" y="0" type="line" name="dh06"/>
      <point x="581" y="0" type="line" name="dh05"/>
      <point x="581" y="1264" type="line" name="mh01"/>
      <point x="570" y="1287"/>
      <point x="540" y="1305"/>
      <point x="520" y="1305" type="qcurve" name="sv02"/>
      <point x="501" y="1305"/>
      <point x="481" y="1276"/>
      <point x="472" y="1224"/>
      <point x="470" y="1150"/>
      <point x="470" y="1105" type="qcurve" name="dh02"/>
      <point x="470" y="1100" type="line"/>
      <point x="521" y="1100" type="line" name="mh02"/>
      <point x="521" y="876" type="line" name="dv05"/>
    </contour>
  </outline>
</glyph>
